<svg id="svg" version="1.1" xmlns="http://www.w3.org/2000/svg" xmlns:xlink="http://www.w3.org/1999/xlink" width="400" height="400" viewBox="0, 0, 400,400"><g id="svgg"><path id="path0" d="M53.786 77.298 C 53.681 77.574,53.641 110.200,53.697 149.800 L 53.800 221.800 89.907 221.800 L 126.013 221.800 126.013 149.400 L 126.013 77.000 89.995 76.898 C 61.392 76.817,53.937 76.899,53.786 77.298 M274.099 149.300 L 274.200 221.800 310.300 221.902 L 346.400 222.004 346.400 149.402 L 346.400 76.800 310.199 76.800 L 273.998 76.800 274.099 149.300 M196.556 95.100 C 194.830 98.565,193.189 101.638,192.909 101.929 C 192.629 102.219,192.400 102.780,192.400 103.175 C 192.400 103.569,192.040 104.350,191.600 104.909 C 191.160 105.469,190.800 106.131,190.800 106.381 C 190.800 108.479,186.324 109.599,184.301 108.008 C 183.747 107.572,182.868 107.029,182.347 106.800 C 181.826 106.571,180.590 105.850,179.600 105.198 C 176.194 102.955,176.010 103.034,177.108 106.274 C 177.542 107.553,178.014 109.655,178.157 110.945 C 178.300 112.235,178.684 113.670,179.009 114.134 C 179.334 114.598,179.600 115.754,179.600 116.702 C 179.600 117.650,179.945 119.455,180.368 120.713 C 180.790 121.971,181.328 124.350,181.563 126.000 C 181.798 127.650,182.262 129.884,182.595 130.964 C 183.693 134.529,183.447 136.338,181.766 137.040 C 180.370 137.623,177.603 137.244,177.598 136.469 C 177.598 136.321,176.686 135.210,175.574 134.000 C 174.461 132.790,172.347 130.458,170.875 128.818 C 164.806 122.054,164.556 121.917,163.699 124.900 C 163.399 125.945,163.006 126.800,162.827 126.800 C 162.647 126.800,162.384 127.378,162.243 128.086 C 161.629 131.153,157.847 132.655,154.862 131.018 C 154.278 130.697,152.450 130.253,150.800 130.029 C 149.150 129.806,147.440 129.573,147.000 129.512 C 145.948 129.365,145.906 133.359,146.943 134.840 C 147.304 135.356,147.600 136.216,147.600 136.750 C 147.600 137.285,148.061 138.697,148.624 139.888 C 150.927 144.755,149.910 149.025,146.272 149.763 C 144.248 150.173,145.405 151.899,150.452 156.000 C 151.400 156.770,152.631 157.843,153.188 158.384 C 153.744 158.926,155.910 160.801,158.000 162.552 C 160.090 164.303,161.890 165.856,162.000 166.004 C 162.110 166.152,164.090 167.846,166.400 169.768 C 168.710 171.690,170.755 173.712,170.943 174.261 C 171.406 175.606,170.873 180.269,170.179 180.964 C 169.675 181.468,168.834 184.253,168.810 185.500 C 168.797 186.161,170.172 186.136,171.520 185.451 C 172.114 185.149,173.956 184.819,175.614 184.717 C 177.369 184.609,179.040 184.269,179.614 183.903 C 180.156 183.558,181.950 183.150,183.600 182.997 C 185.250 182.844,187.159 182.459,187.842 182.141 C 190.586 180.866,196.663 180.844,197.480 182.106 C 197.656 182.378,197.800 188.990,197.800 196.800 L 197.800 211.000 200.000 211.000 L 202.200 211.000 202.071 202.000 C 202.000 197.050,201.791 191.041,201.607 188.646 C 201.055 181.467,202.042 180.485,208.882 181.405 C 210.047 181.561,211.199 181.850,211.442 182.046 C 211.685 182.241,213.395 182.598,215.242 182.839 C 217.089 183.080,219.140 183.539,219.800 183.859 C 220.460 184.180,222.530 184.584,224.400 184.758 C 226.270 184.932,228.362 185.365,229.049 185.721 C 229.736 186.077,230.411 186.255,230.549 186.117 C 231.030 185.637,230.796 183.253,230.211 182.668 C 229.887 182.344,229.506 181.296,229.364 180.340 C 229.222 179.383,228.857 178.201,228.553 177.714 C 227.179 175.512,228.332 173.889,235.600 167.798 C 237.690 166.046,239.580 164.419,239.800 164.182 C 240.020 163.945,241.370 162.772,242.800 161.576 C 244.230 160.379,245.580 159.201,245.800 158.957 C 246.020 158.713,247.460 157.477,249.000 156.209 C 250.540 154.942,251.984 153.701,252.209 153.453 C 252.434 153.204,252.974 152.802,253.409 152.560 C 254.793 151.789,254.678 150.036,253.224 149.745 C 251.876 149.475,249.601 147.179,249.599 146.086 C 249.597 144.880,250.851 139.864,251.638 137.926 C 252.057 136.895,252.400 135.423,252.400 134.654 C 252.400 133.886,252.672 132.985,253.005 132.652 C 254.643 131.014,254.031 128.416,252.229 129.351 C 251.619 129.668,249.832 130.056,248.260 130.213 C 246.687 130.370,245.045 130.746,244.611 131.049 C 242.427 132.574,238.000 131.163,238.000 128.942 C 238.000 128.640,237.640 128.084,237.200 127.707 C 236.760 127.330,236.396 126.567,236.391 126.011 C 236.386 125.455,236.071 124.621,235.691 124.158 C 234.924 123.224,233.600 122.616,233.600 123.199 C 233.600 123.404,233.105 124.104,232.500 124.754 C 228.965 128.552,222.654 135.631,222.109 136.409 C 220.849 138.207,217.314 137.588,216.753 135.471 C 216.424 134.228,216.946 130.298,217.772 127.800 C 218.064 126.920,218.430 125.120,218.587 123.800 C 218.743 122.480,219.215 120.371,219.636 119.113 C 220.056 117.855,220.400 116.122,220.400 115.263 C 220.400 114.404,220.744 112.914,221.165 111.951 C 222.095 109.824,222.678 105.019,222.053 104.633 C 221.593 104.349,219.395 105.348,218.491 106.252 C 218.190 106.553,217.740 106.800,217.493 106.800 C 217.245 106.800,216.378 107.261,215.566 107.824 C 213.421 109.310,210.571 109.110,209.529 107.400 C 208.574 105.831,207.600 103.728,207.600 103.233 C 207.600 103.017,207.355 102.696,207.057 102.520 C 206.758 102.344,206.298 101.539,206.036 100.732 C 205.774 99.925,205.298 99.048,204.980 98.783 C 204.661 98.518,204.400 97.999,204.400 97.629 C 204.400 97.258,203.950 96.345,203.400 95.600 C 202.850 94.855,202.400 94.055,202.401 93.822 C 202.401 93.215,200.248 88.812,199.947 88.805 C 199.808 88.802,198.282 91.635,196.556 95.100 M300.980 260.108 C 300.873 260.387,300.833 264.932,300.893 270.208 L 301.000 279.800 305.000 279.658 C 310.752 279.455,310.400 280.127,310.400 269.352 C 310.400 260.939,310.356 260.404,309.626 260.014 C 308.470 259.395,301.223 259.474,300.980 260.108 M333.067 259.867 C 332.747 260.186,332.704 278.485,333.021 279.310 C 333.336 280.130,340.691 279.773,341.700 278.889 C 342.828 277.901,342.761 260.621,341.626 260.014 C 340.780 259.561,333.497 259.436,333.067 259.867 M319.843 263.394 C 319.023 264.051,318.749 264.560,318.901 265.142 C 319.263 266.527,318.298 267.374,316.479 267.267 C 313.927 267.116,313.662 269.780,316.021 271.882 C 316.669 272.460,317.200 273.172,317.200 273.466 C 317.200 273.998,317.787 274.069,322.637 274.124 C 325.603 274.158,329.745 269.653,328.494 267.754 C 327.988 266.986,326.536 266.755,325.417 267.265 C 324.115 267.858,323.616 267.313,323.606 265.287 C 323.602 264.402,323.372 263.894,322.900 263.727 C 322.515 263.590,321.930 263.251,321.600 262.973 C 321.105 262.556,320.797 262.630,319.843 263.394 " stroke="none" fill="#ec2020" fill-rule="evenodd"></path><path id="path1" d="M83.523 259.611 C 80.648 259.830,79.292 260.125,78.276 260.753 C 77.522 261.219,76.537 261.600,76.087 261.600 C 75.636 261.600,74.127 262.227,72.734 262.993 C 71.340 263.759,69.660 264.682,69.000 265.044 C 67.208 266.028,59.790 273.591,59.039 275.200 C 58.680 275.970,58.095 277.140,57.739 277.800 C 56.079 280.879,55.655 281.968,55.401 283.814 C 55.251 284.906,54.760 286.926,54.310 288.301 C 53.390 291.113,53.433 297.393,54.384 299.171 C 54.662 299.690,55.048 301.378,55.242 302.923 C 55.436 304.467,55.848 306.016,56.158 306.365 C 56.468 306.714,56.948 307.767,57.225 308.705 C 57.503 309.642,57.970 310.609,58.265 310.854 C 58.559 311.098,58.800 311.454,58.800 311.644 C 58.800 312.168,61.723 316.400,62.085 316.400 C 62.258 316.400,62.400 316.651,62.400 316.957 C 62.400 317.263,63.300 318.200,64.400 319.039 C 65.500 319.878,66.400 320.690,66.400 320.843 C 66.400 320.996,66.895 321.324,67.500 321.571 C 68.105 321.818,69.500 322.650,70.600 323.418 C 71.700 324.187,73.304 325.007,74.164 325.240 C 75.024 325.474,76.104 325.898,76.564 326.183 C 77.475 326.748,85.236 328.006,87.783 328.002 C 92.610 327.995,98.707 326.332,103.180 323.801 C 104.583 323.007,107.752 319.815,108.964 317.973 C 109.534 317.108,110.450 315.715,111.000 314.878 C 111.550 314.042,112.000 313.051,112.000 312.677 C 112.000 312.303,112.360 311.325,112.800 310.504 C 113.643 308.932,113.866 306.612,113.214 306.209 C 112.703 305.893,110.840 308.882,110.533 310.512 C 110.399 311.220,110.047 312.082,109.750 312.426 C 109.453 312.770,109.001 313.670,108.745 314.426 C 108.490 315.182,107.948 316.122,107.540 316.516 C 107.133 316.909,106.800 317.369,106.800 317.537 C 106.800 318.064,103.473 321.253,101.800 322.330 C 97.343 325.198,87.207 326.608,84.376 324.752 C 83.833 324.396,82.761 323.969,81.994 323.804 C 78.711 323.095,71.675 317.147,71.017 314.523 C 70.870 313.940,70.402 313.020,69.975 312.478 C 69.549 311.936,69.200 311.109,69.200 310.640 C 69.200 310.172,68.865 309.161,68.456 308.394 C 66.471 304.674,66.352 283.320,68.305 281.103 C 68.642 280.720,69.065 279.482,69.243 278.352 C 69.422 277.223,69.824 276.006,70.137 275.649 C 70.449 275.292,70.842 274.553,71.009 274.008 C 71.176 273.462,71.620 272.562,71.996 272.008 C 72.372 271.453,73.275 270.100,74.003 269.000 C 75.650 266.509,78.892 263.772,81.903 262.332 C 84.653 261.016,92.861 260.670,94.800 261.789 C 95.350 262.106,96.169 262.535,96.620 262.743 C 98.275 263.503,101.029 265.584,102.089 266.874 C 104.587 269.916,105.104 270.644,105.372 271.500 C 105.527 271.995,105.808 272.400,105.996 272.400 C 106.184 272.400,106.552 273.075,106.814 273.900 C 107.075 274.725,107.525 275.777,107.813 276.237 C 108.101 276.698,108.530 278.122,108.767 279.402 C 109.257 282.054,109.125 281.816,110.302 282.178 C 111.569 282.567,111.798 281.688,111.267 278.471 C 111.025 277.002,110.614 272.380,110.354 268.200 C 109.778 258.958,109.796 259.004,107.654 261.146 C 105.900 262.900,104.742 263.185,103.424 262.187 C 102.996 261.864,102.237 261.600,101.736 261.600 C 101.235 261.600,100.079 261.212,99.169 260.737 C 96.586 259.391,91.362 259.015,83.523 259.611 M279.200 260.075 C 278.238 260.483,278.273 260.519,280.101 261.009 C 282.197 261.570,284.239 263.419,284.672 265.147 C 284.817 265.726,285.264 266.740,285.666 267.400 C 286.318 268.471,286.397 269.598,286.399 277.851 C 286.400 288.527,286.354 288.682,283.594 287.244 C 282.704 286.780,281.704 286.400,281.371 286.400 C 281.039 286.400,280.230 286.002,279.572 285.516 C 277.813 284.216,268.118 284.179,265.983 285.465 C 265.222 285.923,264.076 286.421,263.436 286.572 C 261.213 287.098,254.400 293.320,254.400 294.825 C 254.400 295.089,254.060 295.867,253.644 296.553 C 251.717 299.734,251.712 312.690,253.637 315.138 C 254.057 315.672,254.400 316.466,254.400 316.904 C 254.400 317.380,255.895 319.166,258.124 321.350 C 261.948 325.098,263.066 325.727,267.800 326.802 C 271.198 327.573,280.106 327.092,280.749 326.103 C 280.887 325.890,281.720 325.487,282.600 325.207 C 283.480 324.928,284.509 324.429,284.886 324.100 C 285.509 323.556,285.614 323.607,286.029 324.651 C 287.008 327.114,286.732 327.007,291.852 326.906 C 294.464 326.855,297.386 326.705,298.348 326.575 L 300.095 326.337 298.548 324.846 C 297.696 324.026,296.460 322.285,295.800 320.978 L 294.600 318.600 294.481 289.600 C 294.373 263.253,294.302 260.554,293.704 260.100 C 292.875 259.469,280.677 259.448,279.200 260.075 M181.260 284.568 C 179.003 284.889,177.804 285.249,177.565 285.677 C 177.370 286.026,176.753 286.425,176.195 286.566 C 175.637 286.706,174.818 287.182,174.377 287.623 C 173.367 288.633,172.635 288.269,171.445 286.164 L 170.560 284.600 166.190 284.744 C 160.081 284.945,157.494 286.297,160.372 287.785 C 161.092 288.158,161.957 289.196,162.579 290.432 L 163.600 292.466 163.600 306.196 L 163.600 319.926 162.504 322.063 C 161.901 323.238,161.271 324.260,161.104 324.333 C 160.937 324.407,160.800 324.799,160.800 325.206 C 160.800 325.654,160.446 326.013,159.900 326.118 C 159.405 326.213,163.050 326.291,168.000 326.291 C 172.950 326.291,176.595 326.213,176.100 326.118 C 175.605 326.022,175.200 325.663,175.200 325.319 C 175.200 324.975,174.875 324.403,174.478 324.047 C 172.368 322.157,172.400 322.411,172.400 307.808 L 172.400 294.194 173.458 292.197 C 174.569 290.099,175.680 288.880,178.000 287.208 C 179.807 285.907,186.985 285.678,188.272 286.881 C 192.563 290.895,192.447 290.461,192.677 303.400 C 192.917 316.876,192.544 321.438,191.058 323.205 C 190.476 323.896,190.000 324.796,190.000 325.205 C 190.000 325.744,189.641 325.995,188.700 326.115 C 187.985 326.206,191.268 326.262,195.995 326.240 C 205.560 326.195,206.111 326.012,203.834 323.635 C 201.878 321.594,201.526 319.266,201.196 306.200 C 201.030 299.600,200.872 293.384,200.847 292.387 C 200.788 290.125,199.447 288.240,196.117 285.741 C 194.077 284.210,187.450 283.687,181.260 284.568 M123.000 284.666 C 122.120 284.768,121.040 285.201,120.600 285.629 C 120.160 286.058,119.381 286.726,118.869 287.113 C 117.657 288.030,116.682 291.942,117.255 293.586 C 118.327 296.660,124.393 295.085,124.404 291.731 C 124.420 286.869,131.439 283.756,135.386 286.860 C 139.537 290.126,140.741 299.700,137.338 302.378 C 136.245 303.237,136.385 304.000,137.634 304.000 C 139.350 304.000,139.995 317.953,138.366 319.858 C 138.017 320.266,137.497 321.193,137.210 321.919 C 136.922 322.644,136.173 323.504,135.544 323.829 C 134.915 324.154,134.400 324.596,134.400 324.810 C 134.400 325.473,136.139 325.235,137.400 324.400 C 138.789 323.480,140.223 323.361,140.522 324.141 C 141.369 326.349,150.058 327.935,154.500 326.692 C 156.299 326.189,155.753 325.600,153.489 325.600 C 148.254 325.600,147.857 324.276,147.603 305.932 C 147.402 291.405,147.391 291.254,146.500 290.306 C 146.005 289.779,145.600 289.196,145.600 289.010 C 145.600 288.464,143.112 286.400,142.454 286.400 C 142.123 286.400,141.440 286.013,140.937 285.541 C 140.015 284.675,128.003 284.089,123.000 284.666 M217.653 284.758 C 216.693 284.927,215.739 285.366,215.533 285.733 C 215.328 286.100,214.906 286.400,214.594 286.400 C 214.283 286.400,213.816 286.805,213.556 287.300 C 213.296 287.795,212.850 288.338,212.565 288.507 C 210.805 289.548,211.641 294.446,213.666 294.956 C 217.150 295.833,219.294 293.931,220.278 289.092 C 221.060 285.245,228.797 284.461,231.559 287.948 C 235.017 292.314,235.271 300.650,231.999 302.401 C 230.760 303.063,231.051 303.822,232.700 304.229 L 234.200 304.600 234.311 310.717 C 234.400 315.685,234.306 316.999,233.811 317.706 C 233.475 318.186,233.200 319.050,233.200 319.627 C 233.200 320.204,232.845 320.998,232.410 321.391 C 231.976 321.784,231.522 322.414,231.403 322.792 C 231.283 323.170,230.738 323.682,230.192 323.931 C 229.647 324.179,229.200 324.657,229.200 324.991 C 229.200 326.193,223.631 325.819,221.893 324.500 C 218.236 321.726,217.255 317.478,219.399 313.711 C 220.568 311.658,224.489 307.756,225.800 307.342 C 226.240 307.204,227.029 306.755,227.554 306.345 C 228.079 305.935,228.912 305.600,229.405 305.600 C 230.342 305.600,231.473 304.613,230.919 304.278 C 230.476 304.009,226.063 304.738,225.140 305.232 C 224.724 305.455,222.954 305.800,221.207 305.999 C 219.460 306.198,217.619 306.619,217.115 306.933 C 216.612 307.248,215.750 307.612,215.200 307.743 C 214.285 307.962,212.293 309.640,210.800 311.452 C 210.350 311.998,210.200 313.244,210.200 316.448 L 210.200 320.716 211.821 322.630 C 214.778 326.121,216.890 326.930,223.080 326.946 C 227.368 326.957,228.495 326.840,229.080 326.320 C 229.476 325.968,230.430 325.395,231.200 325.048 C 231.970 324.700,232.915 324.188,233.300 323.910 C 233.848 323.514,234.152 323.509,234.700 323.884 C 239.000 326.832,241.845 327.533,247.400 327.013 C 251.146 326.662,251.859 325.349,248.198 325.542 C 243.402 325.795,242.397 322.395,242.399 305.920 C 242.400 291.224,241.542 287.851,237.471 286.559 C 237.000 286.410,236.120 285.921,235.514 285.474 C 234.313 284.585,221.534 284.073,217.653 284.758 M311.618 284.671 C 308.461 285.110,305.608 288.728,305.602 292.300 C 305.596 296.215,311.594 296.269,312.764 292.364 C 313.377 290.316,315.196 286.407,315.547 286.383 C 315.686 286.373,316.610 286.201,317.600 286.000 C 323.632 284.776,327.173 287.941,327.513 294.862 C 327.766 300.007,327.462 301.488,325.979 302.333 C 324.658 303.084,324.637 303.737,325.928 303.927 C 327.575 304.170,328.000 305.439,328.000 310.112 C 328.000 317.958,326.766 322.243,324.030 323.903 C 323.573 324.180,323.200 324.585,323.200 324.803 C 323.200 325.472,324.933 325.239,326.200 324.400 C 327.727 323.389,328.659 323.389,329.200 324.400 C 329.435 324.840,329.864 325.200,330.153 325.200 C 330.441 325.200,331.075 325.545,331.561 325.966 C 333.374 327.538,344.400 327.531,344.400 325.957 C 344.400 325.761,343.375 325.600,342.122 325.600 C 339.714 325.600,337.600 324.298,337.600 322.814 C 337.600 322.464,337.285 321.733,336.900 321.189 C 336.274 320.305,336.179 318.668,336.000 305.741 C 335.820 292.704,335.731 291.207,335.100 290.510 C 334.715 290.085,334.400 289.576,334.400 289.379 C 334.400 288.877,331.557 286.400,330.981 286.400 C 330.721 286.400,330.008 286.007,329.396 285.526 C 328.283 284.650,316.011 284.060,311.618 284.671 M280.221 287.674 C 282.670 289.398,284.800 292.889,284.800 295.182 C 284.800 295.804,285.156 297.097,285.591 298.056 C 286.742 300.592,286.789 312.854,285.657 315.116 C 285.248 315.932,284.815 317.243,284.694 318.028 C 284.573 318.813,284.020 320.124,283.466 320.941 C 282.911 321.758,282.400 322.555,282.329 322.713 C 280.508 326.764,271.339 326.653,267.519 322.535 C 267.144 322.131,266.473 321.399,266.027 320.909 C 264.857 319.621,262.800 315.631,262.798 314.644 C 262.796 314.180,262.481 313.260,262.098 312.600 C 261.063 310.817,261.064 299.074,262.100 297.611 C 262.485 297.067,262.800 296.186,262.800 295.652 C 262.800 293.519,267.020 288.387,270.044 286.842 C 272.831 285.419,277.564 285.806,280.221 287.674 M130.877 305.006 C 130.149 305.322,128.115 305.761,126.357 305.982 C 124.599 306.202,122.769 306.656,122.291 306.991 C 121.813 307.326,121.122 307.600,120.754 307.600 C 117.982 307.600,113.087 316.117,114.716 318.106 C 114.939 318.377,115.319 319.338,115.560 320.240 C 116.914 325.306,126.118 328.650,133.300 326.686 C 135.335 326.129,134.442 325.600,131.469 325.600 C 127.929 325.600,125.107 324.102,124.443 321.869 C 124.235 321.171,123.836 320.029,123.557 319.332 C 122.380 316.395,125.350 310.936,129.600 308.224 C 130.590 307.592,131.888 306.743,132.484 306.337 C 133.080 305.932,133.913 305.600,134.335 305.600 C 134.757 305.600,135.326 305.330,135.600 305.000 C 136.280 304.181,132.766 304.185,130.877 305.006 M319.677 305.006 C 318.949 305.322,316.915 305.761,315.157 305.982 C 313.399 306.202,311.569 306.656,311.091 306.991 C 310.613 307.326,309.857 307.601,309.411 307.602 C 307.182 307.606,304.103 311.698,303.744 315.132 C 303.169 320.637,305.085 323.706,310.800 326.434 C 311.911 326.964,320.332 327.145,322.100 326.676 C 324.199 326.120,323.213 325.600,320.058 325.600 C 315.828 325.600,313.732 324.158,312.451 320.365 L 311.620 317.905 312.434 315.386 C 312.881 314.001,313.507 312.768,313.824 312.646 C 314.141 312.525,314.400 312.180,314.400 311.880 C 314.400 311.581,315.041 310.810,315.825 310.168 C 316.609 309.525,317.561 308.722,317.942 308.383 C 318.323 308.043,319.199 307.532,319.888 307.246 C 320.578 306.961,321.240 306.473,321.359 306.163 C 321.478 305.854,321.926 305.600,322.355 305.600 C 323.411 305.600,324.400 305.192,324.400 304.757 C 324.400 304.197,321.143 304.369,319.677 305.006 M345.293 324.000 C 344.876 324.667,344.893 324.800,345.397 324.800 C 345.733 324.800,346.000 324.446,346.000 324.000 C 346.000 323.560,345.953 323.200,345.896 323.200 C 345.839 323.200,345.568 323.560,345.293 324.000 M250.938 324.217 C 250.636 325.004,250.993 325.365,251.776 325.065 C 252.128 324.930,252.286 324.569,252.150 324.215 C 251.847 323.425,251.242 323.426,250.938 324.217 " stroke="none" fill="#131313" fill-rule="evenodd"></path><path id="path2" d="M0.000 200.000 L 0.000 400.000 200.000 400.000 L 400.000 400.000 400.000 200.000 L 400.000 0.000 200.000 0.000 L 0.000 0.000 0.000 200.000 M126.126 76.060 C 126.607 76.313,127.132 76.718,127.294 76.960 C 127.911 77.884,127.653 221.375,127.032 222.224 C 126.393 223.098,54.946 223.671,53.600 222.812 C 52.676 222.222,52.485 77.941,53.406 76.535 L 54.018 75.600 89.636 75.600 C 115.699 75.600,125.487 75.723,126.126 76.060 M346.426 76.014 C 347.644 76.666,347.644 222.134,346.426 222.786 C 344.888 223.609,274.651 223.333,273.636 222.500 L 272.784 221.800 272.784 149.400 L 272.784 77.000 273.636 76.300 C 274.651 75.467,344.888 75.191,346.426 76.014 M200.954 88.186 C 201.309 88.728,201.600 89.429,201.600 89.743 C 201.600 90.057,201.853 90.412,202.162 90.530 C 202.472 90.649,202.850 91.317,203.004 92.016 C 203.157 92.714,203.714 93.922,204.241 94.699 C 204.769 95.476,205.200 96.369,205.200 96.684 C 205.200 96.999,205.479 97.536,205.820 97.877 C 206.160 98.218,206.541 99.006,206.666 99.628 C 206.790 100.250,207.231 101.066,207.646 101.442 C 208.061 101.817,208.400 102.432,208.400 102.808 C 208.400 103.184,208.756 103.945,209.192 104.499 C 209.628 105.053,210.161 105.972,210.378 106.542 C 210.609 107.150,211.202 107.686,211.815 107.840 C 212.881 108.107,213.396 107.916,216.200 106.211 C 217.080 105.676,218.250 105.016,218.800 104.743 C 219.350 104.470,220.160 103.945,220.600 103.576 C 223.314 101.299,224.901 102.718,223.668 106.319 C 223.238 107.574,222.756 109.770,222.597 111.200 C 222.437 112.630,222.087 114.250,221.819 114.800 C 221.550 115.350,221.106 117.326,220.831 119.191 C 220.556 121.056,220.163 122.896,219.957 123.280 C 219.751 123.665,219.408 125.357,219.195 127.042 C 218.981 128.726,218.535 130.649,218.203 131.314 C 216.848 134.031,217.513 136.400,219.633 136.400 C 220.464 136.400,220.468 136.396,224.600 131.835 C 226.140 130.136,228.277 127.812,229.348 126.672 C 230.419 125.533,231.731 124.034,232.262 123.343 C 234.148 120.892,236.291 121.458,237.027 124.600 C 237.181 125.260,237.539 126.070,237.823 126.400 C 238.106 126.730,238.455 127.471,238.599 128.047 C 239.053 129.869,240.765 130.807,242.528 130.200 C 243.343 129.920,245.042 129.570,246.305 129.422 C 247.567 129.274,249.642 128.802,250.917 128.372 C 254.747 127.079,256.187 129.947,253.877 134.269 C 253.545 134.891,253.064 136.432,252.809 137.693 C 252.554 138.954,252.083 140.513,251.761 141.158 C 250.042 144.603,251.076 147.717,254.377 149.037 C 257.035 150.101,256.077 151.795,249.872 157.000 C 248.823 157.880,247.657 158.895,247.282 159.256 C 246.907 159.617,245.334 160.967,243.787 162.256 C 240.966 164.607,240.567 164.948,238.469 166.800 C 237.846 167.350,236.095 168.880,234.579 170.200 C 229.281 174.812,229.463 174.556,229.721 177.054 C 229.846 178.268,230.217 179.672,230.546 180.173 C 230.874 180.674,231.313 181.966,231.521 183.042 C 231.729 184.119,232.026 185.301,232.180 185.669 C 232.841 187.240,228.113 187.472,225.245 186.009 C 224.890 185.828,223.040 185.479,221.133 185.234 C 219.226 184.988,217.066 184.543,216.333 184.245 C 215.600 183.948,213.798 183.587,212.329 183.444 C 210.861 183.301,209.021 182.917,208.242 182.592 C 203.286 180.521,202.622 181.717,202.952 192.110 C 203.619 213.087,203.786 211.924,200.090 212.070 C 196.189 212.224,195.926 211.791,196.406 206.000 C 197.083 197.833,196.919 183.594,196.138 182.731 C 195.337 181.846,193.416 181.784,191.510 182.580 C 190.747 182.899,188.651 183.344,186.854 183.570 C 185.057 183.795,183.274 184.145,182.893 184.348 C 182.512 184.551,180.760 184.929,179.000 185.188 C 177.240 185.446,174.990 185.901,174.000 186.198 C 168.657 187.801,166.052 187.003,167.755 184.286 C 168.060 183.799,168.436 182.680,168.589 181.800 C 168.742 180.920,169.128 179.910,169.446 179.555 C 169.764 179.200,170.128 178.030,170.253 176.955 L 170.482 175.000 167.369 172.200 C 165.658 170.660,163.831 168.995,163.310 168.500 C 162.790 168.005,162.192 167.600,161.982 167.600 C 161.772 167.600,161.600 167.447,161.600 167.259 C 161.600 167.071,160.535 166.081,159.232 165.058 C 157.930 164.035,156.132 162.523,155.237 161.699 C 154.341 160.874,152.757 159.480,151.716 158.600 C 150.676 157.720,149.459 156.635,149.012 156.190 C 148.565 155.744,147.264 154.610,146.121 153.670 C 143.154 151.230,143.068 148.843,145.944 148.787 C 148.548 148.737,149.670 144.977,148.024 141.815 C 147.571 140.944,147.200 139.705,147.200 139.063 C 147.200 138.420,146.859 137.333,146.442 136.647 C 146.026 135.961,145.564 134.590,145.417 133.600 C 145.270 132.610,144.863 131.239,144.512 130.552 C 143.259 128.101,145.291 127.221,149.101 128.565 C 149.982 128.876,151.760 129.244,153.052 129.384 C 154.343 129.523,156.154 129.829,157.075 130.064 C 159.181 130.600,160.980 129.534,161.414 127.495 C 161.565 126.783,161.915 125.930,162.191 125.600 C 162.467 125.270,162.821 124.460,162.977 123.800 C 163.686 120.814,165.060 120.862,167.906 123.973 C 168.624 124.758,170.424 126.738,171.906 128.373 C 173.388 130.009,175.095 131.880,175.700 132.533 C 176.305 133.185,176.800 133.860,176.800 134.032 C 176.800 134.205,177.141 134.454,177.557 134.586 C 177.973 134.718,178.406 135.181,178.519 135.613 C 178.839 136.834,181.105 136.702,181.587 135.433 C 181.939 134.509,181.384 130.389,180.345 126.200 C 180.126 125.320,179.624 122.890,179.229 120.800 C 178.833 118.710,178.329 116.550,178.108 116.000 C 177.888 115.450,177.578 113.950,177.421 112.667 C 177.263 111.384,176.789 109.331,176.367 108.104 C 174.868 103.747,175.650 101.599,178.231 102.989 C 178.984 103.394,179.600 103.863,179.600 104.031 C 179.600 104.199,180.139 104.455,180.798 104.599 C 181.456 104.744,182.131 105.084,182.298 105.355 C 182.464 105.625,183.172 106.078,183.871 106.360 C 184.570 106.642,185.240 107.127,185.359 107.437 C 185.955 108.990,190.000 107.310,190.000 105.509 C 190.000 105.299,190.360 104.669,190.800 104.109 C 191.240 103.550,191.600 102.781,191.600 102.400 C 191.600 102.019,191.935 101.279,192.345 100.754 C 192.755 100.229,193.226 99.350,193.392 98.800 C 193.559 98.250,193.921 97.530,194.197 97.200 C 194.473 96.870,194.911 95.939,195.170 95.132 C 195.429 94.325,195.884 93.462,196.181 93.216 C 196.478 92.969,196.831 92.331,196.965 91.798 C 197.254 90.647,199.516 87.200,199.982 87.200 C 200.161 87.200,200.599 87.644,200.954 88.186 M93.450 258.141 C 94.302 258.438,95.990 258.809,97.200 258.965 C 98.410 259.120,99.850 259.552,100.400 259.924 C 102.686 261.470,105.581 261.547,107.023 260.100 C 109.635 257.481,110.754 258.492,111.225 263.892 C 111.412 266.041,111.749 268.970,111.975 270.400 C 112.659 274.750,112.529 282.665,111.767 282.957 C 109.690 283.754,108.000 282.726,108.000 280.666 C 108.000 279.963,107.668 278.761,107.261 277.994 C 106.855 277.227,106.394 276.074,106.237 275.432 C 106.079 274.789,105.602 273.820,105.175 273.278 C 104.749 272.736,104.400 272.116,104.400 271.902 C 104.400 271.491,101.605 267.966,100.196 266.600 C 95.909 262.444,87.652 260.517,83.910 262.799 C 83.189 263.238,82.255 263.598,81.834 263.599 C 80.921 263.600,80.651 263.817,76.899 267.547 C 75.303 269.133,73.725 271.009,73.392 271.716 C 73.058 272.422,72.544 273.450,72.247 274.000 C 70.480 277.283,69.392 280.741,68.346 286.400 C 67.676 290.029,68.068 304.783,68.867 306.000 C 69.228 306.550,69.653 307.810,69.813 308.800 C 69.972 309.790,70.439 311.029,70.851 311.554 C 71.263 312.079,71.600 312.770,71.600 313.091 C 71.600 314.400,77.598 320.901,79.280 321.414 C 79.786 321.568,80.489 321.947,80.841 322.256 C 81.483 322.818,85.813 323.854,89.200 324.256 C 91.341 324.510,99.024 323.033,99.848 322.209 C 100.154 321.903,100.769 321.537,101.214 321.396 C 102.098 321.115,106.000 317.378,106.000 316.812 C 106.000 316.619,106.423 315.953,106.939 315.331 C 107.456 314.709,108.010 313.660,108.170 313.000 C 108.331 312.340,108.696 311.530,108.980 311.200 C 109.265 310.870,109.619 309.930,109.765 309.112 C 110.723 303.765,114.658 304.018,114.312 309.404 C 114.109 312.577,114.452 313.251,115.175 311.100 C 115.652 309.683,118.023 307.494,119.605 307.010 C 120.152 306.842,120.870 306.472,121.200 306.186 C 121.530 305.900,122.970 305.459,124.400 305.206 C 125.830 304.953,127.771 304.488,128.714 304.173 C 129.657 303.858,131.075 303.600,131.867 303.600 C 137.108 303.600,140.281 296.520,137.300 291.477 C 136.805 290.640,136.400 289.740,136.400 289.477 C 136.400 289.215,135.780 288.505,135.021 287.900 C 132.225 285.669,126.400 286.878,126.400 289.689 C 126.400 290.045,126.141 290.845,125.824 291.468 C 125.508 292.090,125.047 293.140,124.800 293.800 C 123.096 298.358,115.301 296.841,115.494 291.990 C 115.743 285.739,124.416 281.270,133.400 282.763 C 138.652 283.636,141.821 284.439,142.244 285.005 C 142.488 285.332,142.962 285.600,143.298 285.600 C 143.930 285.600,146.197 287.909,147.469 289.848 C 148.129 290.854,148.223 292.312,148.435 304.781 C 148.624 315.885,148.798 319.018,149.320 320.728 C 150.466 324.485,152.677 325.805,154.632 323.900 C 155.140 323.405,155.940 322.640,156.410 322.200 L 157.264 321.400 158.032 322.344 C 158.454 322.864,158.800 323.539,158.800 323.844 C 158.800 324.551,159.109 324.549,159.821 323.836 C 160.132 323.525,160.564 323.210,160.782 323.136 C 162.594 322.514,163.694 298.563,162.154 293.235 C 161.047 289.402,160.909 289.201,158.798 288.324 C 156.972 287.565,156.800 287.380,156.800 286.174 C 156.800 284.593,156.861 284.569,162.200 284.019 C 164.400 283.792,167.016 283.355,168.014 283.048 C 170.093 282.408,172.019 283.587,172.866 286.017 L 173.277 287.197 174.293 286.399 C 174.851 285.959,175.464 285.600,175.654 285.600 C 175.844 285.600,176.360 285.240,176.800 284.800 C 177.240 284.360,178.027 284.000,178.548 284.000 C 179.069 284.000,180.623 283.640,182.000 283.200 C 184.654 282.352,188.083 282.182,190.400 282.782 C 194.413 283.821,195.954 284.395,197.517 285.428 C 199.514 286.750,201.600 289.683,201.600 291.171 C 201.600 291.740,201.808 292.834,202.063 293.603 C 202.350 294.470,202.618 299.852,202.769 307.800 C 203.043 322.185,202.909 321.550,206.212 324.044 C 208.455 325.738,208.758 326.282,207.920 327.120 C 207.412 327.628,188.303 327.845,187.033 327.357 C 185.629 326.818,187.384 323.603,189.084 323.599 C 189.258 323.599,189.895 322.815,190.500 321.857 L 191.600 320.116 191.600 306.834 L 191.600 293.552 190.503 291.273 C 188.526 287.164,183.737 285.742,179.415 287.979 C 178.544 288.431,177.599 288.800,177.315 288.800 C 177.032 288.800,176.800 288.981,176.800 289.203 C 176.800 289.424,176.352 289.994,175.805 290.470 C 175.259 290.946,174.693 291.979,174.549 292.767 C 174.405 293.555,174.042 294.555,173.743 294.989 C 173.315 295.611,173.200 298.327,173.200 307.804 C 173.200 321.581,173.294 322.043,176.488 323.939 C 181.650 327.004,180.263 327.600,167.974 327.600 C 159.463 327.600,158.745 327.545,158.033 326.833 C 157.276 326.076,157.255 326.076,156.571 326.833 C 156.189 327.255,155.445 327.600,154.918 327.600 C 154.391 327.600,153.407 327.886,152.732 328.235 C 150.906 329.180,143.699 328.148,142.008 326.700 C 141.559 326.315,141.035 326.000,140.844 326.000 C 140.654 326.000,140.271 325.727,139.994 325.393 C 139.552 324.860,139.193 324.950,137.045 326.130 C 132.379 328.693,123.538 329.027,120.316 326.762 C 119.720 326.343,119.051 326.000,118.830 326.000 C 116.661 326.000,113.600 320.113,113.600 315.944 C 113.600 312.837,113.043 311.717,112.584 313.900 C 112.457 314.505,112.179 315.270,111.967 315.600 C 111.755 315.930,111.208 316.785,110.751 317.500 C 110.295 318.215,109.759 318.800,109.560 318.800 C 109.362 318.800,109.200 319.018,109.200 319.283 C 109.200 321.272,101.111 326.765,96.400 327.975 C 95.410 328.229,93.880 328.625,93.000 328.855 C 90.959 329.389,81.046 329.102,80.305 328.487 C 80.006 328.239,78.959 327.916,77.980 327.771 C 77.001 327.626,75.655 327.197,74.988 326.819 C 74.322 326.441,73.291 326.009,72.698 325.860 C 71.593 325.583,69.146 324.137,67.900 323.025 C 67.515 322.681,67.065 322.397,66.900 322.393 C 66.370 322.381,61.600 317.780,61.600 317.281 C 61.600 317.016,61.375 316.799,61.100 316.797 C 60.637 316.795,59.909 315.836,58.397 313.237 C 58.065 312.667,57.480 311.755,57.097 311.211 C 56.713 310.667,56.400 309.924,56.400 309.560 C 56.400 309.196,56.140 308.682,55.822 308.418 C 55.504 308.154,55.042 306.917,54.795 305.669 C 54.547 304.421,54.049 302.770,53.687 302.000 C 52.720 299.945,52.711 287.630,53.675 285.600 C 54.040 284.830,54.539 283.217,54.783 282.016 C 55.028 280.815,55.467 279.555,55.760 279.216 C 56.053 278.877,56.402 278.138,56.535 277.574 C 56.669 277.009,57.143 276.127,57.589 275.613 C 58.035 275.098,58.400 274.505,58.400 274.294 C 58.400 273.885,61.014 270.620,63.000 268.548 C 64.406 267.081,67.858 264.400,68.341 264.400 C 68.525 264.400,68.987 264.056,69.367 263.636 C 69.748 263.216,70.511 262.758,71.064 262.620 C 71.616 262.481,72.447 262.015,72.910 261.584 C 73.372 261.153,74.157 260.800,74.653 260.800 C 75.149 260.800,76.150 260.452,76.877 260.026 C 77.605 259.601,79.334 259.126,80.720 258.972 C 82.105 258.818,83.905 258.454,84.720 258.164 C 86.661 257.470,91.492 257.458,93.450 258.141 M293.744 258.602 C 295.707 259.422,295.587 257.520,295.704 289.800 L 295.808 318.600 296.704 320.281 C 297.197 321.205,297.600 322.144,297.600 322.367 C 297.600 322.589,298.005 322.984,298.500 323.244 C 303.524 325.878,303.140 327.273,297.287 327.652 C 295.149 327.790,292.369 328.141,291.110 328.432 C 288.230 329.097,286.823 328.677,286.000 326.908 C 285.279 325.358,284.883 325.320,282.240 326.547 C 277.295 328.844,272.348 329.452,268.800 328.200 C 267.865 327.870,266.669 327.600,266.142 327.600 C 262.998 327.600,255.456 321.728,253.900 318.069 C 253.650 317.481,253.232 316.730,252.971 316.400 C 252.217 315.446,250.400 307.768,250.400 305.538 C 250.400 303.349,252.178 296.182,252.965 295.200 C 253.229 294.870,253.640 294.150,253.879 293.600 C 254.454 292.271,258.731 287.600,259.372 287.600 C 259.649 287.600,260.187 287.256,260.567 286.836 C 260.948 286.416,261.741 285.952,262.329 285.805 C 262.918 285.658,263.673 285.292,264.007 284.991 C 266.171 283.042,279.021 283.028,281.169 284.972 C 281.535 285.304,282.457 285.625,283.217 285.687 L 284.600 285.800 284.600 276.800 C 284.600 265.370,283.583 262.540,279.209 261.802 C 274.146 260.946,276.679 258.802,282.762 258.794 C 285.313 258.791,287.670 258.613,288.000 258.400 C 288.910 257.812,292.123 257.925,293.744 258.602 M311.206 259.611 C 312.065 261.217,311.546 279.959,310.624 280.633 C 309.196 281.675,301.001 281.422,300.223 280.311 C 299.401 279.138,299.290 260.886,300.096 259.595 C 300.863 258.367,310.548 258.381,311.206 259.611 M343.186 259.574 C 343.816 260.750,343.724 278.731,343.082 280.000 C 342.583 280.986,342.507 281.000,337.600 281.000 C 331.183 281.000,331.614 281.806,331.606 269.789 C 331.598 258.015,331.155 258.800,337.809 258.800 C 342.306 258.800,342.811 258.873,343.186 259.574 M322.400 261.971 C 322.400 262.159,322.894 262.437,323.498 262.589 C 325.022 262.971,325.600 263.538,325.600 264.651 C 325.600 265.443,325.906 265.685,327.414 266.088 C 330.102 266.807,330.469 270.132,328.114 272.419 C 327.501 273.014,326.677 273.973,326.281 274.550 C 325.716 275.375,325.235 275.600,324.030 275.600 C 322.315 275.600,321.398 276.384,321.711 277.583 C 321.976 278.594,321.078 279.418,320.488 278.705 C 320.259 278.427,320.010 277.660,319.935 277.000 C 319.815 275.936,319.623 275.777,318.234 275.600 C 316.868 275.426,316.607 275.220,316.198 274.000 C 315.940 273.230,315.475 272.550,315.165 272.489 C 314.403 272.339,312.800 269.478,312.800 268.270 C 312.800 266.968,313.516 266.451,315.740 266.146 C 317.408 265.918,317.600 265.785,317.600 264.857 C 317.600 263.427,320.686 260.718,321.700 261.257 C 322.085 261.461,322.400 261.782,322.400 261.971 M230.825 283.158 C 232.461 283.574,234.484 284.034,235.321 284.180 C 236.158 284.325,236.942 284.704,237.064 285.022 C 237.186 285.340,237.544 285.600,237.860 285.600 C 238.621 285.600,242.400 289.154,242.400 289.869 C 242.400 290.176,242.715 290.909,243.100 291.496 C 243.725 292.450,243.822 294.152,244.000 307.315 C 244.174 320.169,244.282 322.125,244.835 322.533 C 245.184 322.790,245.685 323.405,245.949 323.900 C 246.746 325.397,248.444 325.091,250.214 323.131 L 251.722 321.463 252.461 322.376 C 255.537 326.175,247.361 329.997,240.400 328.014 C 237.611 327.220,235.020 325.894,234.119 324.800 C 233.810 324.424,233.621 324.376,233.613 324.671 C 233.593 325.398,229.450 327.600,228.102 327.600 C 227.441 327.600,226.136 327.870,225.201 328.200 C 223.475 328.809,218.121 328.199,215.800 327.130 C 212.393 325.559,209.719 322.719,209.346 320.275 C 209.206 319.354,208.915 318.377,208.701 318.106 C 208.290 317.584,208.421 316.288,209.218 313.000 C 209.743 310.835,212.552 307.587,214.408 306.998 C 214.933 306.831,215.598 306.459,215.886 306.171 C 216.174 305.883,217.262 305.543,218.305 305.415 C 219.347 305.287,221.383 304.826,222.828 304.391 C 224.274 303.956,226.032 303.600,226.734 303.600 C 231.271 303.600,233.133 300.640,232.676 294.157 C 232.432 290.698,232.437 290.709,229.680 287.900 C 228.249 286.443,223.556 286.241,222.707 287.600 C 222.432 288.040,222.001 288.400,221.749 288.400 C 221.497 288.400,221.163 289.253,221.007 290.295 C 220.691 292.402,219.006 295.600,218.211 295.600 C 217.929 295.600,217.474 295.870,217.200 296.200 C 215.881 297.790,211.822 296.191,211.165 293.822 C 208.994 285.998,219.532 280.282,230.825 283.158 M322.600 282.800 C 326.686 283.498,330.180 284.439,330.812 285.011 C 331.170 285.335,331.629 285.601,331.831 285.602 C 332.198 285.604,334.455 287.667,335.600 289.047 C 337.008 290.743,337.322 293.581,337.610 307.200 C 337.917 321.723,338.007 322.490,339.560 323.858 C 341.050 325.171,342.029 325.020,344.033 323.167 C 346.039 321.313,346.915 321.423,347.126 323.555 C 347.670 329.031,332.239 330.297,328.373 325.094 C 328.122 324.757,325.787 325.784,324.722 326.700 C 324.015 327.309,318.678 328.501,316.600 328.514 C 299.644 328.621,296.707 308.191,313.248 305.191 C 314.584 304.949,316.132 304.578,316.687 304.367 C 317.242 304.156,318.844 303.821,320.246 303.622 C 321.649 303.423,323.068 302.989,323.401 302.657 C 323.733 302.324,324.337 301.947,324.744 301.818 C 327.642 300.898,327.056 288.409,324.114 288.401 C 323.847 288.401,323.435 288.040,323.200 287.600 C 322.120 285.582,315.200 286.953,315.200 289.185 C 315.200 289.540,314.860 290.498,314.444 291.314 C 314.028 292.130,313.575 293.244,313.439 293.788 C 312.272 298.436,304.014 296.772,304.003 291.887 C 303.988 285.845,313.427 281.233,322.600 282.800 M270.905 287.818 C 267.470 289.471,264.243 293.409,263.616 296.715 C 263.419 297.752,263.035 299.140,262.762 299.800 C 262.019 301.602,262.132 308.613,262.939 310.750 C 263.302 311.713,263.600 312.952,263.600 313.503 C 263.600 314.054,263.939 315.067,264.354 315.753 C 264.769 316.439,265.242 317.450,265.405 318.000 C 265.568 318.550,265.943 319.270,266.239 319.600 C 270.038 323.836,271.739 324.800,275.421 324.800 C 277.170 324.800,278.225 324.602,278.700 324.185 C 279.085 323.847,279.962 323.131,280.648 322.593 C 282.360 321.253,283.880 317.967,284.381 314.523 C 285.314 308.117,284.463 294.417,283.035 292.838 C 282.686 292.453,282.400 291.900,282.400 291.611 C 282.400 290.883,279.934 288.410,279.200 288.402 C 278.870 288.398,278.060 288.037,277.400 287.600 C 275.766 286.518,273.444 286.596,270.905 287.818 M137.289 305.437 C 137.007 305.741,136.287 306.110,135.689 306.256 C 135.090 306.402,134.187 306.842,133.681 307.233 C 133.176 307.625,132.246 308.058,131.615 308.197 C 130.983 308.335,130.367 308.708,130.246 309.024 C 130.124 309.341,129.794 309.604,129.513 309.609 C 129.231 309.613,128.460 310.268,127.800 311.064 C 127.140 311.860,126.244 312.888,125.808 313.348 C 123.789 315.479,125.291 323.600,127.703 323.600 C 127.898 323.600,128.327 323.870,128.657 324.200 C 130.480 326.022,134.896 323.768,136.918 319.983 C 138.718 316.614,139.051 303.530,137.289 305.437 M231.400 306.000 C 231.264 306.220,230.741 306.400,230.238 306.400 C 229.734 306.400,228.907 306.760,228.400 307.200 C 227.893 307.640,227.249 308.000,226.969 308.000 C 226.690 308.000,225.927 308.450,225.273 309.000 C 224.619 309.550,223.989 310.000,223.873 310.000 C 223.398 310.000,221.231 312.474,220.978 313.306 C 220.828 313.798,220.415 314.531,220.059 314.935 C 217.411 317.947,221.495 324.840,225.909 324.807 C 226.780 324.800,230.052 322.938,230.338 322.285 C 230.414 322.112,230.946 321.413,231.519 320.732 C 232.518 319.544,232.568 319.251,232.729 313.568 C 232.927 306.598,232.508 304.208,231.400 306.000 M324.356 306.142 C 323.563 306.394,322.649 306.821,322.326 307.091 C 322.003 307.362,321.077 307.859,320.269 308.197 C 319.461 308.534,318.800 308.988,318.800 309.205 C 318.800 309.422,318.565 309.600,318.278 309.600 C 317.704 309.600,315.931 311.425,314.391 313.600 C 312.942 315.647,312.956 320.506,314.416 322.023 C 316.700 324.398,320.611 325.658,321.480 324.300 C 321.656 324.025,322.335 323.499,322.989 323.132 C 323.643 322.764,324.474 321.911,324.836 321.236 C 325.198 320.561,325.731 319.724,326.021 319.375 C 326.601 318.676,327.100 308.448,326.643 306.628 C 326.357 305.490,326.389 305.497,324.356 306.142 " stroke="none" fill="#fbfbfb" fill-rule="evenodd"></path><path id="path3" d="M84.720 258.164 C 83.905 258.454,82.105 258.818,80.720 258.972 C 79.334 259.126,77.605 259.601,76.877 260.026 C 76.150 260.452,75.149 260.800,74.653 260.800 C 74.157 260.800,73.372 261.153,72.910 261.584 C 72.447 262.015,71.616 262.481,71.064 262.620 C 70.511 262.758,69.748 263.216,69.367 263.636 C 68.987 264.056,68.525 264.400,68.341 264.400 C 67.858 264.400,64.406 267.081,63.000 268.548 C 61.014 270.620,58.400 273.885,58.400 274.294 C 58.400 274.505,58.035 275.098,57.589 275.613 C 57.143 276.127,56.669 277.009,56.535 277.574 C 56.402 278.138,56.053 278.877,55.760 279.216 C 55.467 279.555,55.028 280.815,54.783 282.016 C 54.539 283.217,54.040 284.830,53.675 285.600 C 52.711 287.630,52.720 299.945,53.687 302.000 C 54.049 302.770,54.547 304.421,54.795 305.669 C 55.042 306.917,55.504 308.154,55.822 308.418 C 56.140 308.682,56.400 309.196,56.400 309.560 C 56.400 309.924,56.713 310.667,57.097 311.211 C 57.480 311.755,58.065 312.667,58.397 313.237 C 59.909 315.836,60.637 316.795,61.100 316.797 C 61.375 316.799,61.600 317.016,61.600 317.281 C 61.600 317.780,66.370 322.381,66.900 322.393 C 67.065 322.397,67.515 322.681,67.900 323.025 C 69.146 324.137,71.593 325.583,72.698 325.860 C 73.291 326.009,74.322 326.441,74.988 326.819 C 75.655 327.197,77.001 327.626,77.980 327.771 C 78.959 327.916,80.006 328.239,80.305 328.487 C 81.046 329.102,90.959 329.389,93.000 328.855 C 93.880 328.625,95.410 328.229,96.400 327.975 C 101.111 326.765,109.200 321.272,109.200 319.283 C 109.200 319.018,109.362 318.800,109.560 318.800 C 109.759 318.800,110.295 318.215,110.751 317.500 C 111.208 316.785,111.755 315.930,111.967 315.600 C 112.179 315.270,112.457 314.505,112.584 313.900 C 113.043 311.717,113.600 312.837,113.600 315.944 C 113.600 320.113,116.661 326.000,118.830 326.000 C 119.051 326.000,119.720 326.343,120.316 326.762 C 123.538 329.027,132.379 328.693,137.045 326.130 C 139.193 324.950,139.552 324.860,139.994 325.393 C 140.271 325.727,140.654 326.000,140.844 326.000 C 141.035 326.000,141.559 326.315,142.008 326.700 C 143.699 328.148,150.906 329.180,152.732 328.235 C 153.407 327.886,154.391 327.600,154.918 327.600 C 155.445 327.600,156.189 327.255,156.571 326.833 C 157.255 326.076,157.276 326.076,158.033 326.833 C 158.745 327.545,159.463 327.600,167.974 327.600 C 180.263 327.600,181.650 327.004,176.488 323.939 C 173.294 322.043,173.200 321.581,173.200 307.804 C 173.200 298.327,173.315 295.611,173.743 294.989 C 174.042 294.555,174.405 293.555,174.549 292.767 C 174.693 291.979,175.259 290.946,175.805 290.470 C 176.352 289.994,176.800 289.424,176.800 289.203 C 176.800 288.981,177.032 288.800,177.315 288.800 C 177.599 288.800,178.544 288.431,179.415 287.979 C 183.737 285.742,188.526 287.164,190.503 291.273 L 191.600 293.552 191.600 306.834 L 191.600 320.116 190.500 321.857 C 189.895 322.815,189.258 323.599,189.084 323.599 C 187.384 323.603,185.629 326.818,187.033 327.357 C 188.303 327.845,207.412 327.628,207.920 327.120 C 208.758 326.282,208.455 325.738,206.212 324.044 C 202.909 321.550,203.043 322.185,202.769 307.800 C 202.618 299.852,202.350 294.470,202.063 293.603 C 201.808 292.834,201.600 291.740,201.600 291.171 C 201.600 289.683,199.514 286.750,197.517 285.428 C 195.954 284.395,194.413 283.821,190.400 282.782 C 188.083 282.182,184.654 282.352,182.000 283.200 C 180.623 283.640,179.069 284.000,178.548 284.000 C 178.027 284.000,177.240 284.360,176.800 284.800 C 176.360 285.240,175.844 285.600,175.654 285.600 C 175.464 285.600,174.851 285.959,174.293 286.399 L 173.277 287.197 172.866 286.017 C 172.019 283.587,170.093 282.408,168.014 283.048 C 167.016 283.355,164.400 283.792,162.200 284.019 C 156.861 284.569,156.800 284.593,156.800 286.174 C 156.800 287.380,156.972 287.565,158.798 288.324 C 160.909 289.201,161.047 289.402,162.154 293.235 C 163.694 298.563,162.594 322.514,160.782 323.136 C 160.564 323.210,160.132 323.525,159.821 323.836 C 159.109 324.549,158.800 324.551,158.800 323.844 C 158.800 323.539,158.454 322.864,158.032 322.344 L 157.264 321.400 156.410 322.200 C 155.940 322.640,155.140 323.405,154.632 323.900 C 152.677 325.805,150.466 324.485,149.320 320.728 C 148.798 319.018,148.624 315.885,148.435 304.781 C 148.223 292.312,148.129 290.854,147.469 289.848 C 146.197 287.909,143.930 285.600,143.298 285.600 C 142.962 285.600,142.488 285.332,142.244 285.005 C 141.821 284.439,138.652 283.636,133.400 282.763 C 124.416 281.270,115.743 285.739,115.494 291.990 C 115.301 296.841,123.096 298.358,124.800 293.800 C 125.047 293.140,125.508 292.090,125.824 291.468 C 126.141 290.845,126.400 290.045,126.400 289.689 C 126.400 286.878,132.225 285.669,135.021 287.900 C 135.780 288.505,136.400 289.215,136.400 289.477 C 136.400 289.740,136.805 290.640,137.300 291.477 C 140.281 296.520,137.108 303.600,131.867 303.600 C 131.075 303.600,129.657 303.858,128.714 304.173 C 127.771 304.488,125.830 304.953,124.400 305.206 C 122.970 305.459,121.530 305.900,121.200 306.186 C 120.870 306.472,120.152 306.842,119.605 307.010 C 118.023 307.494,115.652 309.683,115.175 311.100 C 114.452 313.251,114.109 312.577,114.312 309.404 C 114.658 304.018,110.723 303.765,109.765 309.112 C 109.619 309.930,109.265 310.870,108.980 311.200 C 108.696 311.530,108.331 312.340,108.170 313.000 C 108.010 313.660,107.456 314.709,106.939 315.331 C 106.423 315.953,106.000 316.619,106.000 316.812 C 106.000 317.378,102.098 321.115,101.214 321.396 C 100.769 321.537,100.154 321.903,99.848 322.209 C 99.024 323.033,91.341 324.510,89.200 324.256 C 85.813 323.854,81.483 322.818,80.841 322.256 C 80.489 321.947,79.786 321.568,79.280 321.414 C 77.598 320.901,71.600 314.400,71.600 313.091 C 71.600 312.770,71.263 312.079,70.851 311.554 C 70.439 311.029,69.972 309.790,69.813 308.800 C 69.653 307.810,69.228 306.550,68.867 306.000 C 68.068 304.783,67.676 290.029,68.346 286.400 C 69.392 280.741,70.480 277.283,72.247 274.000 C 72.544 273.450,73.058 272.422,73.392 271.716 C 73.725 271.009,75.303 269.133,76.899 267.547 C 80.651 263.817,80.921 263.600,81.834 263.599 C 82.255 263.598,83.189 263.238,83.910 262.799 C 87.652 260.517,95.909 262.444,100.196 266.600 C 101.605 267.966,104.400 271.491,104.400 271.902 C 104.400 272.116,104.749 272.736,105.175 273.278 C 105.602 273.820,106.079 274.789,106.237 275.432 C 106.394 276.074,106.855 277.227,107.261 277.994 C 107.668 278.761,108.000 279.963,108.000 280.666 C 108.000 282.726,109.690 283.754,111.767 282.957 C 112.529 282.665,112.659 274.750,111.975 270.400 C 111.749 268.970,111.412 266.041,111.225 263.892 C 110.754 258.492,109.635 257.481,107.023 260.100 C 105.581 261.547,102.686 261.470,100.400 259.924 C 99.850 259.552,98.410 259.120,97.200 258.965 C 95.990 258.809,94.302 258.438,93.450 258.141 C 91.492 257.458,86.661 257.470,84.720 258.164 M288.000 258.400 C 287.670 258.613,285.313 258.791,282.762 258.794 C 276.679 258.802,274.146 260.946,279.209 261.802 C 283.583 262.540,284.600 265.370,284.600 276.800 L 284.600 285.800 283.217 285.687 C 282.457 285.625,281.535 285.304,281.169 284.972 C 279.021 283.028,266.171 283.042,264.007 284.991 C 263.673 285.292,262.918 285.658,262.329 285.805 C 261.741 285.952,260.948 286.416,260.567 286.836 C 260.187 287.256,259.649 287.600,259.372 287.600 C 258.731 287.600,254.454 292.271,253.879 293.600 C 253.640 294.150,253.229 294.870,252.965 295.200 C 252.178 296.182,250.400 303.349,250.400 305.538 C 250.400 307.768,252.217 315.446,252.971 316.400 C 253.232 316.730,253.650 317.481,253.900 318.069 C 255.456 321.728,262.998 327.600,266.142 327.600 C 266.669 327.600,267.865 327.870,268.800 328.200 C 272.348 329.452,277.295 328.844,282.240 326.547 C 284.883 325.320,285.279 325.358,286.000 326.908 C 286.823 328.677,288.230 329.097,291.110 328.432 C 292.369 328.141,295.149 327.790,297.287 327.652 C 303.140 327.273,303.524 325.878,298.500 323.244 C 298.005 322.984,297.600 322.589,297.600 322.367 C 297.600 322.144,297.197 321.205,296.704 320.281 L 295.808 318.600 295.704 289.800 C 295.647 273.960,295.507 260.596,295.393 260.102 C 295.014 258.456,289.778 257.251,288.000 258.400 M94.256 259.562 C 96.294 259.757,98.132 260.197,99.169 260.737 C 100.079 261.212,101.235 261.600,101.736 261.600 C 102.237 261.600,102.996 261.864,103.424 262.187 C 104.742 263.185,105.900 262.900,107.654 261.146 C 109.796 259.004,109.778 258.958,110.354 268.200 C 110.614 272.380,111.025 277.002,111.267 278.471 C 111.798 281.688,111.569 282.567,110.302 282.178 C 109.125 281.816,109.257 282.054,108.767 279.402 C 108.530 278.122,108.101 276.698,107.813 276.237 C 107.525 275.777,107.075 274.725,106.814 273.900 C 106.552 273.075,106.184 272.400,105.996 272.400 C 105.808 272.400,105.527 271.995,105.372 271.500 C 105.104 270.644,104.587 269.916,102.089 266.874 C 101.029 265.584,98.275 263.503,96.620 262.743 C 96.169 262.535,95.350 262.106,94.800 261.789 C 92.861 260.670,84.653 261.016,81.903 262.332 C 78.892 263.772,75.650 266.509,74.003 269.000 C 73.275 270.100,72.372 271.453,71.996 272.008 C 71.620 272.562,71.176 273.462,71.009 274.008 C 70.842 274.553,70.449 275.292,70.137 275.649 C 69.824 276.006,69.422 277.223,69.243 278.352 C 69.065 279.482,68.642 280.720,68.305 281.103 C 66.352 283.320,66.471 304.674,68.456 308.394 C 68.865 309.161,69.200 310.172,69.200 310.640 C 69.200 311.109,69.549 311.936,69.975 312.478 C 70.402 313.020,70.870 313.940,71.017 314.523 C 71.675 317.147,78.711 323.095,81.994 323.804 C 82.761 323.969,83.833 324.396,84.376 324.752 C 87.207 326.608,97.343 325.198,101.800 322.330 C 103.473 321.253,106.800 318.064,106.800 317.537 C 106.800 317.369,107.133 316.909,107.540 316.516 C 107.948 316.122,108.490 315.182,108.745 314.426 C 109.001 313.670,109.453 312.770,109.750 312.426 C 110.047 312.082,110.399 311.220,110.533 310.512 C 110.840 308.882,112.703 305.893,113.214 306.209 C 113.866 306.612,113.643 308.932,112.800 310.504 C 112.360 311.325,112.000 312.303,112.000 312.677 C 112.000 313.051,111.550 314.042,111.000 314.878 C 110.450 315.715,109.534 317.108,108.964 317.973 C 107.752 319.815,104.583 323.007,103.180 323.801 C 98.707 326.332,92.610 327.995,87.783 328.002 C 85.236 328.006,77.475 326.748,76.564 326.183 C 76.104 325.898,75.024 325.474,74.164 325.240 C 73.304 325.007,71.700 324.187,70.600 323.418 C 69.500 322.650,68.105 321.818,67.500 321.571 C 66.895 321.324,66.400 320.996,66.400 320.843 C 66.400 320.690,65.500 319.878,64.400 319.039 C 63.300 318.200,62.400 317.263,62.400 316.957 C 62.400 316.651,62.258 316.400,62.085 316.400 C 61.723 316.400,58.800 312.168,58.800 311.644 C 58.800 311.454,58.559 311.098,58.265 310.854 C 57.970 310.609,57.503 309.642,57.225 308.705 C 56.948 307.767,56.468 306.714,56.158 306.365 C 55.848 306.016,55.436 304.467,55.242 302.923 C 55.048 301.378,54.662 299.690,54.384 299.171 C 53.433 297.393,53.390 291.113,54.310 288.301 C 54.760 286.926,55.251 284.906,55.401 283.814 C 55.655 281.968,56.079 280.879,57.739 277.800 C 58.095 277.140,58.680 275.970,59.039 275.200 C 59.790 273.591,67.208 266.028,69.000 265.044 C 69.660 264.682,71.340 263.759,72.734 262.993 C 74.127 262.227,75.636 261.600,76.087 261.600 C 76.537 261.600,77.522 261.219,78.276 260.753 C 80.253 259.531,87.945 258.958,94.256 259.562 M293.704 260.100 C 294.302 260.554,294.373 263.253,294.481 289.600 L 294.600 318.600 295.800 320.978 C 296.460 322.285,297.696 324.026,298.548 324.846 L 300.095 326.337 298.348 326.575 C 297.386 326.705,294.464 326.855,291.852 326.906 C 286.732 327.007,287.008 327.114,286.029 324.651 C 285.614 323.607,285.509 323.556,284.886 324.100 C 284.509 324.429,283.480 324.928,282.600 325.207 C 281.720 325.487,280.887 325.890,280.749 326.103 C 280.106 327.092,271.198 327.573,267.800 326.802 C 263.066 325.727,261.948 325.098,258.124 321.350 C 255.895 319.166,254.400 317.380,254.400 316.904 C 254.400 316.466,254.057 315.672,253.637 315.138 C 251.712 312.690,251.717 299.734,253.644 296.553 C 254.060 295.867,254.400 295.089,254.400 294.825 C 254.400 293.320,261.213 287.098,263.436 286.572 C 264.076 286.421,265.222 285.923,265.983 285.465 C 268.118 284.179,277.813 284.216,279.572 285.516 C 280.230 286.002,281.039 286.400,281.371 286.400 C 281.704 286.400,282.704 286.780,283.594 287.244 C 286.354 288.682,286.400 288.527,286.399 277.851 C 286.397 269.598,286.318 268.471,285.666 267.400 C 285.264 266.740,284.817 265.726,284.672 265.147 C 284.239 263.419,282.197 261.570,280.101 261.009 C 278.273 260.519,278.238 260.483,279.200 260.075 C 280.677 259.448,292.875 259.469,293.704 260.100 M221.800 282.832 C 216.227 283.989,215.626 284.225,213.447 286.106 C 210.977 288.239,210.275 290.613,211.165 293.822 C 211.822 296.191,215.881 297.790,217.200 296.200 C 217.474 295.870,217.929 295.600,218.211 295.600 C 219.006 295.600,220.691 292.402,221.007 290.295 C 221.163 289.253,221.497 288.400,221.749 288.400 C 222.001 288.400,222.432 288.040,222.707 287.600 C 223.556 286.241,228.249 286.443,229.680 287.900 C 232.437 290.709,232.432 290.698,232.676 294.157 C 233.133 300.640,231.271 303.600,226.734 303.600 C 226.032 303.600,224.274 303.956,222.828 304.391 C 221.383 304.826,219.347 305.287,218.305 305.415 C 217.262 305.543,216.174 305.883,215.886 306.171 C 215.598 306.459,214.933 306.831,214.408 306.998 C 212.552 307.587,209.743 310.835,209.218 313.000 C 208.421 316.288,208.290 317.584,208.701 318.106 C 208.915 318.377,209.206 319.354,209.346 320.275 C 209.719 322.719,212.393 325.559,215.800 327.130 C 218.121 328.199,223.475 328.809,225.201 328.200 C 226.136 327.870,227.441 327.600,228.102 327.600 C 229.450 327.600,233.593 325.398,233.613 324.671 C 233.621 324.376,233.810 324.424,234.119 324.800 C 235.020 325.894,237.611 327.220,240.400 328.014 C 247.361 329.997,255.537 326.175,252.461 322.376 L 251.722 321.463 250.214 323.131 C 248.444 325.091,246.746 325.397,245.949 323.900 C 245.685 323.405,245.184 322.790,244.835 322.533 C 244.282 322.125,244.174 320.169,244.000 307.315 C 243.822 294.152,243.725 292.450,243.100 291.496 C 242.715 290.909,242.400 290.176,242.400 289.869 C 242.400 289.154,238.621 285.600,237.860 285.600 C 237.544 285.600,237.186 285.340,237.064 285.022 C 236.942 284.704,236.158 284.325,235.321 284.180 C 234.484 284.034,232.461 283.574,230.825 283.158 C 227.743 282.373,224.564 282.258,221.800 282.832 M315.600 282.820 C 308.260 284.099,303.992 287.436,304.003 291.887 C 304.014 296.772,312.272 298.436,313.439 293.788 C 313.575 293.244,314.028 292.130,314.444 291.314 C 314.860 290.498,315.200 289.540,315.200 289.185 C 315.200 286.953,322.120 285.582,323.200 287.600 C 323.435 288.040,323.847 288.401,324.114 288.401 C 327.056 288.409,327.642 300.898,324.744 301.818 C 324.337 301.947,323.733 302.324,323.401 302.657 C 323.068 302.989,321.649 303.423,320.246 303.622 C 318.844 303.821,317.242 304.156,316.687 304.367 C 316.132 304.578,314.584 304.949,313.248 305.191 C 296.707 308.191,299.644 328.621,316.600 328.514 C 318.678 328.501,324.015 327.309,324.722 326.700 C 325.787 325.784,328.122 324.757,328.373 325.094 C 332.239 330.297,347.670 329.031,347.126 323.555 C 346.915 321.423,346.039 321.313,344.033 323.167 C 342.029 325.020,341.050 325.171,339.560 323.858 C 338.007 322.490,337.917 321.723,337.610 307.200 C 337.322 293.581,337.008 290.743,335.600 289.047 C 334.455 287.667,332.198 285.604,331.831 285.602 C 331.629 285.601,331.170 285.335,330.812 285.011 C 330.454 284.687,328.909 284.133,327.380 283.782 C 321.389 282.403,319.078 282.214,315.600 282.820 M191.386 284.442 C 194.971 284.882,195.853 285.271,198.131 287.420 C 200.086 289.265,200.800 290.569,200.847 292.387 C 200.872 293.384,201.030 299.600,201.196 306.200 C 201.526 319.266,201.878 321.594,203.834 323.635 C 206.111 326.012,205.560 326.195,195.995 326.240 C 191.268 326.262,187.985 326.206,188.700 326.115 C 189.641 325.995,190.000 325.744,190.000 325.205 C 190.000 324.796,190.476 323.896,191.058 323.205 C 192.544 321.438,192.917 316.876,192.677 303.400 C 192.447 290.461,192.563 290.895,188.272 286.881 C 186.985 285.678,179.807 285.907,178.000 287.208 C 175.680 288.880,174.569 290.099,173.458 292.197 L 172.400 294.194 172.400 307.808 C 172.400 322.411,172.368 322.157,174.478 324.047 C 174.875 324.403,175.200 324.975,175.200 325.319 C 175.200 325.663,175.605 326.022,176.100 326.118 C 176.595 326.213,172.950 326.291,168.000 326.291 C 163.050 326.291,159.405 326.213,159.900 326.118 C 160.446 326.013,160.800 325.654,160.800 325.206 C 160.800 324.799,160.937 324.407,161.104 324.333 C 161.271 324.260,161.901 323.238,162.504 322.063 L 163.600 319.926 163.600 306.196 L 163.600 292.466 162.579 290.432 C 161.957 289.196,161.092 288.158,160.372 287.785 C 157.494 286.297,160.081 284.945,166.190 284.744 L 170.560 284.600 171.445 286.164 C 172.635 288.269,173.367 288.633,174.377 287.623 C 174.818 287.182,175.637 286.706,176.195 286.566 C 176.753 286.425,177.370 286.026,177.565 285.677 C 178.270 284.417,185.741 283.750,191.386 284.442 M140.937 285.541 C 141.440 286.013,142.123 286.400,142.454 286.400 C 143.112 286.400,145.600 288.464,145.600 289.010 C 145.600 289.196,146.005 289.779,146.500 290.306 C 147.391 291.254,147.402 291.405,147.603 305.932 C 147.857 324.276,148.254 325.600,153.489 325.600 C 155.753 325.600,156.299 326.189,154.500 326.692 C 150.058 327.935,141.369 326.349,140.522 324.141 C 140.223 323.361,138.789 323.480,137.400 324.400 C 136.139 325.235,134.400 325.473,134.400 324.810 C 134.400 324.596,134.915 324.154,135.544 323.829 C 136.173 323.504,136.922 322.644,137.210 321.919 C 137.497 321.193,138.017 320.266,138.366 319.858 C 139.995 317.953,139.350 304.000,137.634 304.000 C 136.385 304.000,136.245 303.237,137.338 302.378 C 140.741 299.700,139.537 290.126,135.386 286.860 C 131.439 283.756,124.420 286.869,124.404 291.731 C 124.393 295.085,118.327 296.660,117.255 293.586 C 116.682 291.942,117.657 288.030,118.869 287.113 C 119.381 286.726,120.160 286.058,120.600 285.629 C 122.194 284.077,139.300 284.003,140.937 285.541 M235.514 285.474 C 236.120 285.921,237.000 286.410,237.471 286.559 C 241.542 287.851,242.400 291.224,242.399 305.920 C 242.397 322.395,243.402 325.795,248.198 325.542 C 251.859 325.349,251.146 326.662,247.400 327.013 C 241.845 327.533,239.000 326.832,234.700 323.884 C 234.152 323.509,233.848 323.514,233.300 323.910 C 232.915 324.188,231.970 324.700,231.200 325.048 C 230.430 325.395,229.476 325.968,229.080 326.320 C 228.495 326.840,227.368 326.957,223.080 326.946 C 216.890 326.930,214.778 326.121,211.821 322.630 L 210.200 320.716 210.200 316.448 C 210.200 313.244,210.350 311.998,210.800 311.452 C 212.293 309.640,214.285 307.962,215.200 307.743 C 215.750 307.612,216.612 307.248,217.115 306.933 C 217.619 306.619,219.460 306.198,221.207 305.999 C 222.954 305.800,224.724 305.455,225.140 305.232 C 226.063 304.738,230.476 304.009,230.919 304.278 C 231.473 304.613,230.342 305.600,229.405 305.600 C 228.912 305.600,228.079 305.935,227.554 306.345 C 227.029 306.755,226.240 307.204,225.800 307.342 C 224.489 307.756,220.568 311.658,219.399 313.711 C 217.255 317.478,218.236 321.726,221.893 324.500 C 223.631 325.819,229.200 326.193,229.200 324.991 C 229.200 324.657,229.647 324.179,230.192 323.931 C 230.738 323.682,231.283 323.170,231.403 322.792 C 231.522 322.414,231.976 321.784,232.410 321.391 C 232.845 320.998,233.200 320.204,233.200 319.627 C 233.200 319.050,233.475 318.186,233.811 317.706 C 234.306 316.999,234.400 315.685,234.311 310.717 L 234.200 304.600 232.700 304.229 C 231.051 303.822,230.760 303.063,231.999 302.401 C 235.271 300.650,235.017 292.314,231.559 287.948 C 228.797 284.461,221.060 285.245,220.278 289.092 C 219.294 293.931,217.150 295.833,213.666 294.956 C 211.641 294.446,210.805 289.548,212.565 288.507 C 212.850 288.338,213.296 287.795,213.556 287.300 C 213.816 286.805,214.283 286.400,214.594 286.400 C 214.906 286.400,215.328 286.100,215.533 285.733 C 216.419 284.151,233.426 283.930,235.514 285.474 M329.396 285.526 C 330.008 286.007,330.721 286.400,330.981 286.400 C 331.557 286.400,334.400 288.877,334.400 289.379 C 334.400 289.576,334.715 290.085,335.100 290.510 C 335.731 291.207,335.820 292.704,336.000 305.741 C 336.179 318.668,336.274 320.305,336.900 321.189 C 337.285 321.733,337.600 322.464,337.600 322.814 C 337.600 324.298,339.714 325.600,342.122 325.600 C 343.375 325.600,344.400 325.761,344.400 325.957 C 344.400 327.531,333.374 327.538,331.561 325.966 C 331.075 325.545,330.441 325.200,330.153 325.200 C 329.864 325.200,329.435 324.840,329.200 324.400 C 328.659 323.389,327.727 323.389,326.200 324.400 C 324.933 325.239,323.200 325.472,323.200 324.803 C 323.200 324.585,323.573 324.180,324.030 323.903 C 328.336 321.290,329.930 304.517,325.928 303.927 C 324.637 303.737,324.658 303.084,325.979 302.333 C 327.462 301.488,327.766 300.007,327.513 294.862 C 327.173 287.941,323.632 284.776,317.600 286.000 C 316.610 286.201,315.686 286.373,315.547 286.383 C 315.196 286.407,313.377 290.316,312.764 292.364 C 311.594 296.269,305.596 296.215,305.602 292.300 C 305.608 288.728,308.461 285.110,311.618 284.671 C 316.011 284.060,328.283 284.650,329.396 285.526 M270.044 286.842 C 267.020 288.387,262.800 293.519,262.800 295.652 C 262.800 296.186,262.485 297.067,262.100 297.611 C 261.064 299.074,261.063 310.817,262.098 312.600 C 262.481 313.260,262.796 314.180,262.798 314.644 C 262.800 315.631,264.857 319.621,266.027 320.909 C 266.473 321.399,267.144 322.131,267.519 322.535 C 271.339 326.653,280.508 326.764,282.329 322.713 C 282.400 322.555,282.911 321.758,283.466 320.941 C 284.020 320.124,284.573 318.813,284.694 318.028 C 284.815 317.243,285.248 315.932,285.657 315.116 C 286.789 312.854,286.742 300.592,285.591 298.056 C 285.156 297.097,284.800 295.804,284.800 295.182 C 284.800 288.847,275.931 283.835,270.044 286.842 M277.400 287.600 C 278.060 288.037,278.870 288.398,279.200 288.402 C 279.934 288.410,282.400 290.883,282.400 291.611 C 282.400 291.900,282.686 292.453,283.035 292.838 C 284.463 294.417,285.314 308.117,284.381 314.523 C 283.880 317.967,282.360 321.253,280.648 322.593 C 279.962 323.131,279.085 323.847,278.700 324.185 C 278.225 324.602,277.170 324.800,275.421 324.800 C 271.739 324.800,270.038 323.836,266.239 319.600 C 265.943 319.270,265.568 318.550,265.405 318.000 C 265.242 317.450,264.769 316.439,264.354 315.753 C 263.939 315.067,263.600 314.054,263.600 313.503 C 263.600 312.952,263.302 311.713,262.939 310.750 C 262.132 308.613,262.019 301.602,262.762 299.800 C 263.035 299.140,263.419 297.752,263.616 296.715 C 264.820 290.373,273.210 284.825,277.400 287.600 M135.600 305.000 C 135.326 305.330,134.757 305.600,134.335 305.600 C 133.913 305.600,133.080 305.932,132.484 306.337 C 131.888 306.743,130.590 307.592,129.600 308.224 C 125.350 310.936,122.380 316.395,123.557 319.332 C 123.836 320.029,124.235 321.171,124.443 321.869 C 125.107 324.102,127.929 325.600,131.469 325.600 C 134.442 325.600,135.335 326.129,133.300 326.686 C 126.118 328.650,116.914 325.306,115.560 320.240 C 115.319 319.338,114.939 318.377,114.716 318.106 C 113.087 316.117,117.982 307.600,120.754 307.600 C 121.122 307.600,121.813 307.326,122.291 306.991 C 122.769 306.656,124.599 306.202,126.357 305.982 C 128.115 305.761,130.149 305.322,130.877 305.006 C 132.766 304.185,136.280 304.181,135.600 305.000 M324.400 304.757 C 324.400 305.192,323.411 305.600,322.355 305.600 C 321.926 305.600,321.478 305.854,321.359 306.163 C 321.240 306.473,320.578 306.961,319.888 307.246 C 319.199 307.532,318.323 308.043,317.942 308.383 C 317.561 308.722,316.609 309.525,315.825 310.168 C 315.041 310.810,314.400 311.581,314.400 311.880 C 314.400 312.180,314.141 312.525,313.824 312.646 C 313.507 312.768,312.881 314.001,312.434 315.386 L 311.620 317.905 312.451 320.365 C 313.732 324.158,315.828 325.600,320.058 325.600 C 323.213 325.600,324.199 326.120,322.100 326.676 C 320.332 327.145,311.911 326.964,310.800 326.434 C 305.085 323.706,303.169 320.637,303.744 315.132 C 304.103 311.698,307.182 307.606,309.411 307.602 C 309.857 307.601,310.613 307.326,311.091 306.991 C 311.569 306.656,313.399 306.202,315.157 305.982 C 316.915 305.761,318.949 305.322,319.677 305.006 C 321.143 304.369,324.400 304.197,324.400 304.757 M138.286 312.600 C 138.101 317.377,137.990 317.978,136.918 319.983 C 134.896 323.768,130.480 326.022,128.657 324.200 C 128.327 323.870,127.898 323.600,127.703 323.600 C 125.291 323.600,123.789 315.479,125.808 313.348 C 126.244 312.888,127.140 311.860,127.800 311.064 C 128.460 310.268,129.231 309.613,129.513 309.609 C 129.794 309.604,130.124 309.341,130.246 309.024 C 130.367 308.708,130.983 308.335,131.615 308.197 C 132.246 308.058,133.176 307.625,133.681 307.233 C 134.187 306.842,135.090 306.402,135.689 306.256 C 136.287 306.110,137.007 305.741,137.289 305.437 C 138.165 304.489,138.505 306.929,138.286 312.600 M232.641 306.622 C 233.379 309.562,232.592 319.456,231.519 320.732 C 230.946 321.413,230.414 322.112,230.338 322.285 C 230.052 322.938,226.780 324.800,225.909 324.807 C 221.495 324.840,217.411 317.947,220.059 314.935 C 220.415 314.531,220.828 313.798,220.978 313.306 C 221.231 312.474,223.398 310.000,223.873 310.000 C 223.989 310.000,224.619 309.550,225.273 309.000 C 225.927 308.450,226.690 308.000,226.969 308.000 C 227.249 308.000,227.893 307.640,228.400 307.200 C 228.907 306.760,229.734 306.400,230.238 306.400 C 230.741 306.400,231.264 306.220,231.400 306.000 C 231.834 305.297,232.377 305.569,232.641 306.622 M326.643 306.628 C 327.100 308.448,326.601 318.676,326.021 319.375 C 325.731 319.724,325.198 320.561,324.836 321.236 C 324.474 321.911,323.643 322.764,322.989 323.132 C 322.335 323.499,321.656 324.025,321.480 324.300 C 320.611 325.658,316.700 324.398,314.416 322.023 C 312.956 320.506,312.942 315.647,314.391 313.600 C 315.931 311.425,317.704 309.600,318.278 309.600 C 318.565 309.600,318.800 309.422,318.800 309.205 C 318.800 308.988,319.461 308.534,320.269 308.197 C 321.077 307.859,322.003 307.362,322.326 307.091 C 322.826 306.672,325.155 305.776,326.092 305.642 C 326.253 305.619,326.501 306.063,326.643 306.628 M346.000 324.000 C 346.000 324.446,345.733 324.800,345.397 324.800 C 344.893 324.800,344.876 324.667,345.293 324.000 C 345.568 323.560,345.839 323.200,345.896 323.200 C 345.953 323.200,346.000 323.560,346.000 324.000 M252.150 324.215 C 252.286 324.569,252.128 324.930,251.776 325.065 C 250.993 325.365,250.636 325.004,250.938 324.217 C 251.242 323.426,251.847 323.425,252.150 324.215 " stroke="none" fill="#999999" fill-rule="evenodd"></path><path id="path4" d="M53.406 76.535 C 52.485 77.941,52.676 222.222,53.600 222.812 C 54.946 223.671,126.393 223.098,127.032 222.224 C 127.653 221.375,127.911 77.884,127.294 76.960 C 126.409 75.635,125.442 75.600,89.636 75.600 L 54.018 75.600 53.406 76.535 M273.636 76.300 L 272.784 77.000 272.784 149.400 L 272.784 221.800 273.636 222.500 C 274.651 223.333,344.888 223.609,346.426 222.786 C 347.644 222.134,347.644 76.666,346.426 76.014 C 344.888 75.191,274.651 75.467,273.636 76.300 M126.013 149.400 L 126.013 221.800 89.907 221.800 L 53.800 221.800 53.697 149.800 C 53.641 110.200,53.681 77.574,53.786 77.298 C 53.937 76.899,61.392 76.817,89.995 76.898 L 126.013 77.000 126.013 149.400 M346.400 149.402 L 346.400 222.004 310.300 221.902 L 274.200 221.800 274.099 149.300 L 273.998 76.800 310.199 76.800 L 346.400 76.800 346.400 149.402 M198.432 89.014 C 197.759 90.012,197.099 91.264,196.965 91.798 C 196.831 92.331,196.478 92.969,196.181 93.216 C 195.884 93.462,195.429 94.325,195.170 95.132 C 194.911 95.939,194.473 96.870,194.197 97.200 C 193.921 97.530,193.559 98.250,193.392 98.800 C 193.226 99.350,192.755 100.229,192.345 100.754 C 191.935 101.279,191.600 102.019,191.600 102.400 C 191.600 102.781,191.240 103.550,190.800 104.109 C 190.360 104.669,190.000 105.299,190.000 105.509 C 190.000 107.310,185.955 108.990,185.359 107.437 C 185.240 107.127,184.570 106.642,183.871 106.360 C 183.172 106.078,182.464 105.625,182.298 105.355 C 182.131 105.084,181.456 104.744,180.798 104.599 C 180.139 104.455,179.600 104.199,179.600 104.031 C 179.600 103.863,178.984 103.394,178.231 102.989 C 175.650 101.599,174.868 103.747,176.367 108.104 C 176.789 109.331,177.263 111.384,177.421 112.667 C 177.578 113.950,177.888 115.450,178.108 116.000 C 178.329 116.550,178.833 118.710,179.229 120.800 C 179.624 122.890,180.126 125.320,180.345 126.200 C 181.384 130.389,181.939 134.509,181.587 135.433 C 181.105 136.702,178.839 136.834,178.519 135.613 C 178.406 135.181,177.973 134.718,177.557 134.586 C 177.141 134.454,176.800 134.205,176.800 134.032 C 176.800 133.860,176.305 133.185,175.700 132.533 C 175.095 131.880,173.388 130.009,171.906 128.373 C 170.424 126.738,168.624 124.758,167.906 123.973 C 165.060 120.862,163.686 120.814,162.977 123.800 C 162.821 124.460,162.467 125.270,162.191 125.600 C 161.915 125.930,161.565 126.783,161.414 127.495 C 160.980 129.534,159.181 130.600,157.075 130.064 C 156.154 129.829,154.343 129.523,153.052 129.384 C 151.760 129.244,149.982 128.876,149.101 128.565 C 145.291 127.221,143.259 128.101,144.512 130.552 C 144.863 131.239,145.270 132.610,145.417 133.600 C 145.564 134.590,146.026 135.961,146.442 136.647 C 146.859 137.333,147.200 138.420,147.200 139.063 C 147.200 139.705,147.571 140.944,148.024 141.815 C 149.670 144.977,148.548 148.737,145.944 148.787 C 143.068 148.843,143.154 151.230,146.121 153.670 C 147.264 154.610,148.565 155.744,149.012 156.190 C 149.459 156.635,150.676 157.720,151.716 158.600 C 152.757 159.480,154.341 160.874,155.237 161.699 C 156.132 162.523,157.930 164.035,159.232 165.058 C 160.535 166.081,161.600 167.071,161.600 167.259 C 161.600 167.447,161.772 167.600,161.982 167.600 C 162.192 167.600,162.790 168.005,163.310 168.500 C 163.831 168.995,165.658 170.660,167.369 172.200 L 170.482 175.000 170.253 176.955 C 170.128 178.030,169.764 179.200,169.446 179.555 C 169.128 179.910,168.742 180.920,168.589 181.800 C 168.436 182.680,168.060 183.799,167.755 184.286 C 166.052 187.003,168.657 187.801,174.000 186.198 C 174.990 185.901,177.240 185.446,179.000 185.188 C 180.760 184.929,182.512 184.551,182.893 184.348 C 183.274 184.145,185.057 183.795,186.854 183.570 C 188.651 183.344,190.747 182.899,191.510 182.580 C 193.416 181.784,195.337 181.846,196.138 182.731 C 196.919 183.594,197.083 197.833,196.406 206.000 C 195.926 211.791,196.189 212.224,200.090 212.070 C 203.786 211.924,203.619 213.087,202.952 192.110 C 202.622 181.717,203.286 180.521,208.242 182.592 C 209.021 182.917,210.861 183.301,212.329 183.444 C 213.798 183.587,215.600 183.948,216.333 184.245 C 217.066 184.543,219.226 184.988,221.133 185.234 C 223.040 185.479,224.890 185.828,225.245 186.009 C 228.113 187.472,232.841 187.240,232.180 185.669 C 232.026 185.301,231.729 184.119,231.521 183.042 C 231.313 181.966,230.874 180.674,230.546 180.173 C 230.217 179.672,229.846 178.268,229.721 177.054 C 229.463 174.556,229.281 174.812,234.579 170.200 C 236.095 168.880,237.846 167.350,238.469 166.800 C 240.567 164.948,240.966 164.607,243.787 162.256 C 245.334 160.967,246.907 159.617,247.282 159.256 C 247.657 158.895,248.823 157.880,249.872 157.000 C 256.077 151.795,257.035 150.101,254.377 149.037 C 251.076 147.717,250.042 144.603,251.761 141.158 C 252.083 140.513,252.554 138.954,252.809 137.693 C 253.064 136.432,253.545 134.891,253.877 134.269 C 256.187 129.947,254.747 127.079,250.917 128.372 C 249.642 128.802,247.567 129.274,246.305 129.422 C 245.042 129.570,243.343 129.920,242.528 130.200 C 240.765 130.807,239.053 129.869,238.599 128.047 C 238.455 127.471,238.106 126.730,237.823 126.400 C 237.539 126.070,237.181 125.260,237.027 124.600 C 236.291 121.458,234.148 120.892,232.262 123.343 C 231.731 124.034,230.419 125.533,229.348 126.672 C 228.277 127.812,226.140 130.136,224.600 131.835 C 220.468 136.396,220.464 136.400,219.633 136.400 C 217.513 136.400,216.848 134.031,218.203 131.314 C 218.535 130.649,218.981 128.726,219.195 127.042 C 219.408 125.357,219.751 123.665,219.957 123.280 C 220.163 122.896,220.556 121.056,220.831 119.191 C 221.106 117.326,221.550 115.350,221.819 114.800 C 222.087 114.250,222.437 112.630,222.597 111.200 C 222.756 109.770,223.238 107.574,223.668 106.319 C 224.901 102.718,223.314 101.299,220.600 103.576 C 220.160 103.945,219.350 104.470,218.800 104.743 C 218.250 105.016,217.080 105.676,216.200 106.211 C 213.396 107.916,212.881 108.107,211.815 107.840 C 211.202 107.686,210.609 107.150,210.378 106.542 C 210.161 105.972,209.628 105.053,209.192 104.499 C 208.756 103.945,208.400 103.184,208.400 102.808 C 208.400 102.432,208.061 101.817,207.646 101.442 C 207.231 101.066,206.790 100.250,206.666 99.628 C 206.541 99.006,206.160 98.218,205.820 97.877 C 205.479 97.536,205.200 96.999,205.200 96.684 C 205.200 96.369,204.769 95.476,204.241 94.699 C 203.714 93.922,203.157 92.714,203.004 92.016 C 202.850 91.317,202.472 90.649,202.162 90.530 C 201.853 90.412,201.600 90.057,201.600 89.743 C 201.600 89.041,200.429 87.200,199.982 87.200 C 199.803 87.200,199.106 88.016,198.432 89.014 M201.301 91.105 C 201.906 92.367,202.401 93.590,202.401 93.822 C 202.400 94.055,202.850 94.855,203.400 95.600 C 203.950 96.345,204.400 97.258,204.400 97.629 C 204.400 97.999,204.661 98.518,204.980 98.783 C 205.298 99.048,205.774 99.925,206.036 100.732 C 206.298 101.539,206.758 102.344,207.057 102.520 C 207.355 102.696,207.600 103.017,207.600 103.233 C 207.600 103.728,208.574 105.831,209.529 107.400 C 210.571 109.110,213.421 109.310,215.566 107.824 C 216.378 107.261,217.245 106.800,217.493 106.800 C 217.740 106.800,218.190 106.553,218.491 106.252 C 219.395 105.348,221.593 104.349,222.053 104.633 C 222.678 105.019,222.095 109.824,221.165 111.951 C 220.744 112.914,220.400 114.404,220.400 115.263 C 220.400 116.122,220.056 117.855,219.636 119.113 C 219.215 120.371,218.743 122.480,218.587 123.800 C 218.430 125.120,218.064 126.920,217.772 127.800 C 216.946 130.298,216.424 134.228,216.753 135.471 C 217.314 137.588,220.849 138.207,222.109 136.409 C 222.654 135.631,228.965 128.552,232.500 124.754 C 233.105 124.104,233.600 123.404,233.600 123.199 C 233.600 122.616,234.924 123.224,235.691 124.158 C 236.071 124.621,236.386 125.455,236.391 126.011 C 236.396 126.567,236.760 127.330,237.200 127.707 C 237.640 128.084,238.000 128.640,238.000 128.942 C 238.000 131.163,242.427 132.574,244.611 131.049 C 245.045 130.746,246.687 130.370,248.260 130.213 C 249.832 130.056,251.619 129.668,252.229 129.351 C 254.031 128.416,254.643 131.014,253.005 132.652 C 252.672 132.985,252.400 133.886,252.400 134.654 C 252.400 135.423,252.057 136.895,251.638 137.926 C 250.851 139.864,249.597 144.880,249.599 146.086 C 249.601 147.179,251.876 149.475,253.224 149.745 C 254.678 150.036,254.793 151.789,253.409 152.560 C 252.974 152.802,252.434 153.204,252.209 153.453 C 251.984 153.701,250.540 154.942,249.000 156.209 C 247.460 157.477,246.020 158.713,245.800 158.957 C 245.580 159.201,244.230 160.379,242.800 161.576 C 241.370 162.772,240.020 163.945,239.800 164.182 C 239.580 164.419,237.690 166.046,235.600 167.798 C 228.332 173.889,227.179 175.512,228.553 177.714 C 228.857 178.201,229.222 179.383,229.364 180.340 C 229.506 181.296,229.887 182.344,230.211 182.668 C 230.796 183.253,231.030 185.637,230.549 186.117 C 230.411 186.255,229.736 186.077,229.049 185.721 C 228.362 185.365,226.270 184.932,224.400 184.758 C 222.530 184.584,220.460 184.180,219.800 183.859 C 219.140 183.539,217.089 183.080,215.242 182.839 C 213.395 182.598,211.685 182.241,211.442 182.046 C 211.199 181.850,210.047 181.561,208.882 181.405 C 202.042 180.485,201.055 181.467,201.607 188.646 C 201.791 191.041,202.000 197.050,202.071 202.000 L 202.200 211.000 200.000 211.000 L 197.800 211.000 197.800 196.800 C 197.800 188.990,197.656 182.378,197.480 182.106 C 196.663 180.844,190.586 180.866,187.842 182.141 C 187.159 182.459,185.250 182.844,183.600 182.997 C 181.950 183.150,180.156 183.558,179.614 183.903 C 179.040 184.269,177.369 184.609,175.614 184.717 C 173.956 184.819,172.114 185.149,171.520 185.451 C 170.172 186.136,168.797 186.161,168.810 185.500 C 168.834 184.253,169.675 181.468,170.179 180.964 C 170.873 180.269,171.406 175.606,170.943 174.261 C 170.755 173.712,168.710 171.690,166.400 169.768 C 164.090 167.846,162.110 166.152,162.000 166.004 C 161.890 165.856,160.090 164.303,158.000 162.552 C 155.910 160.801,153.744 158.926,153.188 158.384 C 152.631 157.843,151.400 156.770,150.452 156.000 C 145.405 151.899,144.248 150.173,146.272 149.763 C 149.910 149.025,150.927 144.755,148.624 139.888 C 148.061 138.697,147.600 137.285,147.600 136.750 C 147.600 136.216,147.304 135.356,146.943 134.840 C 145.906 133.359,145.948 129.365,147.000 129.512 C 147.440 129.573,149.150 129.806,150.800 130.029 C 152.450 130.253,154.278 130.697,154.862 131.018 C 157.847 132.655,161.629 131.153,162.243 128.086 C 162.384 127.378,162.647 126.800,162.827 126.800 C 163.006 126.800,163.399 125.945,163.699 124.900 C 164.556 121.917,164.806 122.054,170.875 128.818 C 172.347 130.458,174.461 132.790,175.574 134.000 C 176.686 135.210,177.598 136.321,177.598 136.469 C 177.603 137.244,180.370 137.623,181.766 137.040 C 183.447 136.338,183.693 134.529,182.595 130.964 C 182.262 129.884,181.798 127.650,181.563 126.000 C 181.328 124.350,180.790 121.971,180.368 120.713 C 179.945 119.455,179.600 117.650,179.600 116.702 C 179.600 115.754,179.334 114.598,179.009 114.134 C 178.684 113.670,178.300 112.235,178.157 110.945 C 178.014 109.655,177.542 107.553,177.108 106.274 C 176.010 103.034,176.194 102.955,179.600 105.198 C 180.590 105.850,181.826 106.571,182.347 106.800 C 182.868 107.029,183.747 107.572,184.301 108.008 C 186.324 109.599,190.800 108.479,190.800 106.381 C 190.800 106.131,191.160 105.469,191.600 104.909 C 192.040 104.350,192.400 103.569,192.400 103.175 C 192.400 102.780,192.629 102.219,192.909 101.929 C 193.189 101.638,194.830 98.565,196.556 95.100 C 200.159 87.867,199.866 88.114,201.301 91.105 M300.096 259.595 C 299.290 260.886,299.401 279.138,300.223 280.311 C 301.001 281.422,309.196 281.675,310.624 280.633 C 311.546 279.959,312.065 261.217,311.206 259.611 C 310.548 258.381,300.863 258.367,300.096 259.595 M332.223 259.689 C 331.396 260.869,331.305 278.394,332.118 280.000 C 332.617 280.986,332.693 281.000,337.600 281.000 C 342.507 281.000,342.583 280.986,343.082 280.000 C 343.724 278.731,343.816 260.750,343.186 259.574 C 342.508 258.308,333.121 258.407,332.223 259.689 M309.626 260.014 C 310.356 260.404,310.400 260.939,310.400 269.352 C 310.400 280.127,310.752 279.455,305.000 279.658 L 301.000 279.800 300.893 270.208 C 300.833 264.932,300.873 260.387,300.980 260.108 C 301.223 259.474,308.470 259.395,309.626 260.014 M341.626 260.014 C 342.761 260.621,342.828 277.901,341.700 278.889 C 340.691 279.773,333.336 280.130,333.021 279.310 C 332.704 278.485,332.747 260.186,333.067 259.867 C 333.497 259.436,340.780 259.561,341.626 260.014 M319.300 262.353 C 318.117 263.376,317.600 264.136,317.600 264.857 C 317.600 265.785,317.408 265.918,315.740 266.146 C 313.516 266.451,312.800 266.968,312.800 268.270 C 312.800 269.478,314.403 272.339,315.165 272.489 C 315.475 272.550,315.940 273.230,316.198 274.000 C 316.607 275.220,316.868 275.426,318.234 275.600 C 319.623 275.777,319.815 275.936,319.935 277.000 C 320.010 277.660,320.259 278.427,320.488 278.705 C 321.078 279.418,321.976 278.594,321.711 277.583 C 321.398 276.384,322.315 275.600,324.030 275.600 C 325.235 275.600,325.716 275.375,326.281 274.550 C 326.677 273.973,327.501 273.014,328.114 272.419 C 330.469 270.132,330.102 266.807,327.414 266.088 C 325.906 265.685,325.600 265.443,325.600 264.651 C 325.600 263.538,325.022 262.971,323.498 262.589 C 322.894 262.437,322.400 262.159,322.400 261.971 C 322.400 260.779,320.910 260.963,319.300 262.353 M322.900 263.727 C 323.372 263.894,323.602 264.402,323.606 265.287 C 323.616 267.313,324.115 267.858,325.417 267.265 C 326.536 266.755,327.988 266.986,328.494 267.754 C 329.745 269.653,325.603 274.158,322.637 274.124 C 317.787 274.069,317.200 273.998,317.200 273.466 C 317.200 273.172,316.669 272.460,316.021 271.882 C 313.662 269.780,313.927 267.116,316.479 267.267 C 318.298 267.374,319.263 266.527,318.901 265.142 C 318.593 263.965,320.735 262.244,321.600 262.973 C 321.930 263.251,322.515 263.590,322.900 263.727 " stroke="none" fill="#f49494" fill-rule="evenodd"></path></g></svg>