<?xml version="1.0" standalone="no"?>
<!DOCTYPE svg PUBLIC "-//W3C//DTD SVG 20010904//EN"
 "http://www.w3.org/TR/2001/REC-SVG-20010904/DTD/svg10.dtd">
<svg version="1.0" xmlns="http://www.w3.org/2000/svg"
 width="555.000000pt" height="425.000000pt" viewBox="0 0 555.000000 425.000000"
 preserveAspectRatio="xMidYMid meet">
<metadata>
Created by potrace 1.16, written by Peter Selinger 2001-2019
</metadata>
<g transform="translate(0.000000,425.000000) scale(0.100000,-0.100000)"
fill="#000000" stroke="none">
<path d="M598 2371 l-33 -29 -3 -144 c-5 -199 10 -236 100 -253 78 -15 133 37
145 136 l6 49 -47 0 c-45 0 -46 -1 -46 -32 0 -48 -10 -76 -28 -83 -32 -12 -45
20 -50 127 -5 113 4 166 32 182 24 15 46 -16 46 -66 l0 -38 46 0 47 0 -6 48
c-11 97 -46 132 -131 132 -36 0 -52 -6 -78 -29z"/>
<path d="M891 2374 c-40 -34 -51 -77 -51 -209 0 -95 3 -117 23 -155 18 -37 30
-47 66 -59 38 -12 50 -12 84 0 70 25 82 51 85 202 4 157 -5 200 -51 227 -48
29 -117 27 -156 -6z m107 -56 c8 -8 12 -55 12 -144 0 -107 -3 -136 -16 -148
-21 -21 -30 -20 -48 6 -19 26 -23 229 -6 272 10 28 38 34 58 14z"/>
<path d="M2350 2387 c-48 -24 -60 -68 -60 -217 0 -162 12 -196 77 -219 35 -13
43 -12 74 3 21 10 35 13 37 6 2 -5 19 -10 38 -10 l34 0 0 115 0 115 -70 0 -70
0 0 -35 c0 -31 3 -35 25 -35 21 0 25 -5 25 -28 0 -28 -24 -72 -40 -72 -5 0
-16 7 -24 16 -13 12 -16 41 -16 148 0 136 5 156 42 156 22 0 38 -29 38 -69 0
-30 2 -31 41 -31 l41 0 -4 57 c-4 48 -10 61 -37 85 -25 22 -41 28 -79 28 -26
0 -58 -6 -72 -13z"/>
<path d="M4030 2390 c0 -5 15 -16 34 -24 55 -23 60 -42 52 -199 -7 -142 -21
-197 -51 -197 -8 0 -15 -4 -15 -10 0 -6 33 -10 80 -10 44 0 80 4 80 9 0 5 -10
11 -22 13 -39 5 -46 41 -39 187 l6 134 129 -159 c71 -87 137 -167 148 -176 45
-40 47 -32 50 189 3 204 3 208 26 219 42 21 36 24 -41 24 -45 0 -77 -4 -77
-10 0 -5 6 -10 14 -10 8 0 22 -7 30 -16 13 -13 16 -42 16 -160 0 -79 -4 -144
-8 -144 -5 0 -69 75 -142 168 -73 92 -142 170 -154 174 -34 10 -116 9 -116 -2z"/>
<path d="M4640 2390 c-72 -5 -74 -6 -45 -18 16 -7 33 -19 37 -25 4 -7 8 -87 8
-179 0 -177 -5 -198 -51 -198 -10 0 -19 -4 -19 -10 0 -6 54 -10 143 -10 135 0
146 2 196 26 118 59 162 210 94 326 -50 85 -136 106 -363 88z m238 -47 c65
-40 95 -99 90 -178 -8 -123 -72 -190 -181 -190 -93 0 -97 9 -97 210 0 118 3
165 13 173 37 30 113 23 175 -15z"/>
<path d="M1150 2170 l0 -220 35 0 35 0 0 112 c0 69 4 108 9 103 5 -6 27 -55
49 -110 38 -95 41 -100 71 -103 l31 -3 0 220 0 221 -35 0 -35 0 0 -107 c0 -59
-4 -103 -8 -97 -5 5 -26 53 -48 106 -38 95 -40 98 -71 98 l-33 0 0 -220z"/>
<path d="M1430 2170 l0 -220 40 0 39 0 3 113 3 112 44 -112 c44 -113 44 -113
78 -113 l33 0 0 220 0 220 -40 0 -40 0 0 -107 -1 -108 -45 108 c-46 106 -46
107 -80 107 l-34 0 0 -220z"/>
<path d="M1786 2373 c-11 -35 -86 -393 -86 -408 0 -13 9 -15 42 -13 43 3 43 3
52 51 8 44 10 48 35 45 22 -3 27 -9 35 -50 l9 -48 44 0 c28 0 43 4 43 13 0 9
-60 293 -85 405 -4 18 -12 22 -45 22 -28 0 -40 -5 -44 -17z m54 -177 c0 -18 3
-48 6 -65 6 -27 4 -31 -16 -31 -21 0 -22 3 -16 46 3 26 6 55 6 65 0 11 5 19
10 19 6 0 10 -15 10 -34z"/>
<path d="M1990 2215 c0 -231 10 -257 106 -270 58 -7 106 13 126 55 15 29 18
64 18 213 l0 177 -45 0 -45 0 -2 -181 c-3 -157 -5 -183 -20 -192 -12 -8 -21
-7 -32 2 -14 11 -16 41 -16 192 l0 179 -45 0 -45 0 0 -175z"/>
<path d="M2600 2170 l0 -220 45 0 45 0 0 100 0 100 30 0 30 0 0 -100 0 -100
45 0 45 0 0 220 0 220 -45 0 -45 0 0 -90 0 -90 -30 0 -30 0 0 90 0 90 -45 0
-45 0 0 -220z"/>
<path d="M2870 2360 c0 -27 3 -30 30 -30 l30 0 0 -190 0 -190 45 0 45 0 2 188
3 187 33 3 c28 3 32 7 32 33 l0 29 -110 0 -110 0 0 -30z"/>
<path d="M3213 2384 c4 -4 17 -12 29 -18 22 -11 23 -16 26 -190 3 -185 -1
-206 -39 -206 -11 0 -19 -4 -19 -10 0 -6 39 -10 96 -10 61 0 93 4 89 10 -3 6
-12 10 -19 10 -7 0 -21 8 -30 19 -13 15 -16 34 -14 97 l3 79 34 3 c49 5 79 -5
86 -28 11 -34 25 -11 25 41 0 53 -7 60 -35 29 -13 -15 -31 -20 -67 -20 l-48 0
0 79 c0 44 4 82 9 85 4 3 34 6 66 7 53 2 60 0 81 -27 28 -34 35 -30 27 19 l-6
37 -150 0 c-83 0 -147 -3 -144 -6z"/>
<path d="M3572 2367 c26 -22 27 -24 30 -162 4 -160 17 -200 76 -237 53 -33
155 -32 205 2 59 40 74 84 81 240 7 131 8 136 34 157 l27 23 -74 0 -74 0 27
-25 c25 -23 26 -27 26 -141 0 -135 -12 -186 -53 -220 -56 -47 -153 -23 -197
48 -17 29 -20 51 -20 165 l0 131 28 21 27 20 -85 1 -85 0 27 -23z"/>
</g>
</svg>
