<?xml version="1.0" standalone="no"?>
<!DOCTYPE svg PUBLIC "-//W3C//DTD SVG 20010904//EN"
 "http://www.w3.org/TR/2001/REC-SVG-20010904/DTD/svg10.dtd">
<svg version="1.0" xmlns="http://www.w3.org/2000/svg"
 width="359.000000pt" height="140.000000pt" viewBox="0 0 359.000000 140.000000"
 preserveAspectRatio="xMidYMid meet">

<g transform="translate(0.000000,140.000000) scale(0.100000,-0.100000)"
fill="#000000" stroke="none">
<path d="M110 1011 l0 -303 31 6 c17 3 152 6 300 6 l269 0 0 298 0 297 -300 0
-300 0 0 -304z m306 102 l7 -47 33 36 32 36 23 -24 c12 -13 21 -25 18 -27 -25
-19 -108 -67 -115 -67 -14 0 -76 111 -70 126 5 12 44 23 58 17 4 -2 10 -24 14
-50z m-100 -59 c22 -9 50 -20 63 -25 16 -7 20 -13 14 -22 -5 -6 -20 -38 -33
-69 -12 -32 -25 -58 -29 -58 -3 1 -18 11 -34 23 l-27 23 35 34 c39 38 33 50
-22 50 -35 0 -36 2 -27 38 7 26 10 27 60 6z m239 -76 c-4 -18 -9 -35 -11 -37
-4 -4 -30 4 -92 27 -10 4 -10 -4 3 -34 20 -48 14 -64 -25 -64 -30 0 -30 1 -30
54 0 85 1 86 87 86 l75 0 -7 -32z"/>
<path d="M1135 1311 c-36 -9 -102 -44 -131 -68 -129 -110 -140 -322 -22 -441
98 -99 231 -125 356 -68 58 27 62 31 62 62 l0 33 -50 -31 c-41 -25 -64 -32
-123 -36 -64 -4 -79 -1 -123 21 -60 31 -117 91 -134 142 -7 21 -10 67 -8 106
3 57 9 76 36 114 18 26 29 51 26 57 -4 6 -3 8 4 4 6 -3 27 5 47 18 20 14 60
30 89 37 67 15 149 -7 201 -52 l35 -31 0 35 c0 37 -20 58 -84 86 -37 15 -142
23 -181 12z"/>
<path d="M2475 1313 c-73 -11 -131 -91 -122 -171 6 -58 29 -79 152 -141 57
-29 110 -60 117 -69 7 -8 13 -35 12 -59 -3 -130 -192 -168 -263 -53 -18 30
-18 30 -36 10 -17 -18 -17 -21 -1 -45 10 -15 38 -39 64 -56 80 -50 184 -37
248 33 59 64 70 131 31 189 -16 24 -54 50 -132 90 -60 31 -115 65 -122 75 -23
31 -16 82 16 114 49 50 97 51 164 6 30 -21 38 -22 48 -10 20 24 -14 61 -73 79
-28 8 -56 14 -62 14 -6 -1 -24 -4 -41 -6z"/>
<path d="M2915 1312 c-96 -32 -141 -129 -99 -217 13 -28 34 -43 118 -84 56
-27 112 -62 126 -76 45 -48 25 -124 -43 -165 -59 -37 -140 -20 -190 40 -23 26
-30 30 -42 20 -20 -17 -19 -24 11 -60 113 -133 344 -63 346 105 2 73 -24 101
-147 165 -123 64 -149 91 -134 144 10 35 48 73 84 82 33 8 64 0 107 -30 35
-23 37 -24 53 -6 15 17 14 19 -12 37 -61 43 -130 60 -178 45z"/>
<path d="M1510 1010 l0 -300 30 0 29 0 -1 135 c-1 74 1 138 5 141 6 6 57 -61
147 -194 50 -74 58 -82 88 -82 40 0 43 -5 -73 155 l-86 120 37 8 c89 18 130
71 128 164 -3 105 -70 152 -216 153 l-88 0 0 -300z m190 235 c34 -17 60 -62
60 -100 0 -38 -26 -83 -60 -100 -16 -8 -54 -15 -84 -15 -46 0 -54 3 -51 18 2
9 4 61 4 115 l1 97 50 0 c28 0 64 -7 80 -15z"/>
<path d="M1940 1010 l0 -300 145 0 145 0 0 25 0 25 -120 0 -121 0 3 123 3 122
118 3 c116 3 118 3 115 25 -3 21 -8 22 -120 25 l-118 3 0 99 0 100 120 0 120
0 0 25 0 25 -145 0 -145 0 0 -300z"/>
<path d="M3240 1010 l0 -300 150 0 150 0 0 25 0 25 -120 0 -120 0 0 125 0 125
115 0 115 0 0 25 0 25 -115 0 -115 0 0 100 0 100 120 0 120 0 0 25 0 25 -150
0 -150 0 0 -300z"/>
<path d="M120 401 c-14 -26 -13 -74 2 -89 7 -7 26 -11 43 -11 30 2 30 2 -5 8
-32 5 -35 9 -38 42 -2 24 3 42 13 53 9 9 12 16 6 16 -6 0 -15 -9 -21 -19z"/>
<path d="M181 404 c0 -11 3 -14 6 -6 3 7 2 16 -1 19 -3 4 -6 -2 -5 -13z"/>
<path d="M1377 413 c-12 -12 -7 -30 14 -54 l20 -24 -17 27 c-9 16 -14 35 -10
43 6 16 3 19 -7 8z"/>
<path d="M1404 400 c0 -13 4 -16 10 -10 7 7 7 13 0 20 -6 6 -10 3 -10 -10z"/>
<path d="M1558 360 c-2 -39 1 -60 8 -60 7 0 9 10 6 25 -3 20 0 25 17 25 11 0
21 -4 21 -8 0 -5 7 -17 15 -28 14 -18 14 -17 4 8 -9 21 -9 31 0 42 18 22 4 56
-22 55 -22 0 -22 0 1 -10 33 -13 25 -43 -12 -47 -27 -3 -28 -2 -24 27 3 17 1
31 -3 31 -4 0 -9 -27 -11 -60z"/>
<path d="M2039 362 c-2 -38 0 -62 6 -62 6 0 9 20 7 48 -5 77 -8 81 -13 14z"/>
<path d="M2669 369 c4 -59 14 -59 13 0 -1 29 4 41 16 44 11 3 8 5 -8 6 -24 1
-25 -1 -21 -50z"/>
<path d="M914 350 c1 -35 5 -45 19 -46 11 -1 12 0 3 3 -9 2 -16 21 -19 46 l-4
42 1 -45z"/>
<path d="M450 380 c0 -5 5 -10 11 -10 5 0 7 5 4 10 -3 6 -8 10 -11 10 -2 0 -4
-4 -4 -10z"/>
<path d="M750 380 c0 -5 5 -10 10 -10 6 0 10 5 10 10 0 6 -4 10 -10 10 -5 0
-10 -4 -10 -10z"/>
<path d="M1080 380 c-9 -6 -10 -10 -3 -10 6 0 15 5 18 10 8 12 4 12 -15 0z"/>
<path d="M1228 379 c6 -7 12 -28 12 -46 0 -18 3 -33 8 -33 15 0 0 79 -16 85
-14 5 -15 4 -4 -6z"/>
<path d="M1835 376 c11 -8 16 -19 12 -30 -4 -10 -3 -15 3 -11 16 10 12 42 -6
49 -25 10 -29 7 -9 -8z"/>
<path d="M2224 348 c1 -33 5 -43 19 -44 11 -1 12 0 3 3 -9 2 -17 21 -19 44
l-4 39 1 -42z"/>
<path d="M2387 372 c-18 -20 -23 -57 -8 -66 4 -3 6 6 3 20 -3 15 2 32 13 44
10 11 16 20 13 20 -3 0 -12 -8 -21 -18z"/>
<path d="M3260 386 c0 -2 7 -9 15 -16 9 -7 15 -8 15 -2 0 5 -7 12 -15 16 -8 3
-15 4 -15 2z"/>
<path d="M3470 380 c-23 -7 -23 -8 -3 -9 12 -1 25 4 28 9 3 6 5 10 3 9 -2 -1
-14 -5 -28 -9z"/>
<path d="M234 355 c-8 -30 1 -55 18 -54 10 0 10 2 1 6 -16 6 -17 45 -1 61 9 9
9 12 0 12 -6 0 -14 -11 -18 -25z"/>
<path d="M285 340 c0 -21 3 -36 8 -33 4 2 7 17 7 33 0 16 -3 31 -7 33 -5 3 -8
-12 -8 -33z"/>
<path d="M352 338 l1 -43 4 37 c3 24 10 38 21 41 12 3 11 5 -5 6 -21 1 -23 -3
-21 -41z"/>
<path d="M409 338 l6 -43 3 35 c2 19 9 38 15 42 8 5 4 8 -8 8 -18 0 -20 -5
-16 -42z"/>
<path d="M528 320 c-2 -41 1 -60 9 -60 6 0 9 8 6 19 -4 15 1 20 24 23 25 3 28
7 28 37 0 20 -5 35 -13 37 -7 1 -8 0 -2 -3 5 -2 10 -18 10 -34 0 -24 -4 -29
-25 -29 -21 0 -25 5 -25 29 0 16 6 32 13 34 7 4 6 6 -5 6 -13 1 -17 -11 -20
-59z"/>
<path d="M644 366 c-9 -22 0 -59 14 -62 7 -1 8 0 2 3 -22 11 -9 33 20 33 30 0
42 21 20 35 -6 3 -7 -1 -4 -9 5 -12 -1 -16 -21 -16 -20 0 -26 4 -21 15 3 8 3
15 0 15 -2 0 -7 -6 -10 -14z"/>
<path d="M1000 340 c0 -22 3 -40 8 -40 4 0 6 18 4 40 -2 22 -6 40 -8 40 -2 0
-4 -18 -4 -40z"/>
<path d="M1120 363 c8 -17 8 -29 0 -45 -11 -22 -10 -22 4 -4 9 11 16 23 16 26
0 3 -7 15 -16 26 -14 18 -15 18 -4 -3z"/>
<path d="M1182 338 c1 -41 1 -41 5 -8 3 19 10 38 16 42 8 5 6 8 -5 8 -15 0
-18 -8 -16 -42z"/>
<path d="M1697 373 c-18 -17 -5 -33 26 -32 31 2 31 2 4 6 -20 3 -27 9 -23 19
6 15 3 18 -7 7z"/>
<path d="M1798 368 c-10 -33 -2 -101 12 -105 11 -3 11 -2 3 4 -8 6 -11 27 -8
61 4 50 1 65 -7 40z"/>
<path d="M1970 346 c0 -30 -4 -35 -27 -39 -24 -3 -23 -4 7 -6 l36 -1 -4 40
c-5 49 -12 52 -12 6z"/>
<path d="M2310 340 c0 -22 3 -40 8 -40 4 0 6 18 4 40 -2 22 -6 40 -8 40 -2 0
-4 -18 -4 -40z"/>
<path d="M2428 349 c3 -20 0 -35 -9 -41 -12 -8 -11 -9 1 -5 17 4 26 55 12 69
-5 5 -7 -4 -4 -23z"/>
<path d="M2492 338 c1 -41 1 -41 5 -8 3 19 10 38 16 42 8 5 6 8 -5 8 -15 0
-18 -8 -16 -42z"/>
<path d="M2548 340 c2 -22 7 -40 11 -40 4 0 5 18 3 40 -2 22 -7 40 -11 40 -4
0 -5 -18 -3 -40z"/>
<path d="M2794 340 c1 -26 6 -35 19 -36 11 -1 12 0 3 3 -8 2 -17 19 -19 36 -4
31 -4 31 -3 -3z"/>
<path d="M2850 340 c0 -22 3 -40 8 -40 4 0 6 18 4 40 -2 22 -6 40 -8 40 -2 0
-4 -18 -4 -40z"/>
<path d="M2915 340 c0 -22 5 -40 10 -40 6 0 9 17 7 40 -2 22 -7 40 -11 40 -3
0 -6 -18 -6 -40z"/>
<path d="M3002 363 c-8 -15 0 -63 10 -63 2 0 3 18 3 40 0 45 -1 47 -13 23z"/>
<path d="M3117 360 c3 -11 7 -20 8 -20 1 0 5 9 8 20 3 12 0 20 -8 20 -8 0 -11
-8 -8 -20z"/>
<path d="M3171 362 c17 -27 6 -50 -28 -55 -22 -4 -20 -5 7 -3 33 1 35 3 35 35
0 20 -6 36 -13 39 -11 3 -11 0 -1 -16z"/>
<path d="M3237 373 c-19 -18 -5 -33 31 -31 l37 1 -33 4 c-24 3 -32 8 -28 19 6
15 3 18 -7 7z"/>
<path d="M3510 340 c0 -22 3 -40 8 -40 4 0 6 18 4 40 -2 22 -6 40 -8 40 -2 0
-4 -18 -4 -40z"/>
<path d="M1448 363 c7 -3 16 -2 19 1 4 3 -2 6 -13 5 -11 0 -14 -3 -6 -6z"/>
<path d="M2708 363 c7 -3 16 -2 19 1 4 3 -2 6 -13 5 -11 0 -14 -3 -6 -6z"/>
<path d="M1061 348 c-1 -23 9 -48 21 -48 7 0 7 4 0 13 -5 6 -12 21 -15 32 -3
15 -5 16 -6 3z"/>
<path d="M1354 345 c-8 -20 2 -45 18 -45 10 0 10 3 -1 9 -8 5 -12 18 -8 30 6
24 -1 29 -9 6z"/>
<path d="M1911 344 c0 -11 3 -14 6 -6 3 7 2 16 -1 19 -3 4 -6 -2 -5 -13z"/>
<path d="M3060 344 c0 -11 -5 -25 -12 -32 -9 -9 -9 -12 0 -12 13 0 28 47 18
57 -3 4 -6 -3 -6 -13z"/>
<path d="M2100 320 c0 -11 4 -20 8 -20 4 0 8 9 8 20 0 11 -4 20 -8 20 -4 0 -8
-9 -8 -20z"/>
<path d="M3334 329 c-3 -6 -2 -15 3 -20 5 -5 9 -1 9 11 0 23 -2 24 -12 9z"/>
<path d="M1415 321 c3 -5 -1 -11 -7 -14 -7 -3 -3 -4 10 -4 25 1 29 12 6 21 -8
3 -13 2 -9 -3z"/>
<path d="M1690 321 c0 -6 4 -13 10 -16 6 -3 7 1 4 9 -7 18 -14 21 -14 7z"/>
<path d="M2151 317 c-8 -10 -7 -14 2 -14 8 0 14 6 14 14 0 7 -1 13 -2 13 -2 0
-8 -6 -14 -13z"/>
<path d="M3230 321 c0 -6 4 -13 10 -16 6 -3 7 1 4 9 -7 18 -14 21 -14 7z"/>
<path d="M2700 310 l-45 -7 48 -1 c26 -1 47 3 47 8 0 6 -1 9 -2 8 -2 0 -23 -4
-48 -8z"/>
<path d="M3375 310 c-18 -8 -17 -9 8 -9 16 -1 26 3 22 9 -3 6 -7 10 -8 9 -1 0
-11 -4 -22 -9z"/>
<path d="M768 303 c6 -2 18 -2 25 0 6 3 1 5 -13 5 -14 0 -19 -2 -12 -5z"/>
<path d="M1839 299 c19 -8 21 -12 11 -24 -11 -13 -10 -14 4 -9 32 12 11 45
-27 43 -7 0 -1 -5 12 -10z"/>
<path d="M3116 275 c-3 -8 -1 -15 4 -15 6 0 10 7 10 15 0 8 -2 15 -4 15 -2 0
-6 -7 -10 -15z"/>
<path d="M1397 180 c3 -11 7 -20 9 -20 2 0 4 9 4 20 0 11 -4 20 -9 20 -5 0 -7
-9 -4 -20z"/>
<path d="M1747 192 c6 -4 13 -30 16 -57 l3 -50 2 58 c2 48 -1 57 -15 57 -12 0
-14 -3 -6 -8z"/>
<path d="M2171 138 c0 -38 2 -68 7 -68 4 0 6 21 4 48 -5 82 -9 89 -11 20z"/>
<path d="M2650 183 c0 -10 4 -14 8 -8 4 6 11 13 16 18 5 4 2 7 -7 7 -10 0 -17
-8 -17 -17z"/>
<path d="M334 175 c-9 -22 3 -45 23 -45 15 0 15 1 -2 14 -11 8 -16 19 -12 30
4 9 4 16 1 16 -2 0 -7 -7 -10 -15z"/>
<path d="M385 180 c3 -5 8 -10 11 -10 2 0 4 5 4 10 0 6 -5 10 -11 10 -5 0 -7
-4 -4 -10z"/>
<path d="M1235 180 c3 -5 8 -10 11 -10 2 0 4 5 4 10 0 6 -5 10 -11 10 -5 0 -7
-4 -4 -10z"/>
<path d="M2292 178 c-7 -7 -12 -28 -12 -48 0 -44 15 -60 55 -59 30 2 30 2 -5
8 -32 5 -35 9 -38 44 -2 21 2 45 9 53 14 17 8 19 -9 2z"/>
<path d="M449 118 c5 -33 11 -43 26 -45 16 -1 16 -1 3 3 -13 4 -18 16 -18 45
0 21 -4 39 -8 39 -5 0 -6 -19 -3 -42z"/>
<path d="M628 121 c5 -56 9 -60 13 -14 3 25 0 44 -6 47 -7 2 -9 -10 -7 -33z"/>
<path d="M673 149 c11 -6 17 -22 17 -44 0 -19 4 -35 8 -35 11 0 2 61 -10 78
-6 6 -16 12 -22 12 -6 0 -3 -5 7 -11z"/>
<path d="M798 153 c6 -2 13 -23 13 -46 l2 -42 6 40 c6 38 -2 55 -24 54 -5 0
-4 -3 3 -6z"/>
<path d="M853 149 c11 -6 17 -22 17 -44 0 -19 4 -35 8 -35 4 0 6 17 4 38 -4
36 -16 52 -37 52 -5 -1 -2 -5 8 -11z"/>
<path d="M978 150 c19 -21 15 -30 -14 -30 -20 0 -25 4 -20 16 3 8 2 12 -4 9
-6 -3 -10 -18 -9 -33 0 -15 3 -21 6 -14 2 6 18 12 34 12 33 0 39 20 12 41 -15
11 -16 11 -5 -1z"/>
<path d="M1047 148 c2 -5 13 -8 24 -8 10 0 19 3 19 8 0 4 -11 7 -24 7 -13 0
-22 -3 -19 -7z"/>
<path d="M1180 150 c0 -6 7 -13 15 -17 24 -9 27 1 5 15 -13 8 -20 8 -20 2z"/>
<path d="M1320 156 c0 -2 9 -6 20 -9 11 -3 18 -1 14 4 -5 9 -34 13 -34 5z"/>
<path d="M1450 153 c5 -2 10 -22 10 -44 0 -21 4 -39 8 -39 14 0 -2 83 -16 86
-7 1 -8 0 -2 -3z"/>
<path d="M1563 149 c19 -11 24 -64 7 -72 -6 -3 -5 -4 2 -3 18 4 23 67 6 77 -7
5 -17 9 -23 9 -5 -1 -2 -5 8 -11z"/>
<path d="M1673 149 c19 -11 24 -64 7 -72 -6 -3 -5 -4 2 -3 18 4 23 67 6 77 -7
5 -17 9 -23 9 -5 -1 -2 -5 8 -11z"/>
<path d="M1898 153 c24 -5 30 -28 10 -36 -10 -4 -10 -6 0 -6 6 -1 12 -10 12
-21 0 -11 4 -20 8 -20 5 0 6 19 3 43 -5 36 -10 42 -31 44 -22 1 -22 1 -2 -4z"/>
<path d="M1990 115 c0 -27 2 -46 4 -44 8 8 10 78 3 85 -4 4 -7 -14 -7 -41z"/>
<path d="M2030 150 c8 -5 20 -10 25 -10 6 0 3 5 -5 10 -8 5 -19 10 -25 10 -5
0 -3 -5 5 -10z"/>
<path d="M2412 148 c-7 -7 -11 -23 -11 -37 l2 -26 4 25 c3 14 10 31 15 38 13
15 6 16 -10 0z"/>
<path d="M2563 149 c11 -6 17 -22 17 -44 0 -19 4 -35 8 -35 4 0 6 17 4 38 -4
36 -16 52 -37 52 -5 -1 -2 -5 8 -11z"/>
<path d="M2645 150 c3 -5 8 -10 11 -10 2 0 4 5 4 10 0 6 -5 10 -11 10 -5 0 -7
-4 -4 -10z"/>
<path d="M2731 146 c-15 -18 -10 -69 7 -72 7 -1 8 0 2 3 -22 11 -9 33 20 33
34 0 40 20 13 41 -15 11 -16 11 -5 -1 18 -21 15 -30 -13 -30 -27 0 -32 9 -13
28 7 7 9 12 6 12 -3 0 -11 -6 -17 -14z"/>
<path d="M3028 121 c5 -56 9 -60 13 -14 3 25 0 44 -6 47 -7 2 -9 -10 -7 -33z"/>
<path d="M3073 150 c11 -7 17 -23 17 -45 0 -19 4 -35 8 -35 5 0 6 19 3 42 -5
33 -11 43 -26 46 -18 2 -18 2 -2 -8z"/>
<path d="M3201 144 c0 -11 3 -14 6 -6 3 7 2 16 -1 19 -3 4 -6 -2 -5 -13z"/>
<path d="M3261 146 c-15 -18 -10 -69 7 -72 7 -1 8 0 2 3 -22 11 -9 33 20 33
33 0 35 3 20 31 -13 23 -33 25 -49 5z m43 -11 c4 -11 -1 -15 -19 -15 -24 0
-32 10 -18 23 11 12 31 8 37 -8z"/>
<path d="M1294 125 c-8 -32 11 -55 45 -54 25 1 25 2 -4 8 -26 6 -30 11 -29 39
2 38 -3 41 -12 7z"/>
<path d="M1400 110 c0 -22 2 -40 4 -40 2 0 6 18 8 40 2 22 0 40 -4 40 -5 0 -8
-18 -8 -40z"/>
<path d="M1524 135 c-8 -21 4 -65 17 -65 8 0 7 5 -1 15 -7 8 -10 26 -8 40 6
28 1 33 -8 10z"/>
<path d="M1634 124 c-5 -18 -1 -31 12 -42 17 -16 17 -16 5 0 -8 11 -11 28 -7
43 4 14 4 25 1 25 -2 0 -8 -12 -11 -26z"/>
<path d="M2114 110 c1 -29 5 -35 24 -36 17 -1 18 -1 3 3 -14 3 -21 15 -24 36
-4 31 -4 31 -3 -3z"/>
<path d="M2458 119 c3 -20 0 -35 -9 -41 -12 -8 -11 -9 1 -5 17 4 26 55 12 69
-5 5 -7 -4 -4 -23z"/>
<path d="M2523 110 c0 -25 2 -35 4 -22 2 12 2 32 0 45 -2 12 -4 2 -4 -23z"/>
<path d="M2828 110 c-3 -35 -1 -40 17 -39 11 0 14 3 8 6 -7 2 -13 17 -13 33 0
22 5 30 23 33 20 4 19 4 -4 6 -24 1 -27 -3 -31 -39z"/>
<path d="M2970 135 c0 -10 -10 -15 -30 -15 -16 0 -30 -4 -30 -8 0 -4 16 -6 35
-4 26 3 35 9 35 23 0 10 -2 19 -5 19 -3 0 -5 -7 -5 -15z"/>
<path d="M3147 128 c-9 -33 10 -58 41 -57 l27 2 -27 4 c-31 5 -42 27 -28 54 6
11 7 19 2 19 -6 0 -12 -10 -15 -22z"/>
<path d="M510 105 c0 -19 4 -35 8 -35 4 0 6 16 4 35 -2 19 -6 35 -8 35 -2 0
-4 -16 -4 -35z"/>
<path d="M385 120 c3 -5 8 -10 11 -10 2 0 4 5 4 10 0 6 -5 10 -11 10 -5 0 -7
-4 -4 -10z"/>
<path d="M1235 120 c3 -5 8 -10 11 -10 2 0 4 5 4 10 0 6 -5 10 -11 10 -5 0 -7
-4 -4 -10z"/>
<path d="M2051 114 c0 -11 3 -14 6 -6 3 7 2 16 -1 19 -3 4 -6 -2 -5 -13z"/>
<path d="M1870 90 c0 -11 4 -20 9 -20 5 0 7 9 4 20 -3 11 -7 20 -9 20 -2 0 -4
-9 -4 -20z"/>
<path d="M324 88 c2 -8 17 -13 36 -13 19 0 34 5 36 13 1 7 0 8 -3 2 -2 -5 -17
-10 -33 -10 -16 0 -31 5 -33 10 -3 6 -4 5 -3 -2z"/>
<path d="M1174 88 c2 -8 17 -13 36 -13 19 0 34 5 36 13 1 7 0 8 -3 2 -6 -13
-60 -13 -66 0 -3 6 -4 5 -3 -2z"/>
<path d="M1040 80 c0 -5 5 -10 11 -10 5 0 7 5 4 10 -3 6 -8 10 -11 10 -2 0 -4
-4 -4 -10z"/>
<path d="M1748 73 c6 -2 18 -2 25 0 6 3 1 5 -13 5 -14 0 -19 -2 -12 -5z"/>
<path d="M2638 73 c6 -2 18 -2 25 0 6 3 1 5 -13 5 -14 0 -19 -2 -12 -5z"/>
</g>
</svg>
