<svg id="svg" version="1.1" xmlns="http://www.w3.org/2000/svg" xmlns:xlink="http://www.w3.org/1999/xlink" width="400" height="364.25531914893617" viewBox="0, 0, 400,364.25531914893617"><g id="svgg"><path id="path0" d="M0.000 1.457 L 0.000 2.914 200.000 2.914 L 400.000 2.914 400.000 1.457 L 400.000 0.000 200.000 0.000 L 0.000 0.000 0.000 1.457 M42.871 75.648 C 42.566 75.952,42.547 102.959,42.851 104.091 L 43.068 104.903 76.391 105.002 C 108.896 105.098,109.725 105.118,110.230 105.807 C 110.673 106.413,110.747 119.182,110.747 195.152 L 110.747 283.789 133.333 283.789 L 155.920 283.789 155.920 195.082 L 155.920 106.375 156.668 105.627 L 157.417 104.878 213.772 104.992 C 267.404 105.101,270.207 105.138,271.767 105.773 C 272.668 106.140,274.390 106.605,275.592 106.806 C 276.794 107.007,278.289 107.484,278.914 107.866 C 279.538 108.248,280.285 108.561,280.573 108.561 C 280.861 108.561,281.653 108.971,282.332 109.472 C 283.010 109.973,283.797 110.383,284.080 110.383 C 284.868 110.383,287.965 112.866,291.006 115.935 C 293.518 118.470,294.587 119.828,295.066 121.088 C 295.265 121.611,295.571 122.040,295.746 122.040 C 295.921 122.040,296.336 122.655,296.667 123.406 C 296.999 124.158,297.501 125.182,297.782 125.683 C 298.997 127.847,300.182 130.672,300.182 131.405 C 300.182 131.842,300.491 132.741,300.868 133.404 C 301.245 134.066,301.645 135.428,301.755 136.430 C 301.866 137.432,302.229 138.792,302.562 139.453 C 302.895 140.114,303.312 142.163,303.489 144.007 C 303.666 145.850,304.063 148.260,304.370 149.362 C 306.199 155.918,306.195 199.178,304.366 206.375 C 304.060 207.577,303.655 210.172,303.466 212.140 C 303.277 214.109,302.869 216.229,302.559 216.850 C 302.248 217.472,301.892 218.894,301.766 220.010 C 301.640 221.127,301.255 222.614,300.911 223.315 C 300.566 224.016,300.174 225.309,300.039 226.187 C 299.904 227.066,299.471 228.195,299.077 228.696 C 298.683 229.197,298.361 229.972,298.361 230.419 C 298.361 230.866,298.057 231.622,297.685 232.100 C 297.313 232.578,296.810 233.582,296.566 234.330 C 296.321 235.079,295.953 235.795,295.747 235.923 C 295.541 236.050,295.141 236.708,294.858 237.385 C 294.575 238.062,294.208 238.616,294.043 238.616 C 293.877 238.616,293.558 239.019,293.333 239.512 C 292.436 241.481,287.340 246.554,285.347 247.462 C 284.891 247.670,284.517 247.979,284.517 248.149 C 284.517 248.319,283.874 248.715,283.088 249.029 C 282.302 249.344,281.570 249.834,281.460 250.119 C 281.351 250.404,280.887 250.638,280.430 250.639 C 279.973 250.640,279.078 250.958,278.442 251.346 C 277.805 251.734,276.658 252.157,275.892 252.286 C 275.126 252.414,273.434 252.875,272.131 253.309 C 269.131 254.309,217.813 254.578,216.633 253.599 C 216.078 253.139,216.024 247.795,215.939 184.747 L 215.847 116.393 193.260 116.393 L 170.674 116.393 170.582 199.146 C 170.532 244.661,170.619 282.248,170.776 282.673 L 171.063 283.447 215.859 283.422 C 240.497 283.409,263.852 283.243,267.760 283.053 C 286.505 282.141,289.313 281.973,289.691 281.740 C 290.361 281.326,294.430 280.537,295.993 280.518 C 296.794 280.509,298.727 280.093,300.287 279.595 C 301.848 279.096,303.528 278.689,304.022 278.689 C 304.516 278.689,305.532 278.361,306.280 277.960 C 307.028 277.559,307.971 277.231,308.376 277.231 C 308.782 277.231,309.883 276.821,310.824 276.321 C 311.765 275.820,312.838 275.410,313.209 275.410 C 313.580 275.410,314.439 275.000,315.118 274.499 C 315.797 273.998,316.731 273.588,317.193 273.588 C 317.655 273.588,318.033 273.439,318.033 273.257 C 318.033 273.074,318.770 272.568,319.672 272.131 C 320.574 271.695,321.311 271.199,321.311 271.030 C 321.311 270.861,321.680 270.607,322.131 270.465 C 322.953 270.207,323.927 269.537,326.200 267.668 C 326.870 267.117,327.602 266.667,327.826 266.667 C 328.050 266.667,328.233 266.421,328.233 266.120 C 328.233 265.820,328.390 265.574,328.582 265.574 C 328.936 265.574,333.333 261.274,333.333 260.928 C 333.333 260.824,333.702 260.375,334.153 259.929 C 334.604 259.483,335.265 258.727,335.623 258.248 C 335.980 257.769,336.759 256.740,337.353 255.961 C 337.947 255.182,338.434 254.410,338.434 254.245 C 338.434 254.080,338.741 253.651,339.117 253.293 C 339.493 252.934,339.921 252.231,340.070 251.730 C 340.218 251.230,340.629 250.492,340.984 250.091 C 341.338 249.690,341.752 248.953,341.903 248.452 C 342.053 247.951,342.482 247.150,342.855 246.672 C 343.228 246.194,343.534 245.520,343.534 245.173 C 343.534 244.826,343.840 244.152,344.215 243.674 C 344.589 243.196,345.018 242.231,345.166 241.530 C 345.315 240.829,345.652 240.009,345.915 239.709 C 346.178 239.408,346.590 238.342,346.831 237.341 C 347.071 236.339,347.499 235.146,347.783 234.691 C 348.066 234.236,348.470 232.927,348.682 231.784 C 348.893 230.641,349.277 229.292,349.536 228.787 C 349.794 228.282,350.127 226.967,350.276 225.865 C 350.425 224.763,350.832 222.960,351.182 221.858 C 351.531 220.756,351.937 218.543,352.083 216.940 C 352.230 215.337,352.571 213.494,352.840 212.844 C 353.110 212.194,353.518 208.915,353.748 205.558 C 353.977 202.200,354.332 198.798,354.536 197.996 C 355.062 195.929,355.332 163.901,354.860 159.563 C 354.652 157.659,354.236 153.397,353.934 150.091 C 353.632 146.785,353.144 143.260,352.849 142.259 C 352.554 141.257,352.144 138.983,351.938 137.205 C 351.732 135.428,351.408 133.785,351.217 133.555 C 351.026 133.326,350.672 131.993,350.430 130.594 C 350.187 129.195,349.684 127.480,349.312 126.781 C 348.939 126.083,348.634 125.097,348.634 124.590 C 348.634 124.083,348.328 123.097,347.954 122.399 C 347.580 121.701,347.152 120.556,347.004 119.854 C 346.855 119.153,346.424 118.068,346.044 117.443 C 345.665 116.819,345.355 116.117,345.355 115.885 C 345.355 115.247,341.735 108.048,340.981 107.187 C 340.758 106.932,340.337 106.153,340.046 105.456 C 339.755 104.760,339.381 104.189,339.216 104.189 C 339.050 104.189,338.731 103.786,338.506 103.293 C 338.282 102.800,337.835 102.103,337.514 101.745 C 336.393 100.493,334.791 98.258,334.791 97.946 C 334.791 97.773,334.539 97.632,334.233 97.632 C 333.926 97.632,333.566 97.347,333.432 96.999 C 333.194 96.380,329.442 92.532,329.076 92.532 C 328.973 92.532,328.428 92.081,327.863 91.530 C 326.091 89.802,325.535 89.365,324.317 88.745 C 323.666 88.413,323.133 87.985,323.133 87.794 C 323.133 87.602,322.735 87.346,322.249 87.224 C 321.763 87.102,321.082 86.689,320.735 86.306 C 320.389 85.923,319.802 85.610,319.430 85.610 C 319.058 85.610,318.474 85.282,318.130 84.882 C 317.787 84.481,317.338 84.152,317.132 84.152 C 316.926 84.151,315.774 83.660,314.572 83.060 C 313.370 82.461,312.185 81.969,311.940 81.969 C 311.694 81.968,310.956 81.640,310.300 81.240 C 309.644 80.840,308.773 80.512,308.365 80.511 C 307.956 80.511,306.973 80.177,306.179 79.770 C 305.385 79.364,303.662 78.877,302.349 78.689 C 301.036 78.501,299.397 78.114,298.706 77.828 C 298.015 77.542,295.787 77.130,293.755 76.912 C 291.722 76.693,289.591 76.307,289.019 76.053 C 287.885 75.551,43.370 75.148,42.871 75.648 M0.000 362.842 L 0.000 364.299 200.000 364.299 L 400.000 364.299 400.000 362.842 L 400.000 361.384 200.000 361.384 L 0.000 361.384 0.000 362.842 " stroke="none" fill="#fafbfa" fill-rule="evenodd"></path><path id="path1" d="M42.805 73.953 C 42.681 74.153,42.101 74.317,41.516 74.317 L 40.453 74.317 40.354 89.526 C 40.244 106.490,40.208 105.864,41.291 106.154 C 41.723 106.270,56.995 106.368,75.228 106.370 L 108.379 106.375 108.274 194.444 C 108.162 289.038,108.102 284.903,109.579 284.839 C 110.196 284.813,110.326 284.735,109.927 284.630 C 109.577 284.539,109.249 284.435,109.200 284.400 C 109.151 284.364,109.028 244.253,108.927 195.264 L 108.743 106.193 75.375 106.011 C 47.718 105.860,41.902 105.743,41.400 105.325 C 40.849 104.869,40.802 103.456,40.888 90.036 L 40.984 75.249 41.894 74.788 C 42.623 74.420,66.299 74.327,160.222 74.322 C 238.406 74.319,277.563 74.195,277.413 73.953 C 277.101 73.448,43.117 73.448,42.805 73.953 M287.796 74.656 C 291.378 74.819,292.561 75.007,293.340 75.535 C 294.657 76.429,295.319 76.166,294.355 75.131 C 293.632 74.355,293.352 74.320,288.419 74.382 L 283.242 74.448 287.796 74.656 M299.930 76.518 C 300.893 76.680,301.922 77.012,302.216 77.256 C 302.856 77.788,303.271 77.482,302.971 76.701 C 302.805 76.270,302.221 76.148,300.467 76.181 L 298.179 76.224 299.930 76.518 M305.282 77.998 C 306.394 78.186,307.487 78.605,307.738 78.941 C 308.314 79.714,308.847 79.224,308.328 78.398 C 308.035 77.931,307.363 77.763,305.609 77.719 L 303.279 77.661 305.282 77.998 M310.158 79.774 C 310.937 79.924,311.723 80.315,311.907 80.643 C 312.090 80.970,312.559 81.239,312.948 81.239 C 313.627 81.239,313.624 81.201,312.864 80.328 C 312.221 79.588,311.760 79.425,310.408 79.459 L 308.743 79.501 310.158 79.774 M314.625 81.491 C 315.055 81.575,315.695 81.962,316.048 82.352 C 316.400 82.741,316.950 83.058,317.270 83.055 C 317.630 83.051,317.702 82.947,317.460 82.781 C 317.245 82.634,316.963 82.227,316.834 81.876 C 316.661 81.409,316.230 81.252,315.221 81.288 C 314.455 81.316,314.191 81.406,314.625 81.491 M318.761 83.789 C 319.632 84.660,320.385 84.747,320.075 83.941 C 319.954 83.624,319.854 83.296,319.854 83.212 C 319.854 83.129,319.444 83.060,318.944 83.060 L 318.033 83.060 318.761 83.789 M321.663 85.473 C 322.288 85.999,322.902 86.327,323.027 86.202 C 323.152 86.077,323.082 85.974,322.872 85.974 C 322.661 85.974,322.404 85.647,322.299 85.246 C 322.182 84.800,321.802 84.517,321.318 84.517 C 320.594 84.517,320.623 84.598,321.663 85.473 M324.744 87.341 C 325.494 87.892,326.843 89.041,327.743 89.895 C 329.158 91.239,329.362 91.337,329.261 90.624 C 329.187 90.106,328.853 89.758,328.361 89.688 C 327.931 89.627,327.495 89.258,327.394 88.868 C 327.292 88.479,326.966 88.160,326.670 88.160 C 326.374 88.160,325.863 87.750,325.534 87.250 C 325.206 86.748,324.588 86.339,324.159 86.339 C 323.505 86.339,323.599 86.500,324.744 87.341 M330.444 92.259 C 330.828 93.101,332.605 94.189,332.605 93.581 C 332.605 93.395,332.195 93.087,331.694 92.896 C 331.193 92.706,330.783 92.300,330.783 91.994 C 330.783 91.689,330.623 91.439,330.427 91.439 C 330.199 91.439,330.206 91.736,330.444 92.259 M332.969 94.951 C 333.270 95.069,333.735 95.434,334.004 95.761 C 334.445 96.300,334.480 96.288,334.364 95.628 C 334.282 95.159,333.914 94.871,333.330 94.818 C 332.831 94.773,332.668 94.833,332.969 94.951 M337.011 98.998 C 337.279 99.349,337.545 99.704,337.602 99.787 C 337.659 99.871,337.705 99.584,337.705 99.150 C 337.705 98.665,337.477 98.361,337.114 98.361 C 336.608 98.361,336.593 98.452,337.011 98.998 M337.988 100.427 C 338.244 100.530,338.780 101.254,339.179 102.037 C 339.579 102.820,340.066 103.461,340.262 103.461 C 340.459 103.461,340.619 103.707,340.619 104.007 C 340.619 104.308,340.967 104.901,341.391 105.325 C 341.815 105.750,342.293 106.528,342.452 107.056 C 342.719 107.936,342.745 107.903,342.774 106.648 C 342.799 105.533,342.677 105.282,342.105 105.282 C 341.612 105.282,341.330 104.933,341.147 104.098 C 341.005 103.447,340.500 102.553,340.025 102.112 C 339.550 101.671,339.162 101.056,339.162 100.746 C 339.162 100.396,338.852 100.193,338.342 100.211 C 337.892 100.227,337.732 100.324,337.988 100.427 M157.256 106.254 C 157.122 106.387,157.013 146.437,157.013 195.252 C 157.013 265.756,156.919 284.107,156.557 284.490 C 156.190 284.880,156.207 284.940,156.648 284.806 C 157.132 284.658,157.205 274.365,157.287 195.507 L 157.379 106.375 212.891 106.375 C 268.097 106.375,268.404 106.379,268.594 107.104 C 268.761 107.742,269.071 107.827,271.095 107.790 L 273.406 107.747 271.693 107.458 C 270.751 107.299,269.608 106.909,269.153 106.590 C 268.291 105.986,157.855 105.654,157.256 106.254 M275.863 108.652 C 276.303 109.317,276.774 109.483,278.366 109.532 C 280.139 109.587,280.196 109.566,278.963 109.316 C 278.212 109.165,277.298 108.769,276.931 108.436 C 275.896 107.500,275.195 107.642,275.863 108.652 M343.283 108.720 C 343.646 108.995,344.082 109.687,344.253 110.257 L 344.564 111.293 344.595 110.317 C 344.628 109.310,343.807 108.188,343.052 108.208 C 342.816 108.215,342.920 108.445,343.283 108.720 M280.510 110.291 C 280.510 110.928,280.796 111.109,282.116 111.307 C 283.265 111.480,283.774 111.746,283.904 112.240 C 284.003 112.621,284.375 112.933,284.729 112.933 C 285.288 112.933,285.261 112.813,284.517 112.022 C 284.047 111.521,283.287 111.111,282.829 111.111 C 282.370 111.111,281.661 110.752,281.253 110.314 L 280.510 109.517 280.510 110.291 M344.627 111.813 C 344.627 112.028,344.796 112.204,345.003 112.204 C 345.209 112.204,345.535 112.573,345.725 113.024 C 346.043 113.773,346.065 113.750,345.987 112.754 C 345.907 111.732,344.627 110.846,344.627 111.813 M285.610 113.271 C 285.610 113.867,286.732 114.754,287.486 114.754 C 288.123 114.754,288.078 114.638,287.134 113.843 C 285.976 112.869,285.610 112.732,285.610 113.271 M346.133 114.645 C 346.106 115.086,346.345 115.593,346.665 115.771 C 346.984 115.950,347.377 116.655,347.538 117.338 L 347.831 118.579 347.868 117.031 C 347.899 115.731,347.792 115.483,347.202 115.483 C 346.762 115.483,346.440 115.175,346.341 114.663 L 346.183 113.843 346.133 114.645 M288.668 115.330 C 288.789 115.647,288.889 116.057,288.889 116.241 C 288.889 116.425,289.217 116.576,289.617 116.576 C 290.109 116.576,290.346 116.818,290.346 117.321 C 290.346 117.731,290.756 118.476,291.257 118.977 C 291.758 119.478,292.168 120.130,292.168 120.426 C 292.168 120.723,292.577 121.121,293.078 121.311 C 293.654 121.530,293.989 121.941,293.989 122.429 C 293.989 122.895,294.278 123.277,294.718 123.392 C 295.138 123.502,295.464 123.911,295.489 124.359 C 295.527 125.067,295.547 125.074,295.710 124.432 C 295.809 124.045,295.651 123.553,295.360 123.339 C 295.068 123.126,294.575 122.459,294.265 121.857 C 293.954 121.255,293.355 120.451,292.933 120.070 C 292.512 119.689,292.168 119.162,292.168 118.900 C 292.168 118.637,291.840 118.247,291.439 118.033 C 291.038 117.818,290.710 117.468,290.710 117.255 C 290.710 117.042,290.201 116.392,289.578 115.810 C 288.956 115.229,288.546 115.012,288.668 115.330 M168.514 115.691 C 167.997 116.208,167.942 124.340,167.942 199.763 C 167.942 291.473,167.779 284.882,170.047 284.882 L 171.018 284.882 170.209 284.314 L 169.399 283.747 169.399 199.785 L 169.399 115.824 170.219 115.494 C 171.014 115.174,171.009 115.164,170.062 115.141 C 169.526 115.129,168.829 115.376,168.514 115.691 M216.383 115.524 C 216.878 115.722,217.409 116.080,217.563 116.321 C 217.717 116.561,217.842 147.413,217.841 184.880 C 217.840 230.213,217.962 253.043,218.206 253.124 C 218.450 253.205,218.574 230.378,218.577 184.404 C 218.583 108.652,218.781 115.086,216.455 115.141 L 215.483 115.165 216.383 115.524 M347.905 119.370 C 347.905 119.505,348.156 119.892,348.462 120.230 C 348.768 120.568,349.160 121.565,349.333 122.444 L 349.647 124.044 349.687 122.161 C 349.736 119.832,349.482 119.126,348.595 119.126 C 348.216 119.126,347.905 119.236,347.905 119.370 M349.727 124.470 C 349.727 124.605,349.963 124.976,350.251 125.295 C 350.540 125.613,350.943 126.913,351.148 128.183 C 351.352 129.453,351.731 130.746,351.989 131.057 C 352.248 131.368,352.557 132.622,352.677 133.844 L 352.894 136.066 352.950 133.239 C 352.997 130.821,352.900 130.321,352.277 129.788 C 351.762 129.347,351.548 128.713,351.548 127.629 C 351.548 125.694,351.002 124.226,350.282 124.226 C 349.977 124.226,349.727 124.336,349.727 124.470 M295.816 125.956 C 295.812 126.567,296.020 126.775,296.630 126.770 C 297.234 126.766,297.319 126.682,296.952 126.449 C 296.677 126.275,296.311 125.909,296.137 125.635 C 295.905 125.268,295.820 125.352,295.816 125.956 M297.299 129.246 C 297.276 130.418,297.426 130.865,297.905 131.041 C 298.256 131.171,298.663 131.452,298.810 131.667 C 298.974 131.906,299.080 131.820,299.084 131.447 C 299.087 131.110,298.828 130.574,298.509 130.255 C 298.190 129.936,297.795 129.228,297.630 128.681 C 297.361 127.790,297.327 127.848,297.299 129.246 M299.121 134.475 C 299.095 135.849,299.220 136.197,299.790 136.346 C 300.219 136.458,300.550 136.933,300.646 137.572 L 300.802 138.616 300.856 137.513 C 300.886 136.906,300.648 136.034,300.326 135.575 C 300.005 135.116,299.609 134.301,299.447 133.764 C 299.194 132.927,299.147 133.029,299.121 134.475 M353.034 136.903 C 353.018 137.364,353.269 138.250,353.590 138.872 C 353.949 139.566,354.286 141.566,354.463 144.045 L 354.750 148.087 354.697 143.048 C 354.654 138.908,354.542 137.933,354.066 137.584 C 353.748 137.350,353.392 136.913,353.275 136.612 C 353.134 136.248,353.053 136.346,353.034 136.903 M300.666 140.653 C 300.795 141.136,300.903 141.899,300.906 142.350 C 300.909 142.925,301.128 143.169,301.639 143.169 C 302.510 143.169,302.554 142.939,301.821 142.207 C 301.521 141.906,301.275 141.354,301.275 140.979 C 301.275 140.604,301.085 140.181,300.853 140.037 C 300.558 139.855,300.502 140.039,300.666 140.653 M302.505 149.672 C 302.560 155.069,302.657 156.057,303.169 156.431 C 303.499 156.672,303.837 157.434,303.921 158.125 C 304.039 159.098,304.086 158.961,304.131 157.514 C 304.163 156.487,303.923 154.930,303.598 154.053 C 303.260 153.141,302.886 150.510,302.724 147.905 L 302.441 143.352 302.505 149.672 M354.827 148.759 C 354.827 149.042,355.073 149.862,355.373 150.581 C 355.721 151.412,355.933 153.188,355.957 155.453 C 355.987 158.258,356.062 158.745,356.311 157.741 C 356.867 155.500,356.293 149.029,355.501 148.605 C 354.993 148.333,354.827 148.371,354.827 148.759 M356.452 176.503 C 356.452 185.519,356.499 189.155,356.557 184.584 C 356.615 180.012,356.615 172.634,356.557 168.190 C 356.499 163.746,356.452 167.486,356.452 176.503 M304.350 177.960 C 304.350 183.570,304.400 185.814,304.462 182.947 C 304.524 180.080,304.523 175.490,304.462 172.747 C 304.400 170.004,304.349 172.350,304.350 177.960 M355.966 198.361 C 355.930 201.446,355.755 203.039,355.371 203.776 C 354.508 205.431,354.845 206.616,355.826 205.373 C 356.315 204.753,356.646 198.059,356.299 195.811 C 356.072 194.345,356.007 194.844,355.966 198.361 M303.891 197.603 C 303.855 198.189,303.542 198.980,303.196 199.363 C 302.657 199.959,302.558 200.953,302.507 206.313 L 302.447 212.568 302.721 208.015 C 302.884 205.293,303.243 202.780,303.613 201.768 C 303.992 200.731,304.179 199.390,304.094 198.307 C 304.019 197.335,303.927 197.018,303.891 197.603 M354.440 210.565 C 354.294 213.811,354.058 215.453,353.620 216.284 C 352.715 218.002,352.789 218.940,353.744 217.839 C 354.787 216.637,354.868 216.066,354.750 210.747 L 354.645 206.011 354.440 210.565 M301.154 212.993 C 301.020 213.127,300.928 213.988,300.948 214.906 C 300.984 216.533,300.993 216.545,301.273 215.358 C 301.432 214.688,301.743 213.959,301.965 213.737 C 302.186 213.515,302.368 213.202,302.368 213.042 C 302.368 212.689,301.493 212.654,301.154 212.993 M300.605 218.765 C 300.570 219.420,300.254 220.044,299.818 220.316 C 299.245 220.674,299.097 221.141,299.127 222.499 C 299.159 224.018,299.196 224.094,299.428 223.125 C 299.573 222.520,299.977 221.589,300.326 221.056 C 300.722 220.452,300.905 219.633,300.812 218.878 L 300.663 217.668 300.605 218.765 M352.714 221.317 C 352.674 222.322,352.313 223.755,351.913 224.503 C 351.512 225.251,351.209 226.396,351.239 227.048 L 351.293 228.233 351.445 227.140 C 351.529 226.539,351.922 225.795,352.319 225.486 C 352.947 224.998,353.024 224.573,352.913 222.207 C 352.822 220.261,352.765 220.008,352.714 221.317 M298.087 226.241 C 297.403 226.516,297.276 226.828,297.317 228.130 C 297.349 229.140,297.427 229.371,297.536 228.784 C 297.629 228.286,298.028 227.425,298.422 226.872 C 298.816 226.318,299.087 225.876,299.023 225.888 C 298.959 225.901,298.538 226.060,298.087 226.241 M350.820 229.388 C 350.820 229.924,350.546 230.664,350.211 231.034 C 349.877 231.403,349.479 232.619,349.328 233.736 C 349.176 234.853,348.794 236.052,348.479 236.400 C 347.452 237.534,348.068 238.036,349.154 236.950 C 349.545 236.560,349.727 235.698,349.727 234.243 C 349.727 232.427,349.836 232.073,350.455 231.876 C 351.121 231.665,351.634 228.415,351.002 228.415 C 350.902 228.415,350.820 228.853,350.820 229.388 M296.448 230.278 C 296.097 230.475,295.811 231.061,295.811 231.579 L 295.811 232.521 296.568 231.557 C 297.452 230.434,297.387 229.747,296.448 230.278 M295.489 233.424 C 295.460 233.987,295.218 234.244,294.718 234.244 C 294.185 234.244,293.989 234.487,293.989 235.146 C 293.989 235.707,293.644 236.275,293.078 236.646 C 292.470 237.044,292.168 237.577,292.168 238.251 C 292.168 238.953,291.946 239.317,291.439 239.450 C 291.038 239.555,290.710 239.901,290.710 240.218 C 290.710 240.689,290.879 240.650,291.621 240.005 C 292.122 239.569,292.532 239.022,292.532 238.789 C 292.532 238.555,292.845 238.081,293.228 237.735 C 293.610 237.388,294.029 236.685,294.157 236.173 C 294.286 235.660,294.729 234.967,295.142 234.633 C 295.607 234.256,295.823 233.756,295.711 233.315 C 295.552 232.690,295.526 232.703,295.489 233.424 M347.541 239.092 C 347.541 239.555,347.298 240.252,347.000 240.641 C 346.703 241.030,346.278 242.004,346.056 242.805 C 345.834 243.607,345.380 244.568,345.048 244.942 C 344.481 245.581,344.488 245.614,345.170 245.484 C 345.712 245.381,345.975 244.917,346.205 243.654 C 346.425 242.454,346.717 241.909,347.210 241.780 C 347.848 241.613,348.337 238.251,347.723 238.251 C 347.623 238.251,347.541 238.630,347.541 239.092 M289.344 241.407 C 289.094 241.508,288.889 241.905,288.889 242.289 C 288.889 242.736,288.636 242.987,288.185 242.987 C 287.798 242.987,287.382 243.297,287.262 243.677 C 287.142 244.056,286.709 244.453,286.300 244.560 C 285.891 244.667,285.467 245.095,285.359 245.510 C 285.217 246.053,284.867 246.266,284.119 246.266 C 283.409 246.266,282.886 246.557,282.480 247.177 C 282.120 247.727,281.539 248.087,281.015 248.087 C 280.355 248.087,280.147 248.285,280.151 248.907 C 280.155 249.383,280.269 249.557,280.425 249.320 C 280.572 249.097,281.411 248.523,282.290 248.045 C 285.282 246.419,284.989 246.644,288.967 242.896 C 290.599 241.359,290.728 240.849,289.344 241.407 M344.321 246.490 C 344.289 246.914,343.923 247.693,343.507 248.220 C 342.930 248.955,342.876 249.180,343.281 249.180 C 344.150 249.180,344.686 248.212,344.528 246.927 C 344.446 246.263,344.353 246.066,344.321 246.490 M275.483 249.982 C 274.477 250.988,275.099 251.760,276.150 250.809 C 276.488 250.503,277.485 250.111,278.364 249.939 L 279.964 249.624 277.942 249.585 C 276.802 249.562,275.729 249.735,275.483 249.982 M342.495 249.926 C 342.465 250.236,342.195 250.810,341.894 251.201 C 340.129 253.500,339.509 254.702,340.152 254.578 C 340.504 254.510,340.848 254.128,340.914 253.730 C 340.981 253.331,341.447 252.661,341.950 252.240 C 342.641 251.661,342.826 251.217,342.707 250.418 C 342.621 249.838,342.525 249.616,342.495 249.926 M266.712 252.049 C 266.337 252.425,265.804 252.822,265.528 252.931 C 265.253 253.041,265.486 253.143,266.047 253.159 C 266.608 253.175,267.542 252.942,268.123 252.642 C 268.704 252.341,270.294 251.952,271.657 251.777 L 274.135 251.458 270.765 251.412 C 267.917 251.373,267.290 251.472,266.712 252.049 M339.212 255.450 C 339.184 255.793,338.803 256.408,338.365 256.816 C 337.745 257.394,337.694 257.559,338.138 257.559 C 338.975 257.559,339.606 256.629,339.422 255.667 C 339.325 255.161,339.242 255.075,339.212 255.450 M337.101 258.389 C 336.932 258.675,336.548 259.003,336.248 259.116 C 335.887 259.253,335.984 259.333,336.532 259.352 C 336.989 259.368,337.461 259.128,337.579 258.819 C 337.867 258.069,337.489 257.730,337.101 258.389 M334.973 260.726 C 334.572 261.247,332.851 263.033,331.148 264.696 C 329.444 266.358,327.706 268.056,327.284 268.468 C 326.862 268.880,326.339 269.217,326.121 269.217 C 325.903 269.217,325.499 269.539,325.223 269.933 C 324.947 270.327,324.323 270.808,323.836 271.003 C 322.994 271.339,322.990 271.358,323.741 271.379 C 324.987 271.416,325.683 271.018,325.683 270.271 C 325.683 269.814,325.940 269.581,326.446 269.581 C 326.903 269.581,327.285 269.288,327.400 268.848 C 327.505 268.446,327.982 268.018,328.459 267.898 C 328.936 267.779,329.326 267.470,329.326 267.213 C 329.326 266.956,329.982 266.483,330.783 266.163 C 331.585 265.842,332.240 265.427,332.240 265.240 C 332.240 265.054,332.732 264.409,333.333 263.808 C 333.934 263.207,334.426 262.468,334.426 262.166 C 334.426 261.863,334.754 261.512,335.155 261.384 C 335.556 261.257,335.883 260.836,335.883 260.449 C 335.883 259.567,335.858 259.575,334.973 260.726 M321.933 272.142 C 321.456 272.700,321.431 272.860,321.823 272.860 C 322.100 272.860,322.430 272.590,322.556 272.261 C 322.895 271.378,322.631 271.327,321.933 272.142 M319.961 273.385 C 319.799 273.674,319.258 274.074,318.759 274.273 C 317.858 274.632,317.860 274.635,318.976 274.658 C 319.835 274.676,320.200 274.466,320.517 273.770 C 320.953 272.812,320.469 272.477,319.961 273.385 M316.262 275.422 C 315.789 275.816,315.051 276.144,314.623 276.150 C 314.194 276.156,313.188 276.565,312.386 277.059 L 310.929 277.956 312.088 277.958 C 312.929 277.959,313.311 277.759,313.479 277.231 C 313.650 276.693,314.030 276.503,314.935 276.503 C 316.099 276.503,317.304 275.749,317.304 275.020 C 317.304 274.572,317.264 274.588,316.262 275.422 M308.033 278.668 C 307.681 279.057,306.959 279.443,306.428 279.524 C 305.776 279.624,305.950 279.690,306.970 279.727 C 308.174 279.770,308.513 279.642,308.659 279.084 C 308.759 278.700,309.229 278.312,309.703 278.223 C 310.537 278.064,310.535 278.058,309.619 278.010 C 309.094 277.982,308.389 278.274,308.033 278.668 M302.634 280.400 C 302.211 280.823,301.115 281.095,299.186 281.256 L 296.357 281.493 299.454 281.542 C 302.699 281.594,303.182 281.462,303.567 280.419 C 303.866 279.609,303.433 279.601,302.634 280.400 M294.353 282.167 C 293.852 282.440,292.951 282.785,292.350 282.933 C 291.293 283.193,291.287 283.206,292.168 283.327 C 293.711 283.540,295.977 282.906,296.109 282.225 C 296.249 281.494,295.624 281.473,294.353 282.167 M281.056 283.670 C 279.655 284.022,275.929 284.313,270.674 284.481 L 262.477 284.743 272.530 284.812 C 282.097 284.878,282.614 284.847,283.229 284.168 C 283.729 283.616,284.461 283.426,286.473 283.330 L 289.071 283.205 286.157 283.163 C 284.554 283.140,282.259 283.368,281.056 283.670 M99.909 360.565 C 154.959 360.615,245.041 360.615,300.091 360.565 C 355.141 360.514,310.100 360.472,200.000 360.472 C 89.900 360.472,44.859 360.514,99.909 360.565 " stroke="none" fill="#0cbc2c" fill-rule="evenodd"></path><path id="path2" d="M0.000 182.149 L 0.000 360.291 200.000 360.291 L 400.000 360.291 400.000 182.149 L 400.000 4.007 200.000 4.007 L 0.000 4.007 0.000 182.149 M277.413 73.953 C 277.553 74.178,280.697 74.317,285.634 74.317 L 293.630 74.317 294.421 75.228 C 295.171 76.090,295.414 76.138,299.007 76.138 C 302.466 76.138,302.817 76.201,302.987 76.851 C 303.144 77.454,303.548 77.581,305.594 77.671 C 307.701 77.764,308.061 77.884,308.374 78.597 C 308.672 79.276,309.021 79.417,310.403 79.417 C 311.730 79.417,312.235 79.604,312.864 80.328 C 313.465 81.018,314.012 81.239,315.127 81.239 C 316.196 81.239,316.663 81.413,316.834 81.876 C 317.153 82.743,317.670 83.048,318.828 83.055 C 319.482 83.058,319.882 83.301,320.036 83.789 C 320.185 84.258,320.588 84.517,321.165 84.517 C 321.688 84.517,322.161 84.784,322.298 85.155 C 322.606 85.989,323.130 86.326,324.126 86.333 C 324.585 86.336,325.197 86.734,325.534 87.250 C 325.863 87.750,326.374 88.160,326.670 88.160 C 326.966 88.160,327.292 88.479,327.394 88.868 C 327.495 89.258,327.931 89.627,328.361 89.688 C 328.851 89.758,329.187 90.106,329.260 90.619 C 329.335 91.146,329.628 91.439,330.080 91.439 C 330.467 91.439,330.783 91.689,330.783 91.994 C 330.783 92.300,331.193 92.706,331.694 92.896 C 332.237 93.103,332.605 93.530,332.605 93.955 C 332.605 94.416,332.894 94.708,333.424 94.783 C 333.951 94.858,334.286 95.193,334.360 95.719 C 334.434 96.234,334.729 96.539,335.155 96.539 C 335.580 96.539,335.876 96.844,335.949 97.359 C 336.024 97.886,336.358 98.220,336.885 98.295 C 337.479 98.379,337.705 98.656,337.705 99.297 C 337.705 99.939,337.905 100.182,338.434 100.182 C 338.848 100.182,339.162 100.425,339.162 100.746 C 339.162 101.056,339.550 101.671,340.025 102.112 C 340.500 102.553,341.005 103.447,341.147 104.098 C 341.330 104.933,341.612 105.282,342.105 105.282 C 342.679 105.282,342.805 105.545,342.805 106.740 C 342.805 107.541,342.957 108.197,343.143 108.197 C 343.825 108.197,344.627 109.369,344.627 110.366 C 344.627 111.057,344.846 111.448,345.302 111.567 C 345.803 111.698,346.041 112.227,346.225 113.613 C 346.428 115.145,346.603 115.483,347.189 115.483 C 347.806 115.483,347.905 115.736,347.905 117.304 C 347.905 118.849,348.010 119.126,348.595 119.126 C 349.479 119.126,349.727 119.809,349.727 122.252 C 349.727 123.778,349.853 124.226,350.282 124.226 C 351.010 124.226,351.548 125.699,351.548 127.692 C 351.548 128.835,351.730 129.391,352.186 129.646 C 352.699 129.934,352.861 130.679,353.018 133.483 C 353.180 136.386,353.332 137.050,353.929 137.486 C 354.570 137.955,354.657 138.533,354.758 143.048 C 354.864 147.731,354.928 148.131,355.669 148.704 L 356.466 149.321 356.466 177.061 L 356.466 204.800 355.647 205.464 C 354.869 206.094,354.827 206.383,354.827 211.102 C 354.827 215.973,354.632 217.005,353.494 218.142 C 353.159 218.477,353.005 219.641,353.005 221.840 C 353.005 224.644,352.913 225.111,352.274 225.548 C 351.689 225.947,351.495 226.613,351.310 228.863 C 351.121 231.164,350.955 231.718,350.403 231.893 C 349.846 232.070,349.727 232.483,349.727 234.243 C 349.727 236.292,349.170 237.523,348.244 237.523 C 348.058 237.523,347.905 238.440,347.905 239.561 C 347.905 241.276,347.793 241.628,347.193 241.784 C 346.672 241.921,346.415 242.413,346.234 243.619 C 346.061 244.772,345.789 245.318,345.326 245.439 C 344.847 245.565,344.634 246.028,344.555 247.123 C 344.470 248.280,344.253 248.718,343.625 248.993 C 343.024 249.257,342.805 249.660,342.805 250.500 C 342.805 251.321,342.547 251.816,341.894 252.243 C 341.393 252.572,340.984 253.180,340.984 253.594 C 340.984 254.035,340.689 254.426,340.275 254.534 C 339.798 254.659,339.531 255.094,339.456 255.866 C 339.381 256.633,339.078 257.130,338.539 257.366 C 338.097 257.560,337.687 258.052,337.629 258.459 C 337.565 258.906,337.199 259.245,336.703 259.315 C 336.117 259.398,335.883 259.677,335.883 260.292 C 335.883 260.833,335.613 261.239,335.155 261.384 C 334.754 261.512,334.426 261.863,334.426 262.166 C 334.426 262.468,333.934 263.207,333.333 263.808 C 332.732 264.409,332.240 265.054,332.240 265.240 C 332.240 265.427,331.585 265.842,330.783 266.163 C 329.982 266.483,329.326 266.956,329.326 267.213 C 329.326 267.470,328.936 267.779,328.459 267.898 C 327.982 268.018,327.505 268.446,327.400 268.848 C 327.285 269.288,326.903 269.581,326.446 269.581 C 325.940 269.581,325.683 269.814,325.683 270.271 C 325.683 271.022,325.008 271.403,323.674 271.403 C 323.138 271.403,322.731 271.675,322.587 272.131 C 322.459 272.532,322.035 272.860,321.643 272.860 C 321.238 272.860,320.753 273.251,320.517 273.770 C 320.179 274.512,319.841 274.681,318.703 274.681 C 317.934 274.681,317.304 274.833,317.304 275.020 C 317.304 275.749,316.099 276.503,314.935 276.503 C 314.030 276.503,313.650 276.693,313.479 277.231 C 313.320 277.732,312.928 277.960,312.225 277.960 C 310.268 277.960,308.832 278.421,308.652 279.108 C 308.504 279.675,308.106 279.781,306.139 279.781 C 304.246 279.781,303.758 279.902,303.567 280.419 C 303.184 281.458,302.707 281.591,299.362 281.597 C 296.833 281.602,296.175 281.711,296.175 282.128 C 296.175 283.033,295.511 283.153,289.684 283.295 C 284.634 283.419,283.922 283.514,283.237 284.158 C 282.475 284.874,281.833 284.882,225.771 284.882 L 169.076 284.882 168.509 284.072 C 167.637 282.827,167.642 116.563,168.514 115.691 C 169.100 115.105,216.516 114.769,218.005 115.340 C 218.530 115.542,218.582 121.858,218.577 184.284 L 218.572 253.005 242.164 253.005 L 265.756 253.005 266.576 252.186 C 267.319 251.442,267.742 251.366,271.134 251.366 C 274.662 251.366,274.893 251.320,275.232 250.546 C 275.541 249.842,275.912 249.712,277.869 249.618 C 279.847 249.524,280.146 249.417,280.146 248.799 C 280.146 248.292,280.396 248.087,281.015 248.087 C 281.539 248.087,282.120 247.727,282.480 247.177 C 282.886 246.557,283.409 246.266,284.119 246.266 C 284.867 246.266,285.217 246.053,285.359 245.510 C 285.467 245.095,285.891 244.667,286.300 244.560 C 286.709 244.453,287.142 244.056,287.262 243.677 C 287.382 243.297,287.798 242.987,288.185 242.987 C 288.644 242.987,288.889 242.736,288.889 242.266 C 288.889 241.800,289.212 241.463,289.800 241.315 C 290.388 241.168,290.710 240.831,290.710 240.364 C 290.710 239.947,291.019 239.560,291.439 239.450 C 291.946 239.317,292.168 238.953,292.168 238.251 C 292.168 237.577,292.470 237.044,293.078 236.646 C 293.644 236.275,293.989 235.707,293.989 235.146 C 293.989 234.492,294.186 234.244,294.705 234.244 C 295.290 234.244,295.466 233.908,295.665 232.409 C 295.830 231.163,296.126 230.458,296.588 230.211 C 297.097 229.938,297.268 229.435,297.268 228.211 C 297.268 226.802,297.394 226.528,298.179 226.230 C 299.030 225.906,299.089 225.717,299.089 223.345 C 299.089 221.196,299.204 220.726,299.839 220.281 C 300.471 219.839,300.622 219.229,300.807 216.387 C 300.986 213.610,301.136 212.988,301.656 212.852 C 302.217 212.705,302.302 211.985,302.424 206.375 C 302.548 200.704,302.635 199.982,303.285 199.265 C 304.416 198.015,304.417 157.344,303.286 156.517 C 302.625 156.033,302.553 155.457,302.425 149.579 C 302.294 143.590,302.240 143.169,301.598 143.169 C 301.078 143.169,300.896 142.882,300.852 141.985 C 300.571 136.363,300.607 136.560,299.818 136.353 C 299.199 136.191,299.088 135.854,299.084 134.111 C 299.078 131.894,298.890 131.404,297.905 131.041 C 297.403 130.856,297.268 130.378,297.268 128.791 C 297.268 127.059,297.171 126.776,296.581 126.776 C 296.048 126.776,295.839 126.416,295.653 125.175 C 295.479 124.012,295.218 123.523,294.701 123.387 C 294.277 123.277,293.989 122.889,293.989 122.429 C 293.989 121.941,293.654 121.530,293.078 121.311 C 292.577 121.121,292.168 120.723,292.168 120.426 C 292.168 120.130,291.758 119.478,291.257 118.977 C 290.756 118.476,290.346 117.731,290.346 117.321 C 290.346 116.833,290.108 116.576,289.657 116.576 C 289.226 116.576,288.882 116.235,288.739 115.665 C 288.575 115.009,288.265 114.754,287.633 114.754 C 286.758 114.754,285.610 113.913,285.610 113.271 C 285.610 113.085,285.267 112.933,284.847 112.933 C 284.405 112.933,284.009 112.642,283.904 112.240 C 283.774 111.746,283.265 111.480,282.116 111.307 C 280.853 111.118,280.510 110.916,280.510 110.360 C 280.510 109.747,280.246 109.654,278.515 109.654 C 276.789 109.654,276.439 109.531,275.923 108.743 C 275.360 107.884,275.142 107.832,272.055 107.832 C 269.091 107.832,268.766 107.764,268.594 107.104 C 268.404 106.379,268.097 106.375,212.891 106.375 L 157.379 106.375 157.287 195.537 L 157.195 284.699 132.895 284.793 L 108.595 284.887 108.382 283.700 C 108.266 283.048,108.217 242.883,108.274 194.444 L 108.379 106.375 75.228 106.370 C 56.995 106.368,41.723 106.270,41.291 106.154 C 40.208 105.864,40.244 106.490,40.354 89.526 L 40.453 74.317 41.516 74.317 C 42.101 74.317,42.681 74.153,42.805 73.953 C 43.117 73.448,277.101 73.448,277.413 73.953 " stroke="none" fill="#04b423" fill-rule="evenodd"></path><path id="path3" d="M0.000 3.279 C 0.000 3.521,66.910 3.643,200.000 3.643 C 333.090 3.643,400.000 3.521,400.000 3.279 C 400.000 3.036,333.090 2.914,200.000 2.914 C 66.910 2.914,0.000 3.036,0.000 3.279 M42.623 75.146 L 41.712 75.614 41.712 90.114 C 41.712 104.046,41.740 104.633,42.419 105.130 C 43.017 105.567,48.149 105.647,75.686 105.647 C 97.476 105.647,108.478 105.772,108.951 106.025 C 109.646 106.397,109.657 107.714,109.652 194.990 L 109.648 283.578 110.471 284.035 C 111.724 284.731,155.661 284.722,156.239 284.025 C 156.537 283.666,156.672 259.626,156.739 194.681 L 156.831 105.829 212.485 105.737 C 266.233 105.647,268.211 105.668,270.227 106.333 C 271.374 106.712,273.234 107.132,274.360 107.266 C 275.486 107.399,276.961 107.802,277.639 108.161 C 278.316 108.520,279.350 108.931,279.935 109.074 C 280.520 109.217,281.403 109.652,281.897 110.041 C 282.390 110.429,282.989 110.747,283.227 110.747 C 284.198 110.747,290.095 115.459,291.714 117.529 C 292.166 118.107,292.922 119.071,293.394 119.672 C 293.867 120.273,294.369 121.134,294.510 121.585 C 294.651 122.036,294.907 122.404,295.078 122.404 C 295.351 122.404,296.166 123.977,298.759 129.508 C 299.134 130.310,299.624 131.703,299.848 132.605 C 300.071 133.506,300.390 134.411,300.557 134.615 C 300.724 134.819,301.049 136.131,301.279 137.530 C 301.510 138.928,301.936 140.598,302.225 141.241 C 302.514 141.883,302.917 144.260,303.120 146.523 C 303.322 148.786,303.652 151.129,303.852 151.730 C 305.242 155.906,305.241 200.742,303.850 204.058 C 303.652 204.531,303.317 206.937,303.106 209.404 C 302.895 211.871,302.494 214.436,302.215 215.105 C 301.935 215.774,301.521 217.517,301.294 218.978 C 301.068 220.440,300.733 221.815,300.551 222.035 C 300.368 222.254,300.046 223.247,299.834 224.241 C 299.467 225.957,298.975 227.242,297.025 231.580 C 296.557 232.620,296.175 233.595,296.175 233.747 C 296.175 233.898,295.765 234.646,295.264 235.408 C 294.763 236.171,293.905 237.491,293.357 238.342 C 291.304 241.534,287.649 245.254,284.699 247.154 C 283.497 247.929,281.940 248.932,281.239 249.383 C 280.537 249.835,279.447 250.312,278.815 250.442 C 278.184 250.573,277.042 250.998,276.279 251.387 C 275.516 251.776,274.265 252.095,273.500 252.095 C 272.734 252.095,271.498 252.381,270.753 252.730 C 269.373 253.377,221.146 253.965,217.942 253.373 L 216.758 253.155 216.758 184.696 C 216.758 117.385,216.746 116.231,216.053 115.860 C 214.615 115.090,171.075 115.366,170.366 116.149 C 169.651 116.940,169.413 281.362,170.125 283.234 L 170.486 284.185 223.403 284.054 C 260.328 283.963,276.761 283.803,277.778 283.524 C 278.579 283.303,282.022 282.942,285.428 282.721 C 288.834 282.499,292.359 282.083,293.260 281.796 C 294.162 281.508,296.171 281.103,297.724 280.895 C 299.278 280.687,301.526 280.188,302.722 279.785 C 303.917 279.382,305.153 279.053,305.468 279.053 C 305.782 279.053,306.648 278.747,307.392 278.373 C 308.135 278.000,309.341 277.586,310.073 277.453 C 310.804 277.321,311.603 276.970,311.848 276.675 C 312.093 276.380,312.570 276.138,312.908 276.138 C 313.734 276.138,320.514 272.687,321.492 271.769 C 321.919 271.367,322.441 271.038,322.651 271.038 C 323.022 271.038,324.564 269.939,327.107 267.863 C 329.933 265.556,336.976 258.203,336.976 257.560 C 336.976 257.421,337.318 256.999,337.735 256.621 C 338.152 256.244,338.727 255.440,339.011 254.834 C 339.296 254.229,340.011 252.996,340.601 252.095 C 341.191 251.193,342.006 249.800,342.412 248.998 C 342.819 248.197,343.295 247.295,343.471 246.995 C 343.647 246.694,344.130 245.710,344.545 244.809 C 344.959 243.907,345.721 242.251,346.238 241.129 C 346.754 240.007,347.177 238.824,347.177 238.499 C 347.177 238.174,347.587 237.013,348.087 235.918 C 348.588 234.822,349.002 233.547,349.006 233.083 C 349.011 232.620,349.347 231.508,349.753 230.612 C 350.159 229.717,350.582 228.242,350.692 227.334 C 350.802 226.426,351.181 224.863,351.534 223.862 C 351.887 222.860,352.279 220.875,352.406 219.451 C 352.533 218.027,352.893 216.142,353.206 215.262 C 353.519 214.382,353.919 211.612,354.096 209.107 C 354.272 206.603,354.707 203.078,355.061 201.275 C 356.153 195.714,356.037 157.755,354.910 151.850 C 354.464 149.511,354.098 146.637,354.098 145.463 C 354.098 144.289,353.846 142.432,353.538 141.336 C 353.229 140.241,352.802 138.115,352.589 136.612 C 352.376 135.109,351.891 132.961,351.511 131.839 C 351.131 130.716,350.820 129.380,350.820 128.869 C 350.820 128.359,350.411 127.064,349.912 125.992 C 349.414 124.921,349.004 123.688,349.002 123.254 C 349.000 122.820,348.588 121.648,348.087 120.651 C 347.587 119.654,347.177 118.583,347.177 118.272 C 347.177 117.961,346.767 116.936,346.266 115.994 C 345.765 115.052,345.355 113.988,345.355 113.628 C 345.355 113.269,345.178 112.866,344.961 112.732 C 344.744 112.598,344.248 111.809,343.859 110.980 C 342.503 108.091,338.155 101.201,336.386 99.142 C 333.179 95.405,326.655 89.219,325.046 88.389 C 324.394 88.052,323.862 87.618,323.862 87.422 C 323.862 87.227,323.628 87.067,323.343 87.067 C 323.058 87.067,322.338 86.658,321.742 86.157 C 321.147 85.656,320.501 85.246,320.308 85.246 C 320.114 85.246,319.376 84.852,318.668 84.372 C 317.959 83.891,316.994 83.380,316.522 83.236 C 316.051 83.092,315.419 82.763,315.118 82.504 C 314.818 82.246,313.916 81.853,313.115 81.631 C 312.313 81.409,311.339 80.984,310.950 80.686 C 310.561 80.389,309.939 80.146,309.567 80.146 C 309.195 80.146,308.230 79.827,307.424 79.438 C 306.618 79.048,305.028 78.538,303.890 78.304 C 302.752 78.070,301.501 77.709,301.110 77.503 C 300.719 77.296,298.752 76.909,296.739 76.642 C 294.726 76.375,292.177 75.870,291.075 75.519 C 288.425 74.674,44.253 74.309,42.623 75.146 M289.019 76.053 C 289.591 76.307,291.722 76.693,293.755 76.912 C 295.787 77.130,298.015 77.542,298.706 77.828 C 299.397 78.114,301.036 78.501,302.349 78.689 C 303.662 78.877,305.385 79.364,306.179 79.770 C 306.973 80.177,307.956 80.511,308.365 80.511 C 308.773 80.512,309.644 80.840,310.300 81.240 C 310.956 81.640,311.694 81.968,311.940 81.969 C 312.185 81.969,313.370 82.461,314.572 83.060 C 315.774 83.660,316.926 84.151,317.132 84.152 C 317.338 84.152,317.787 84.481,318.130 84.882 C 318.474 85.282,319.058 85.610,319.430 85.610 C 319.802 85.610,320.389 85.923,320.735 86.306 C 321.082 86.689,321.763 87.102,322.249 87.224 C 322.735 87.346,323.133 87.602,323.133 87.794 C 323.133 87.985,323.666 88.413,324.317 88.745 C 325.535 89.365,326.091 89.802,327.863 91.530 C 328.428 92.081,328.973 92.532,329.076 92.532 C 329.442 92.532,333.194 96.380,333.432 96.999 C 333.566 97.347,333.926 97.632,334.233 97.632 C 334.539 97.632,334.791 97.773,334.791 97.946 C 334.791 98.258,336.393 100.493,337.514 101.745 C 337.835 102.103,338.282 102.800,338.506 103.293 C 338.731 103.786,339.050 104.189,339.216 104.189 C 339.381 104.189,339.755 104.760,340.046 105.456 C 340.337 106.153,340.758 106.932,340.981 107.187 C 341.735 108.048,345.355 115.247,345.355 115.885 C 345.355 116.117,345.665 116.819,346.044 117.443 C 346.424 118.068,346.855 119.153,347.004 119.854 C 347.152 120.556,347.580 121.701,347.954 122.399 C 348.328 123.097,348.634 124.083,348.634 124.590 C 348.634 125.097,348.939 126.083,349.312 126.781 C 349.684 127.480,350.187 129.195,350.430 130.594 C 350.672 131.993,351.026 133.326,351.217 133.555 C 351.408 133.785,351.732 135.428,351.938 137.205 C 352.144 138.983,352.554 141.257,352.849 142.259 C 353.144 143.260,353.632 146.785,353.934 150.091 C 354.236 153.397,354.652 157.659,354.860 159.563 C 355.332 163.901,355.062 195.929,354.536 197.996 C 354.332 198.798,353.977 202.200,353.748 205.558 C 353.518 208.915,353.110 212.194,352.840 212.844 C 352.571 213.494,352.230 215.337,352.083 216.940 C 351.937 218.543,351.531 220.756,351.182 221.858 C 350.832 222.960,350.425 224.763,350.276 225.865 C 350.127 226.967,349.794 228.282,349.536 228.787 C 349.277 229.292,348.893 230.641,348.682 231.784 C 348.470 232.927,348.066 234.236,347.783 234.691 C 347.499 235.146,347.071 236.339,346.831 237.341 C 346.590 238.342,346.178 239.408,345.915 239.709 C 345.652 240.009,345.315 240.829,345.166 241.530 C 345.018 242.231,344.589 243.196,344.215 243.674 C 343.840 244.152,343.534 244.826,343.534 245.173 C 343.534 245.520,343.228 246.194,342.855 246.672 C 342.482 247.150,342.053 247.951,341.903 248.452 C 341.752 248.953,341.338 249.690,340.984 250.091 C 340.629 250.492,340.218 251.230,340.070 251.730 C 339.921 252.231,339.493 252.934,339.117 253.293 C 338.741 253.651,338.434 254.080,338.434 254.245 C 338.434 254.410,337.947 255.182,337.353 255.961 C 336.759 256.740,335.980 257.769,335.623 258.248 C 335.265 258.727,334.604 259.483,334.153 259.929 C 333.702 260.375,333.333 260.824,333.333 260.928 C 333.333 261.274,328.936 265.574,328.582 265.574 C 328.390 265.574,328.233 265.820,328.233 266.120 C 328.233 266.421,328.050 266.667,327.826 266.667 C 327.602 266.667,326.870 267.117,326.200 267.668 C 323.927 269.537,322.953 270.207,322.131 270.465 C 321.680 270.607,321.311 270.861,321.311 271.030 C 321.311 271.199,320.574 271.695,319.672 272.131 C 318.770 272.568,318.033 273.074,318.033 273.257 C 318.033 273.439,317.655 273.588,317.193 273.588 C 316.731 273.588,315.797 273.998,315.118 274.499 C 314.439 275.000,313.580 275.410,313.209 275.410 C 312.838 275.410,311.765 275.820,310.824 276.321 C 309.883 276.821,308.782 277.231,308.376 277.231 C 307.971 277.231,307.028 277.559,306.280 277.960 C 305.532 278.361,304.516 278.689,304.022 278.689 C 303.528 278.689,301.848 279.096,300.287 279.595 C 298.727 280.093,296.794 280.509,295.993 280.518 C 294.430 280.537,290.361 281.326,289.691 281.740 C 289.313 281.973,286.505 282.141,267.760 283.053 C 263.852 283.243,240.497 283.409,215.859 283.422 L 171.063 283.447 170.776 282.673 C 170.619 282.248,170.532 244.661,170.582 199.146 L 170.674 116.393 193.260 116.393 L 215.847 116.393 215.939 184.747 C 216.024 247.795,216.078 253.139,216.633 253.599 C 217.813 254.578,269.131 254.309,272.131 253.309 C 273.434 252.875,275.126 252.414,275.892 252.286 C 276.658 252.157,277.805 251.734,278.442 251.346 C 279.078 250.958,279.973 250.640,280.430 250.639 C 280.887 250.638,281.351 250.404,281.460 250.119 C 281.570 249.834,282.302 249.344,283.088 249.029 C 283.874 248.715,284.517 248.319,284.517 248.149 C 284.517 247.979,284.891 247.670,285.347 247.462 C 287.340 246.554,292.436 241.481,293.333 239.512 C 293.558 239.019,293.877 238.616,294.043 238.616 C 294.208 238.616,294.575 238.062,294.858 237.385 C 295.141 236.708,295.541 236.050,295.747 235.923 C 295.953 235.795,296.321 235.079,296.566 234.330 C 296.810 233.582,297.313 232.578,297.685 232.100 C 298.057 231.622,298.361 230.866,298.361 230.419 C 298.361 229.972,298.683 229.197,299.077 228.696 C 299.471 228.195,299.904 227.066,300.039 226.187 C 300.174 225.309,300.566 224.016,300.911 223.315 C 301.255 222.614,301.640 221.127,301.766 220.010 C 301.892 218.894,302.248 217.472,302.559 216.850 C 302.869 216.229,303.277 214.109,303.466 212.140 C 303.655 210.172,304.060 207.577,304.366 206.375 C 306.195 199.178,306.199 155.918,304.370 149.362 C 304.063 148.260,303.666 145.850,303.489 144.007 C 303.312 142.163,302.895 140.114,302.562 139.453 C 302.229 138.792,301.866 137.432,301.755 136.430 C 301.645 135.428,301.245 134.066,300.868 133.404 C 300.491 132.741,300.182 131.842,300.182 131.405 C 300.182 130.672,298.997 127.847,297.782 125.683 C 297.501 125.182,296.999 124.158,296.667 123.406 C 296.336 122.655,295.921 122.040,295.746 122.040 C 295.571 122.040,295.265 121.611,295.066 121.088 C 294.867 120.564,294.338 119.661,293.891 119.081 C 291.488 115.964,285.192 110.383,284.080 110.383 C 283.797 110.383,283.010 109.973,282.332 109.472 C 281.653 108.971,280.861 108.561,280.573 108.561 C 280.285 108.561,279.538 108.248,278.914 107.866 C 278.289 107.484,276.794 107.007,275.592 106.806 C 274.390 106.605,272.668 106.140,271.767 105.773 C 270.207 105.138,267.404 105.101,213.772 104.992 L 157.417 104.878 156.668 105.627 L 155.920 106.375 155.920 195.082 L 155.920 283.789 133.333 283.789 L 110.747 283.789 110.747 195.152 C 110.747 119.182,110.673 106.413,110.230 105.807 C 109.725 105.118,108.896 105.098,76.391 105.002 L 43.068 104.903 42.851 104.091 C 42.547 102.959,42.566 75.952,42.871 75.648 C 43.370 75.148,287.885 75.551,289.019 76.053 M99.909 361.293 C 154.959 361.344,245.041 361.344,300.091 361.293 C 355.141 361.242,310.100 361.201,200.000 361.201 C 89.900 361.201,44.859 361.242,99.909 361.293 " stroke="none" fill="#84d48c" fill-rule="evenodd"></path><path id="path4" d="M99.909 3.916 C 154.959 3.967,245.041 3.967,300.091 3.916 C 355.141 3.865,310.100 3.824,200.000 3.824 C 89.900 3.824,44.859 3.865,99.909 3.916 M41.894 74.782 L 40.984 75.249 40.888 90.036 C 40.802 103.456,40.849 104.869,41.400 105.325 C 41.902 105.743,47.718 105.860,75.375 106.011 L 108.743 106.193 108.925 195.143 C 109.026 244.065,109.244 284.229,109.411 284.396 C 109.982 284.967,156.123 284.969,156.597 284.398 C 156.904 284.028,157.035 260.818,157.103 195.046 L 157.195 106.193 212.568 106.093 C 266.869 105.995,267.970 106.006,269.399 106.704 C 270.200 107.096,272.086 107.533,273.588 107.676 C 275.376 107.846,276.621 108.170,277.189 108.613 C 277.667 108.985,278.519 109.290,279.083 109.290 C 279.672 109.290,280.527 109.678,281.091 110.200 C 281.631 110.701,282.431 111.111,282.868 111.111 C 283.304 111.111,284.047 111.521,284.517 112.022 C 284.988 112.523,285.526 112.933,285.712 112.933 C 286.032 112.933,286.694 113.428,289.519 115.779 C 290.165 116.317,290.698 116.957,290.703 117.200 C 290.707 117.444,291.038 117.818,291.439 118.033 C 291.840 118.247,292.168 118.637,292.168 118.900 C 292.168 119.162,292.512 119.689,292.933 120.070 C 293.355 120.451,293.951 121.255,294.258 121.857 C 294.565 122.459,295.040 123.082,295.313 123.242 C 295.587 123.402,295.811 123.935,295.811 124.426 C 295.811 124.917,296.129 125.637,296.519 126.027 C 296.908 126.417,297.336 127.313,297.468 128.019 C 297.600 128.725,297.998 129.637,298.352 130.045 C 298.706 130.453,299.100 131.565,299.227 132.516 C 299.355 133.466,299.785 134.736,300.182 135.337 C 300.632 136.017,300.908 137.050,300.910 138.069 C 300.916 139.970,301.528 142.441,301.994 142.441 C 302.170 142.441,302.389 142.728,302.481 143.078 C 302.632 143.656,302.652 143.652,302.690 143.042 C 302.713 142.672,302.500 141.852,302.216 141.221 C 301.931 140.589,301.510 138.928,301.279 137.530 C 301.049 136.131,300.724 134.819,300.557 134.615 C 300.390 134.411,300.071 133.506,299.848 132.605 C 299.624 131.703,299.134 130.310,298.759 129.508 C 296.166 123.977,295.351 122.404,295.078 122.404 C 294.907 122.404,294.651 122.036,294.510 121.585 C 294.369 121.134,293.867 120.273,293.394 119.672 C 292.922 119.071,292.166 118.107,291.714 117.529 C 290.095 115.459,284.198 110.747,283.227 110.747 C 282.989 110.747,282.390 110.429,281.897 110.041 C 281.403 109.652,280.520 109.217,279.935 109.074 C 279.350 108.931,278.316 108.520,277.639 108.161 C 276.961 107.802,275.486 107.399,274.360 107.266 C 273.234 107.132,271.374 106.712,270.227 106.333 C 268.211 105.668,266.233 105.647,212.485 105.737 L 156.831 105.829 156.739 194.681 C 156.672 259.626,156.537 283.666,156.239 284.025 C 155.661 284.722,111.724 284.731,110.471 284.035 L 109.648 283.578 109.652 194.990 C 109.657 107.714,109.646 106.397,108.951 106.025 C 108.478 105.772,97.476 105.647,75.686 105.647 C 48.149 105.647,43.017 105.567,42.419 105.130 C 41.740 104.633,41.712 104.046,41.712 90.114 L 41.712 75.614 42.623 75.146 C 44.253 74.309,288.425 74.674,291.075 75.519 C 292.177 75.870,294.726 76.375,296.739 76.642 C 298.752 76.909,300.719 77.296,301.110 77.503 C 301.501 77.709,302.752 78.070,303.890 78.304 C 305.028 78.538,306.618 79.048,307.424 79.438 C 308.230 79.827,309.195 80.146,309.567 80.146 C 309.939 80.146,310.561 80.389,310.950 80.686 C 311.339 80.984,312.313 81.409,313.115 81.631 C 313.916 81.853,314.818 82.246,315.118 82.504 C 315.419 82.763,316.051 83.092,316.522 83.236 C 316.994 83.380,317.959 83.891,318.668 84.372 C 319.376 84.852,320.114 85.246,320.308 85.246 C 320.501 85.246,321.147 85.656,321.742 86.157 C 322.338 86.658,323.058 87.067,323.343 87.067 C 323.628 87.067,323.862 87.227,323.862 87.422 C 323.862 87.618,324.394 88.052,325.046 88.389 C 326.655 89.219,333.179 95.405,336.386 99.142 C 338.155 101.201,342.503 108.091,343.859 110.980 C 344.248 111.809,344.744 112.598,344.961 112.732 C 345.178 112.866,345.355 113.269,345.355 113.628 C 345.355 113.988,345.765 115.052,346.266 115.994 C 346.767 116.936,347.177 117.961,347.177 118.272 C 347.177 118.583,347.587 119.654,348.087 120.651 C 348.588 121.648,349.000 122.820,349.002 123.254 C 349.004 123.688,349.414 124.921,349.912 125.992 C 350.411 127.064,350.820 128.359,350.820 128.869 C 350.820 129.380,351.131 130.716,351.511 131.839 C 351.891 132.961,352.376 135.109,352.589 136.612 C 352.802 138.115,353.229 140.241,353.538 141.336 C 353.846 142.432,354.098 144.289,354.098 145.463 C 354.098 146.637,354.464 149.511,354.910 151.850 C 356.037 157.755,356.153 195.714,355.061 201.275 C 354.707 203.078,354.272 206.603,354.096 209.107 C 353.919 211.612,353.519 214.382,353.206 215.262 C 352.893 216.142,352.533 218.027,352.406 219.451 C 352.279 220.875,351.887 222.860,351.534 223.862 C 351.181 224.863,350.802 226.426,350.692 227.334 C 350.582 228.242,350.159 229.717,349.753 230.612 C 349.347 231.508,349.011 232.620,349.006 233.083 C 349.002 233.547,348.588 234.822,348.087 235.918 C 347.587 237.013,347.177 238.174,347.177 238.499 C 347.177 238.824,346.754 240.007,346.238 241.129 C 345.721 242.251,344.959 243.907,344.545 244.809 C 344.130 245.710,343.647 246.694,343.471 246.995 C 343.295 247.295,342.819 248.197,342.412 248.998 C 342.006 249.800,341.191 251.193,340.601 252.095 C 340.011 252.996,339.296 254.229,339.011 254.834 C 338.727 255.440,338.152 256.244,337.735 256.621 C 337.318 256.999,336.976 257.421,336.976 257.560 C 336.976 258.203,329.933 265.556,327.107 267.863 C 324.564 269.939,323.022 271.038,322.651 271.038 C 322.441 271.038,321.919 271.367,321.492 271.769 C 320.514 272.687,313.734 276.138,312.908 276.138 C 312.570 276.138,312.093 276.380,311.848 276.675 C 311.603 276.970,310.804 277.321,310.073 277.453 C 309.341 277.586,308.135 278.000,307.392 278.373 C 306.648 278.747,305.782 279.053,305.468 279.053 C 305.153 279.053,303.917 279.382,302.722 279.785 C 301.526 280.188,299.278 280.687,297.724 280.895 C 296.171 281.103,294.162 281.508,293.260 281.796 C 292.359 282.083,288.834 282.499,285.428 282.721 C 282.022 282.942,278.579 283.303,277.778 283.524 C 276.761 283.803,260.328 283.963,223.403 284.054 L 170.486 284.185 170.125 283.234 C 169.358 281.218,169.658 116.784,170.429 116.086 C 171.232 115.359,214.715 115.144,216.053 115.860 C 216.746 116.231,216.758 117.385,216.758 184.696 L 216.758 253.155 217.942 253.373 C 221.146 253.965,269.373 253.377,270.753 252.730 C 271.498 252.381,272.734 252.095,273.500 252.095 C 274.265 252.095,275.516 251.776,276.279 251.387 C 277.042 250.998,278.184 250.573,278.815 250.442 C 279.447 250.312,280.537 249.835,281.239 249.383 C 281.940 248.932,283.497 247.929,284.699 247.154 C 287.681 245.234,291.290 241.550,293.421 238.251 C 294.003 237.350,294.861 236.029,295.327 235.317 C 295.793 234.605,296.175 233.898,296.175 233.747 C 296.175 233.595,296.557 232.620,297.025 231.580 C 298.975 227.242,299.467 225.957,299.834 224.241 C 300.046 223.247,300.368 222.254,300.551 222.035 C 300.733 221.815,301.068 220.440,301.294 218.978 C 301.521 217.517,301.937 215.769,302.219 215.094 C 302.501 214.419,302.732 213.495,302.732 213.041 C 302.732 211.042,301.220 215.093,301.022 217.623 C 300.904 219.131,300.546 220.677,300.168 221.311 C 299.810 221.913,299.399 223.224,299.254 224.226 C 299.110 225.228,298.708 226.457,298.362 226.958 C 298.016 227.459,297.615 228.516,297.470 229.307 C 297.326 230.097,296.893 231.144,296.509 231.633 C 296.125 232.121,295.811 232.899,295.811 233.362 C 295.811 233.824,295.494 234.424,295.108 234.695 C 294.721 234.966,294.297 235.619,294.164 236.146 C 294.032 236.673,293.610 237.388,293.228 237.735 C 292.845 238.081,292.532 238.538,292.532 238.750 C 292.532 239.159,292.284 239.441,289.133 242.623 C 285.594 246.197,285.386 246.362,282.290 248.045 C 281.411 248.523,280.590 249.073,280.465 249.268 C 280.340 249.462,279.451 249.769,278.489 249.948 C 277.527 250.128,276.479 250.511,276.161 250.800 C 275.842 251.088,274.126 251.505,272.349 251.726 C 270.571 251.947,268.654 252.367,268.087 252.660 C 267.208 253.115,263.455 253.179,242.448 253.099 L 217.839 253.005 217.841 184.882 C 217.842 147.413,217.718 116.563,217.566 116.325 C 217.414 116.087,216.831 115.718,216.271 115.505 C 214.934 114.997,171.666 114.967,170.333 115.474 L 169.399 115.829 169.399 199.800 L 169.399 283.772 170.307 284.367 C 171.693 285.275,275.874 284.923,279.235 283.999 C 280.538 283.641,283.875 283.280,287.497 283.106 C 292.355 282.872,293.770 282.684,294.559 282.167 C 295.201 281.747,296.676 281.427,298.776 281.253 C 300.829 281.083,302.237 280.782,302.642 280.427 C 302.992 280.120,304.205 279.757,305.336 279.621 C 306.673 279.461,307.619 279.126,308.034 278.667 C 308.404 278.258,309.150 277.959,309.801 277.958 C 310.422 277.957,311.585 277.552,312.386 277.059 C 313.188 276.565,314.190 276.156,314.614 276.150 C 315.038 276.144,315.775 275.834,316.253 275.463 C 316.731 275.091,317.737 274.587,318.488 274.342 C 319.240 274.097,319.854 273.736,319.854 273.541 C 319.854 273.346,320.346 273.015,320.947 272.805 C 321.548 272.596,322.040 272.268,322.040 272.077 C 322.040 271.886,322.652 271.474,323.400 271.161 C 324.148 270.849,324.977 270.283,325.242 269.905 C 325.507 269.526,325.903 269.217,326.121 269.217 C 326.339 269.217,326.862 268.880,327.284 268.468 C 334.922 261.007,335.883 259.988,335.883 259.350 C 335.883 259.166,336.129 259.016,336.430 259.016 C 336.730 259.016,336.976 258.882,336.976 258.718 C 336.976 258.553,337.468 257.868,338.069 257.195 C 338.670 256.522,339.165 255.795,339.169 255.581 C 339.175 255.210,340.724 252.719,341.893 251.201 C 342.194 250.810,342.441 250.309,342.441 250.088 C 342.441 249.867,342.851 249.131,343.352 248.452 C 343.852 247.773,344.262 246.943,344.262 246.609 C 344.262 246.274,344.580 245.596,344.968 245.102 C 345.357 244.609,345.788 243.726,345.926 243.141 C 346.064 242.555,346.464 241.585,346.815 240.984 C 347.165 240.383,347.568 239.235,347.710 238.434 C 347.851 237.632,348.211 236.704,348.510 236.371 C 348.808 236.039,349.176 234.853,349.328 233.736 C 349.479 232.619,349.865 231.416,350.184 231.062 C 350.507 230.705,350.883 229.366,351.030 228.051 C 351.176 226.749,351.581 225.109,351.931 224.408 C 352.280 223.707,352.674 221.837,352.806 220.252 C 352.938 218.668,353.307 216.868,353.625 216.253 C 354.020 215.488,354.290 213.519,354.478 210.026 C 354.686 206.154,354.916 204.610,355.427 203.643 C 356.465 201.681,356.473 152.904,355.435 150.638 C 354.982 149.647,354.667 147.699,354.453 144.556 C 354.254 141.635,353.928 139.525,353.568 138.829 C 353.254 138.223,352.898 136.451,352.776 134.892 C 352.654 133.334,352.317 131.679,352.027 131.215 C 351.737 130.751,351.337 129.359,351.138 128.123 C 350.939 126.886,350.541 125.615,350.254 125.298 C 349.968 124.981,349.566 123.843,349.362 122.769 C 349.159 121.695,348.755 120.554,348.466 120.234 C 348.177 119.915,347.827 118.945,347.688 118.080 C 347.550 117.215,347.154 116.236,346.809 115.904 C 346.463 115.572,346.068 114.677,345.930 113.915 C 345.792 113.153,345.447 112.441,345.163 112.332 C 344.879 112.223,344.543 111.581,344.416 110.906 C 344.289 110.230,343.793 109.254,343.313 108.736 C 342.833 108.218,342.441 107.499,342.441 107.138 C 342.441 106.777,342.031 106.039,341.530 105.499 C 341.029 104.958,340.619 104.279,340.619 103.989 C 340.619 103.698,340.460 103.461,340.264 103.461 C 340.069 103.461,339.638 102.928,339.306 102.277 C 338.975 101.626,338.487 100.847,338.222 100.546 C 336.200 98.249,335.569 97.523,334.608 96.388 C 334.007 95.679,333.330 95.094,333.103 95.090 C 332.876 95.086,332.601 94.742,332.492 94.326 C 332.383 93.911,331.974 93.487,331.583 93.385 C 331.192 93.282,330.692 92.803,330.471 92.319 C 330.251 91.835,329.912 91.439,329.720 91.439 C 329.527 91.439,328.630 90.742,327.726 89.891 C 325.694 87.975,324.143 86.785,323.261 86.462 C 322.890 86.326,322.123 85.833,321.557 85.366 C 320.990 84.899,320.294 84.517,320.008 84.517 C 319.723 84.517,319.162 84.189,318.761 83.789 C 318.361 83.388,317.730 83.060,317.361 83.060 C 316.991 83.060,316.398 82.739,316.044 82.348 C 315.689 81.956,314.677 81.527,313.796 81.395 C 312.914 81.262,312.057 80.911,311.890 80.613 C 311.724 80.316,310.802 79.926,309.843 79.747 C 308.883 79.567,307.915 79.175,307.692 78.875 C 307.469 78.574,306.466 78.224,305.464 78.096 C 304.463 77.968,302.960 77.559,302.124 77.187 C 301.256 76.801,299.228 76.407,297.388 76.268 C 295.216 76.103,293.698 75.776,292.714 75.261 L 291.257 74.499 167.031 74.407 C 66.565 74.333,42.631 74.404,41.894 74.782 M302.893 148.087 C 302.971 151.186,303.190 152.936,303.646 154.098 C 304.749 156.910,304.644 198.790,303.525 202.315 C 302.905 204.267,302.743 205.620,302.782 208.508 L 302.831 212.204 303.134 208.743 C 303.301 206.840,303.615 204.754,303.833 204.109 C 305.256 199.893,305.255 156.598,303.832 151.663 C 303.612 150.899,303.285 148.798,303.107 146.995 L 302.782 143.716 302.893 148.087 M99.909 360.929 C 154.959 360.980,245.041 360.980,300.091 360.929 C 355.141 360.878,310.100 360.837,200.000 360.837 C 89.900 360.837,44.859 360.878,99.909 360.929 " stroke="none" fill="#56ca66" fill-rule="evenodd"></path></g></svg>