<svg id="svg" version="1.1" xmlns="http://www.w3.org/2000/svg" xmlns:xlink="http://www.w3.org/1999/xlink" width="400" height="400" viewBox="0, 0, 400,400"><g id="svgg"><path id="path0" d="M116.814 87.508 C 116.119 88.071,115.785 88.989,115.389 91.422 C 115.106 93.170,114.601 95.590,114.269 96.800 C 113.936 98.010,113.459 99.990,113.209 101.200 C 112.275 105.724,111.322 109.844,110.896 111.200 C 110.654 111.970,110.342 113.410,110.202 114.400 C 110.063 115.390,109.621 117.460,109.220 119.000 C 107.718 124.775,107.077 127.474,106.611 130.000 C 106.346 131.430,105.930 133.230,105.685 134.000 C 105.439 134.770,105.041 136.570,104.798 138.000 C 104.556 139.430,104.109 141.320,103.806 142.200 C 103.502 143.080,103.141 144.775,103.004 145.967 C 102.867 147.159,102.493 148.759,102.174 149.523 C 101.855 150.288,101.481 151.922,101.344 153.156 C 101.207 154.390,100.835 156.030,100.517 156.800 C 100.199 157.570,99.697 159.550,99.400 161.200 C 99.104 162.850,98.592 165.190,98.263 166.400 C 97.933 167.610,97.479 169.500,97.254 170.600 C 96.153 175.979,95.515 178.757,95.003 180.400 C 94.695 181.390,94.251 183.410,94.015 184.890 C 93.780 186.369,93.398 188.079,93.165 188.690 C 92.933 189.300,92.508 191.060,92.222 192.600 C 91.712 195.340,90.790 199.408,89.954 202.600 C 89.724 203.480,89.284 205.515,88.976 207.121 C 88.669 208.728,88.143 210.849,87.809 211.835 C 87.474 212.821,87.198 214.027,87.195 214.514 C 87.193 215.001,86.904 216.390,86.554 217.600 C 86.203 218.810,85.664 221.150,85.355 222.800 C 85.047 224.450,84.535 226.610,84.218 227.600 C 83.901 228.590,83.517 230.300,83.364 231.400 C 83.211 232.500,82.835 234.116,82.529 234.991 C 82.222 235.866,81.794 237.832,81.577 239.360 C 81.361 240.888,81.021 242.334,80.822 242.574 C 80.623 242.813,80.187 244.575,79.853 246.488 C 79.519 248.401,79.074 250.289,78.863 250.683 C 78.653 251.078,78.347 252.480,78.183 253.800 C 78.019 255.120,77.551 257.173,77.143 258.363 C 76.734 259.552,76.400 261.005,76.400 261.592 C 76.400 262.179,75.950 264.162,75.400 266.000 C 74.850 267.838,74.400 269.827,74.400 270.420 C 74.400 271.014,74.127 272.274,73.793 273.221 C 73.458 274.168,72.990 276.216,72.751 277.771 C 72.512 279.327,72.150 280.805,71.946 281.056 C 71.743 281.306,71.328 283.041,71.025 284.912 C 70.723 286.782,70.278 288.681,70.037 289.130 C 69.543 290.053,69.441 292.799,69.900 292.801 C 109.422 292.981,141.839 292.764,142.079 292.318 C 142.615 291.324,143.980 286.181,144.367 283.697 C 144.581 282.320,144.880 280.994,145.031 280.750 C 145.182 280.505,145.629 278.751,146.025 276.853 C 146.420 274.954,146.930 272.680,147.158 271.800 C 147.921 268.860,148.895 264.621,149.274 262.600 C 149.480 261.500,149.997 259.430,150.424 258.000 C 150.850 256.570,151.318 254.410,151.463 253.200 C 151.608 251.990,151.948 250.460,152.218 249.800 C 152.488 249.140,152.930 247.250,153.201 245.600 C 153.471 243.950,153.847 242.406,154.037 242.169 C 154.228 241.932,154.561 240.483,154.779 238.948 C 154.997 237.414,155.433 235.538,155.748 234.779 C 156.064 234.021,156.455 232.326,156.618 231.012 C 156.781 229.699,157.141 228.079,157.419 227.412 C 157.697 226.746,158.122 225.130,158.363 223.823 C 158.959 220.592,157.149 220.813,183.038 220.806 C 209.099 220.799,206.974 220.544,208.006 223.800 C 208.285 224.680,208.758 225.755,209.057 226.189 C 209.356 226.623,209.602 227.253,209.604 227.589 C 209.606 227.925,210.050 229.100,210.591 230.200 C 211.132 231.300,211.581 232.470,211.589 232.800 C 211.597 233.130,211.962 233.989,212.401 234.710 C 212.841 235.430,213.200 236.331,213.200 236.713 C 213.200 237.094,213.650 238.252,214.200 239.285 C 214.750 240.318,215.201 241.487,215.203 241.882 C 215.204 242.277,215.563 243.140,216.000 243.800 C 216.437 244.460,216.796 245.277,216.797 245.615 C 216.799 245.954,217.160 246.937,217.600 247.800 C 218.040 248.663,218.400 249.563,218.400 249.800 C 218.400 250.037,218.764 250.944,219.208 251.815 C 219.653 252.687,220.182 253.940,220.384 254.600 C 221.126 257.022,222.863 261.411,223.226 261.780 C 223.432 261.989,223.602 262.439,223.604 262.780 C 223.606 263.121,224.050 264.300,224.591 265.400 C 225.132 266.500,225.581 267.670,225.589 268.000 C 225.597 268.330,225.941 269.155,226.355 269.833 C 226.769 270.512,227.239 271.667,227.400 272.400 C 227.561 273.133,228.031 274.288,228.445 274.967 C 228.859 275.645,229.198 276.458,229.199 276.774 C 229.199 277.089,229.550 278.079,229.977 278.974 C 230.707 280.502,231.020 281.297,232.790 286.128 C 233.178 287.188,233.699 288.259,233.948 288.508 C 234.197 288.757,234.402 289.329,234.404 289.780 C 234.406 290.231,234.850 291.500,235.391 292.600 C 235.932 293.700,236.381 294.875,236.387 295.211 C 236.394 295.547,236.650 296.179,236.955 296.614 C 237.260 297.050,237.745 298.215,238.032 299.203 C 238.320 300.192,238.770 301.360,239.033 301.800 C 239.296 302.240,239.737 303.320,240.012 304.200 C 240.288 305.080,240.758 306.155,241.057 306.589 C 241.356 307.023,241.600 307.619,241.600 307.914 C 241.600 308.832,243.633 312.798,244.129 312.846 C 245.004 312.932,246.140 312.727,247.172 312.298 C 247.738 312.063,249.280 311.564,250.600 311.188 C 251.920 310.812,253.540 310.320,254.200 310.094 C 258.362 308.671,259.652 308.271,261.795 307.737 C 263.112 307.409,264.372 306.997,264.595 306.822 C 264.818 306.648,265.990 306.277,267.200 305.999 C 268.410 305.720,269.850 305.271,270.400 305.000 C 270.950 304.729,272.120 304.377,273.000 304.217 C 273.880 304.058,275.355 303.584,276.278 303.164 C 277.201 302.744,278.374 302.400,278.884 302.400 C 279.394 302.400,280.439 302.067,281.206 301.661 C 281.973 301.254,283.342 300.806,284.248 300.664 C 285.155 300.523,286.685 300.049,287.648 299.612 C 288.612 299.175,289.850 298.813,290.400 298.806 C 290.950 298.800,291.929 298.519,292.575 298.182 C 293.221 297.846,294.563 297.388,295.556 297.165 C 296.550 296.942,297.912 296.517,298.582 296.220 C 299.252 295.923,300.682 295.472,301.760 295.219 C 302.839 294.965,304.225 294.497,304.841 294.179 C 305.456 293.861,306.385 293.600,306.904 293.600 C 308.996 293.600,309.490 292.697,308.490 290.695 C 308.001 289.715,307.600 288.657,307.600 288.345 C 307.600 288.033,307.356 287.423,307.057 286.989 C 306.758 286.555,306.283 285.480,306.000 284.600 C 305.717 283.720,305.242 282.645,304.943 282.211 C 304.644 281.777,304.400 281.129,304.400 280.771 C 304.400 280.412,303.950 279.273,303.400 278.238 C 302.850 277.204,302.400 276.031,302.400 275.633 C 302.400 275.234,302.067 274.479,301.661 273.954 C 301.255 273.429,300.797 272.460,300.644 271.800 C 300.492 271.140,299.990 269.790,299.530 268.800 C 297.854 265.193,297.257 263.770,296.804 262.306 C 296.550 261.484,296.175 260.708,295.971 260.582 C 295.767 260.456,295.600 260.030,295.600 259.636 C 295.600 259.242,295.150 258.073,294.600 257.038 C 294.050 256.004,293.594 254.942,293.587 254.679 C 293.581 254.415,293.132 253.300,292.591 252.200 C 292.050 251.100,291.606 249.896,291.604 249.524 C 291.602 249.152,291.440 248.748,291.244 248.627 C 291.048 248.506,290.162 246.560,289.275 244.303 C 288.388 242.046,287.380 239.660,287.034 239.000 C 286.688 238.340,286.403 237.530,286.401 237.200 C 286.399 236.870,286.059 236.045,285.645 235.367 C 285.231 234.688,284.762 233.518,284.602 232.767 C 284.442 232.015,284.078 231.130,283.793 230.800 C 283.508 230.470,283.073 229.443,282.826 228.517 C 282.580 227.591,282.216 226.734,282.018 226.611 C 281.820 226.489,281.447 225.716,281.189 224.894 C 280.932 224.072,280.407 222.680,280.025 221.800 C 279.642 220.920,278.920 219.210,278.422 218.000 C 277.923 216.790,277.177 215.037,276.765 214.104 L 276.015 212.409 277.676 211.561 C 278.590 211.095,280.251 210.391,281.369 209.996 C 285.337 208.594,288.203 207.436,288.404 207.152 C 288.516 206.993,289.146 206.733,289.804 206.573 C 290.462 206.414,291.450 205.981,292.000 205.612 C 292.550 205.242,293.585 204.706,294.300 204.421 C 295.015 204.136,295.600 203.759,295.600 203.582 C 295.600 203.406,296.230 203.054,297.000 202.800 C 297.770 202.546,298.400 202.201,298.400 202.033 C 298.400 201.866,298.880 201.510,299.466 201.243 C 304.368 199.009,314.844 188.909,318.236 183.146 C 318.475 182.739,318.946 182.089,319.282 181.703 C 319.618 181.316,320.502 179.839,321.247 178.420 C 321.991 177.002,322.825 175.594,323.100 175.292 C 323.375 174.990,323.600 174.543,323.600 174.298 C 323.600 174.053,323.948 173.121,324.374 172.226 C 325.427 170.012,326.735 166.257,327.378 163.600 C 327.670 162.390,328.174 160.680,328.496 159.800 C 328.818 158.920,329.200 156.490,329.345 154.400 C 329.491 152.310,329.805 149.336,330.045 147.792 C 330.542 144.585,329.229 130.810,328.240 128.854 C 327.947 128.274,327.578 127.080,327.420 126.200 C 327.262 125.320,326.788 124.039,326.366 123.353 C 325.945 122.667,325.600 121.857,325.599 121.553 C 325.598 120.514,320.861 112.235,319.091 110.176 C 314.802 105.189,309.898 101.165,303.400 97.300 C 302.197 96.584,297.719 94.400,297.455 94.400 C 297.328 94.400,296.240 93.950,295.037 93.400 C 293.835 92.850,292.525 92.396,292.126 92.391 C 291.727 92.386,290.627 92.031,289.682 91.603 C 288.737 91.174,287.027 90.700,285.882 90.550 C 284.737 90.400,283.020 89.945,282.067 89.539 C 281.114 89.132,279.674 88.794,278.867 88.787 C 278.060 88.779,275.690 88.386,273.600 87.912 L 269.800 87.051 193.761 86.912 C 120.425 86.778,117.690 86.799,116.814 87.508 M243.200 132.765 C 249.255 134.636,252.607 137.203,254.735 141.600 C 255.901 144.009,256.349 154.787,255.335 156.059 C 255.098 156.356,254.674 157.320,254.393 158.200 C 253.070 162.342,246.809 169.981,244.201 170.636 C 243.650 170.774,243.200 171.032,243.200 171.210 C 243.200 171.388,242.345 171.850,241.300 172.236 C 240.255 172.622,239.173 173.110,238.896 173.321 C 236.405 175.216,233.886 175.361,201.225 175.489 C 184.189 175.555,170.109 175.469,169.936 175.296 C 169.764 175.124,169.888 174.103,170.212 173.028 C 170.535 171.953,170.800 170.562,170.800 169.938 C 170.800 169.314,171.150 167.767,171.578 166.502 C 172.005 165.236,172.473 163.300,172.617 162.200 C 172.760 161.100,173.202 159.210,173.598 158.000 C 173.995 156.790,174.505 154.720,174.733 153.400 C 175.117 151.170,175.830 148.065,176.845 144.200 C 177.076 143.320,177.520 141.250,177.833 139.600 C 178.433 136.430,179.505 132.952,180.152 132.075 C 180.468 131.648,186.083 131.577,210.370 131.694 L 240.200 131.838 243.200 132.765 " stroke="none" fill="#1b1c1b" fill-rule="evenodd"></path><path id="path1" d="M0.000 200.000 L 0.000 400.000 200.000 400.000 L 400.000 400.000 400.000 200.000 L 400.000 0.000 200.000 0.000 L 0.000 0.000 0.000 200.000 M273.600 87.912 C 275.690 88.386,278.060 88.779,278.867 88.787 C 279.674 88.794,281.114 89.132,282.067 89.539 C 283.020 89.945,284.737 90.400,285.882 90.550 C 287.027 90.700,288.737 91.174,289.682 91.603 C 290.627 92.031,291.727 92.386,292.126 92.391 C 292.525 92.396,293.835 92.850,295.037 93.400 C 296.240 93.950,297.328 94.400,297.455 94.400 C 297.719 94.400,302.197 96.584,303.400 97.300 C 309.898 101.165,314.802 105.189,319.091 110.176 C 320.861 112.235,325.598 120.514,325.599 121.553 C 325.600 121.857,325.945 122.667,326.366 123.353 C 326.788 124.039,327.262 125.320,327.420 126.200 C 327.578 127.080,327.947 128.274,328.240 128.854 C 329.229 130.810,330.542 144.585,330.045 147.792 C 329.805 149.336,329.491 152.310,329.345 154.400 C 329.200 156.490,328.818 158.920,328.496 159.800 C 328.174 160.680,327.670 162.390,327.378 163.600 C 326.735 166.257,325.427 170.012,324.374 172.226 C 323.948 173.121,323.600 174.053,323.600 174.298 C 323.600 174.543,323.375 174.990,323.100 175.292 C 322.825 175.594,321.991 177.002,321.247 178.420 C 320.502 179.839,319.618 181.316,319.282 181.703 C 318.946 182.089,318.475 182.739,318.236 183.146 C 314.844 188.909,304.368 199.009,299.466 201.243 C 298.880 201.510,298.400 201.866,298.400 202.033 C 298.400 202.201,297.770 202.546,297.000 202.800 C 296.230 203.054,295.600 203.406,295.600 203.582 C 295.600 203.759,295.015 204.136,294.300 204.421 C 293.585 204.706,292.550 205.242,292.000 205.612 C 291.450 205.981,290.462 206.414,289.804 206.573 C 289.146 206.733,288.516 206.993,288.404 207.152 C 288.203 207.436,285.337 208.594,281.369 209.996 C 280.251 210.391,278.590 211.095,277.676 211.561 L 276.015 212.409 276.765 214.104 C 277.177 215.037,277.923 216.790,278.422 218.000 C 278.920 219.210,279.642 220.920,280.025 221.800 C 280.407 222.680,280.932 224.072,281.189 224.894 C 281.447 225.716,281.820 226.489,282.018 226.611 C 282.216 226.734,282.580 227.591,282.826 228.517 C 283.073 229.443,283.508 230.470,283.793 230.800 C 284.078 231.130,284.442 232.015,284.602 232.767 C 284.762 233.518,285.231 234.688,285.645 235.367 C 286.059 236.045,286.399 236.870,286.401 237.200 C 286.403 237.530,286.688 238.340,287.034 239.000 C 287.380 239.660,288.388 242.046,289.275 244.303 C 290.162 246.560,291.048 248.506,291.244 248.627 C 291.440 248.748,291.602 249.152,291.604 249.524 C 291.606 249.896,292.050 251.100,292.591 252.200 C 293.132 253.300,293.581 254.415,293.587 254.679 C 293.594 254.942,294.050 256.004,294.600 257.038 C 295.150 258.073,295.600 259.242,295.600 259.636 C 295.600 260.030,295.767 260.456,295.971 260.582 C 296.175 260.708,296.550 261.484,296.804 262.306 C 297.257 263.770,297.854 265.193,299.530 268.800 C 299.990 269.790,300.492 271.140,300.644 271.800 C 300.797 272.460,301.255 273.429,301.661 273.954 C 302.067 274.479,302.400 275.234,302.400 275.633 C 302.400 276.031,302.850 277.204,303.400 278.238 C 303.950 279.273,304.400 280.412,304.400 280.771 C 304.400 281.129,304.644 281.777,304.943 282.211 C 305.242 282.645,305.717 283.720,306.000 284.600 C 306.283 285.480,306.758 286.555,307.057 286.989 C 307.356 287.423,307.600 288.033,307.600 288.345 C 307.600 288.657,308.001 289.715,308.490 290.695 C 309.490 292.697,308.996 293.600,306.904 293.600 C 306.385 293.600,305.456 293.861,304.841 294.179 C 304.225 294.497,302.839 294.965,301.760 295.219 C 300.682 295.472,299.252 295.923,298.582 296.220 C 297.912 296.517,296.550 296.942,295.556 297.165 C 294.563 297.388,293.221 297.846,292.575 298.182 C 291.929 298.519,290.950 298.800,290.400 298.806 C 289.850 298.813,288.612 299.175,287.648 299.612 C 286.685 300.049,285.155 300.523,284.248 300.664 C 283.342 300.806,281.973 301.254,281.206 301.661 C 280.439 302.067,279.394 302.400,278.884 302.400 C 278.374 302.400,277.201 302.744,276.278 303.164 C 275.355 303.584,273.880 304.058,273.000 304.217 C 272.120 304.377,270.950 304.729,270.400 305.000 C 269.850 305.271,268.410 305.720,267.200 305.999 C 265.990 306.277,264.818 306.648,264.595 306.822 C 264.372 306.997,263.112 307.409,261.795 307.737 C 259.652 308.271,258.362 308.671,254.200 310.094 C 253.540 310.320,251.920 310.812,250.600 311.188 C 249.280 311.564,247.738 312.063,247.172 312.298 C 246.140 312.727,245.004 312.932,244.129 312.846 C 243.633 312.798,241.600 308.832,241.600 307.914 C 241.600 307.619,241.356 307.023,241.057 306.589 C 240.758 306.155,240.288 305.080,240.012 304.200 C 239.737 303.320,239.296 302.240,239.033 301.800 C 238.770 301.360,238.320 300.192,238.032 299.203 C 237.745 298.215,237.260 297.050,236.955 296.614 C 236.650 296.179,236.394 295.547,236.387 295.211 C 236.381 294.875,235.932 293.700,235.391 292.600 C 234.850 291.500,234.406 290.231,234.404 289.780 C 234.402 289.329,234.197 288.757,233.948 288.508 C 233.699 288.259,233.178 287.188,232.790 286.128 C 231.020 281.297,230.707 280.502,229.977 278.974 C 229.550 278.079,229.199 277.089,229.199 276.774 C 229.198 276.458,228.859 275.645,228.445 274.967 C 228.031 274.288,227.561 273.133,227.400 272.400 C 227.239 271.667,226.769 270.512,226.355 269.833 C 225.941 269.155,225.597 268.330,225.589 268.000 C 225.581 267.670,225.132 266.500,224.591 265.400 C 224.050 264.300,223.606 263.121,223.604 262.780 C 223.602 262.439,223.432 261.989,223.226 261.780 C 222.863 261.411,221.126 257.022,220.384 254.600 C 220.182 253.940,219.653 252.687,219.208 251.815 C 218.764 250.944,218.400 250.037,218.400 249.800 C 218.400 249.563,218.040 248.663,217.600 247.800 C 217.160 246.937,216.799 245.954,216.797 245.615 C 216.796 245.277,216.437 244.460,216.000 243.800 C 215.563 243.140,215.204 242.277,215.203 241.882 C 215.201 241.487,214.750 240.318,214.200 239.285 C 213.650 238.252,213.200 237.094,213.200 236.713 C 213.200 236.331,212.841 235.430,212.401 234.710 C 211.962 233.989,211.597 233.130,211.589 232.800 C 211.581 232.470,211.132 231.300,210.591 230.200 C 210.050 229.100,209.606 227.925,209.604 227.589 C 209.602 227.253,209.356 226.623,209.057 226.189 C 208.758 225.755,208.285 224.680,208.006 223.800 C 206.974 220.544,209.099 220.799,183.038 220.806 C 157.149 220.813,158.959 220.592,158.363 223.823 C 158.122 225.130,157.697 226.746,157.419 227.412 C 157.141 228.079,156.781 229.699,156.618 231.012 C 156.455 232.326,156.064 234.021,155.748 234.779 C 155.433 235.538,154.997 237.414,154.779 238.948 C 154.561 240.483,154.228 241.932,154.037 242.169 C 153.847 242.406,153.471 243.950,153.201 245.600 C 152.930 247.250,152.488 249.140,152.218 249.800 C 151.948 250.460,151.608 251.990,151.463 253.200 C 151.318 254.410,150.850 256.570,150.424 258.000 C 149.997 259.430,149.480 261.500,149.274 262.600 C 148.895 264.621,147.921 268.860,147.158 271.800 C 146.930 272.680,146.420 274.954,146.025 276.853 C 145.629 278.751,145.182 280.505,145.031 280.750 C 144.880 280.994,144.581 282.320,144.367 283.697 C 143.980 286.181,142.615 291.324,142.079 292.318 C 141.839 292.764,109.422 292.981,69.900 292.801 C 69.441 292.799,69.543 290.053,70.037 289.130 C 70.278 288.681,70.723 286.782,71.025 284.912 C 71.328 283.041,71.743 281.306,71.946 281.056 C 72.150 280.805,72.512 279.327,72.751 277.771 C 72.990 276.216,73.458 274.168,73.793 273.221 C 74.127 272.274,74.400 271.014,74.400 270.420 C 74.400 269.827,74.850 267.838,75.400 266.000 C 75.950 264.162,76.400 262.179,76.400 261.592 C 76.400 261.005,76.734 259.552,77.143 258.363 C 77.551 257.173,78.019 255.120,78.183 253.800 C 78.347 252.480,78.653 251.078,78.863 250.683 C 79.074 250.289,79.519 248.401,79.853 246.488 C 80.187 244.575,80.623 242.813,80.822 242.574 C 81.021 242.334,81.361 240.888,81.577 239.360 C 81.794 237.832,82.222 235.866,82.529 234.991 C 82.835 234.116,83.211 232.500,83.364 231.400 C 83.517 230.300,83.901 228.590,84.218 227.600 C 84.535 226.610,85.047 224.450,85.355 222.800 C 85.664 221.150,86.203 218.810,86.554 217.600 C 86.904 216.390,87.193 215.001,87.195 214.514 C 87.198 214.027,87.474 212.821,87.809 211.835 C 88.143 210.849,88.669 208.728,88.976 207.121 C 89.284 205.515,89.724 203.480,89.954 202.600 C 90.790 199.408,91.712 195.340,92.222 192.600 C 92.508 191.060,92.933 189.300,93.165 188.690 C 93.398 188.079,93.780 186.369,94.015 184.890 C 94.251 183.410,94.695 181.390,95.003 180.400 C 95.515 178.757,96.153 175.979,97.254 170.600 C 97.479 169.500,97.933 167.610,98.263 166.400 C 98.592 165.190,99.104 162.850,99.400 161.200 C 99.697 159.550,100.199 157.570,100.517 156.800 C 100.835 156.030,101.207 154.390,101.344 153.156 C 101.481 151.922,101.855 150.288,102.174 149.523 C 102.493 148.759,102.867 147.159,103.004 145.967 C 103.141 144.775,103.502 143.080,103.806 142.200 C 104.109 141.320,104.556 139.430,104.798 138.000 C 105.041 136.570,105.439 134.770,105.685 134.000 C 105.930 133.230,106.346 131.430,106.611 130.000 C 107.077 127.474,107.718 124.775,109.220 119.000 C 109.621 117.460,110.063 115.390,110.202 114.400 C 110.342 113.410,110.654 111.970,110.896 111.200 C 111.322 109.844,112.275 105.724,113.209 101.200 C 113.459 99.990,113.936 98.010,114.269 96.800 C 114.601 95.590,115.106 93.170,115.389 91.422 C 115.785 88.989,116.119 88.071,116.814 87.508 C 117.690 86.799,120.425 86.778,193.761 86.912 L 269.800 87.051 273.600 87.912 M180.152 132.075 C 179.505 132.952,178.433 136.430,177.833 139.600 C 177.520 141.250,177.076 143.320,176.845 144.200 C 175.830 148.065,175.117 151.170,174.733 153.400 C 174.505 154.720,173.995 156.790,173.598 158.000 C 173.202 159.210,172.760 161.100,172.617 162.200 C 172.473 163.300,172.005 165.236,171.578 166.502 C 171.150 167.767,170.800 169.314,170.800 169.938 C 170.800 170.562,170.535 171.953,170.212 173.028 C 169.888 174.103,169.764 175.124,169.936 175.296 C 170.109 175.469,184.189 175.555,201.225 175.489 C 233.886 175.361,236.405 175.216,238.896 173.321 C 239.173 173.110,240.255 172.622,241.300 172.236 C 242.345 171.850,243.200 171.388,243.200 171.210 C 243.200 171.032,243.650 170.774,244.201 170.636 C 246.809 169.981,253.070 162.342,254.393 158.200 C 254.674 157.320,255.098 156.356,255.335 156.059 C 256.349 154.787,255.901 144.009,254.735 141.600 C 252.607 137.203,249.255 134.636,243.200 132.765 L 240.200 131.838 210.370 131.694 C 186.083 131.577,180.468 131.648,180.152 132.075 " stroke="none" fill="#ec047c" fill-rule="evenodd"></path></g></svg>